SplineFontDB: 3.0
FontName: OleoScript-Regular
FullName: Oleo Script
FamilyName: Oleo Script
Weight: Book
Copyright: Copyright (c) 2012, Soytutype (contact@soytutype.com.ar|soytutype@gmail.com), with reserved fontname "Oleo Script"
Version: 1.001
ItalicAngle: 0
UnderlinePosition: -50
UnderlineWidth: 50
Ascent: 800
Descent: 200
sfntRevision: 0x00010042
LayerCount: 2
Layer: 0 1 "Back"  1
Layer: 1 1 "Fore"  0
XUID: [1021 251 411927607 2285326]
FSType: 0
OS2Version: 2
OS2_WeightWidthSlopeOnly: 0
OS2_UseTypoMetrics: 1
CreationTime: 1332840241
ModificationTime: 1332866515
PfmFamily: 17
TTFWeight: 400
TTFWidth: 5
LineGap: 0
VLineGap: 0
Panose: 2 0 0 0 0 0 0 0 0 0
OS2TypoAscent: 141
OS2TypoAOffset: 1
OS2TypoDescent: -84
OS2TypoDOffset: 1
OS2TypoLinegap: 0
OS2WinAscent: 3
OS2WinAOffset: 1
OS2WinDescent: 5
OS2WinDOffset: 1
HheadAscent: 3
HheadAOffset: 1
HheadDescent: -5
HheadDOffset: 1
OS2SubXSize: 700
OS2SubYSize: 650
OS2SubXOff: 0
OS2SubYOff: 140
OS2SupXSize: 700
OS2SupYSize: 650
OS2SupXOff: 0
OS2SupYOff: 477
OS2StrikeYSize: 50
OS2StrikeYPos: 250
OS2Vendor: 'pyrs'
OS2CodePages: 00000001.00000000
OS2UnicodeRanges: 00000023.00000000.00000000.00000000
Lookup: 258 0 0 "'kern' Horizontal Kerning in Latin lookup 0"  {"'kern' Horizontal Kerning in Latin lookup 0 subtable"  } ['kern' ('DFLT' <'dflt' > 'latn' <'dflt' > ) ]
DEI: 91125
TtTable: prep
PUSHW_1
 511
SCANCTRL
PUSHB_1
 4
SCANTYPE
EndTTInstrs
ShortTable: maxp 16
  1
  0
  245
  92
  5
  0
  0
  2
  0
  1
  1
  0
  64
  0
  0
  0
EndShort
LangName: 1033 "" "" "" "Soytutype: Oleo Script: 2012" "" "Version 1.001" "" "Oleo Script is a trademark of Soytutype." "Soytutype" "Soytutype" "" "www.soytutype.com.ar" "www.soytutype.com.ar" "This Font Software is licensed under the SIL Open Font License, Version 1.1. This license is available with a FAQ at: http://scripts.sil.org/OFL." "http://scripts.sil.org/OFL" 
GaspTable: 1 65535 15 1
Encoding: UnicodeBmp
UnicodeInterp: none
NameList: Adobe Glyph List
DisplaySize: -24
AntiAlias: 1

StartChar: exclam
Encoding: 33 33 4
Width: 298
GlyphClass: 2
Flags: W
LayerCount: 2
Fore
SplineSet
53 9 m 128,-1,1
 34 30 34 30 34 65 c 128,-1,2
 34 100 34 100 60 125.5 c 128,-1,3
 86 151 86 151 121.5 151 c 128,-1,4
 157 151 157 151 176 130.5 c 128,-1,5
 195 110 195 110 195 75.5 c 128,-1,6
 195 41 195 41 168.5 14.5 c 128,-1,7
 142 -12 142 -12 107 -12 c 128,-1,0
 72 -12 72 -12 53 9 c 128,-1,1
288 664 m 0,8,9
 288 565 288 565 223 353 c 0,10,11
 218 336 218 336 204.5 291.5 c 128,-1,12
 191 247 191 247 184 223 c 1,13,14
 157 214 157 214 136.5 214 c 128,-1,15
 116 214 116 214 100 216 c 1,16,17
 136 433 136 433 136 599 c 1,18,-1
 130 683 l 1,19,20
 215 710 215 710 282 710 c 1,21,22
 288 701 288 701 288 664 c 0,8,9
EndSplineSet
EndChar

StartChar: quotedbl
Encoding: 34 34 5
Width: 374
GlyphClass: 2
Flags: W
LayerCount: 2
Fore
SplineSet
136 732 m 0,0,1
 214 732 214 732 214 674.5 c 128,-1,2
 214 617 214 617 131 431 c 1,3,-1
 87 438 l 1,4,-1
 106 730 l 1,5,6
 126 732 126 732 136 732 c 0,0,1
296 732 m 0,7,8
 374 732 374 732 374 674.5 c 128,-1,9
 374 617 374 617 291 431 c 1,10,-1
 247 438 l 1,11,-1
 266 730 l 1,12,13
 286 732 286 732 296 732 c 0,7,8
EndSplineSet
EndChar

StartChar: numbersign
Encoding: 35 35 6
Width: 593
GlyphClass: 2
Flags: W
LayerCount: 2
Fore
SplineSet
320 -12 m 2,0,-1
 311 -12 l 1,1,2
 312 20 312 20 336 166 c 1,3,4
 304 168 304 168 287 168 c 2,5,-1
 235 168 l 1,6,7
 218 77 218 77 212 6 c 1,8,9
 176 -12 176 -12 115 -12 c 2,10,-1
 105 -12 l 1,11,12
 106 30 106 30 134 165 c 1,13,14
 57 161 57 161 33 155 c 1,15,16
 23 187 23 187 20 246 c 1,17,18
 67 251 67 251 129 251 c 2,19,-1
 152 251 l 1,20,21
 167 320 167 320 175 366 c 1,22,23
 91 362 91 362 65 356 c 1,24,25
 52 388 52 388 46 447 c 1,26,27
 96 452 96 452 158 452 c 2,28,-1
 190 452 l 1,29,30
 203 530 203 530 203 557.5 c 128,-1,31
 203 585 203 585 201 593 c 1,32,33
 263 617 263 617 306 617 c 1,34,35
 310 604 310 604 310 578 c 128,-1,36
 310 552 310 552 291 450 c 1,37,-1
 381 446 l 1,38,39
 393 533 393 533 393 559 c 128,-1,40
 393 585 393 585 391 593 c 1,41,42
 454 617 454 617 496 617 c 1,43,44
 500 604 500 604 500 575 c 128,-1,45
 500 546 500 546 483 441 c 1,46,-1
 490 441 l 2,47,48
 545 441 545 441 587 447 c 1,49,50
 589 434 589 434 589 410 c 0,51,52
 589 355 589 355 549 355 c 0,53,54
 521 355 521 355 469 359 c 1,55,56
 466 340 466 340 459 300.5 c 128,-1,57
 452 261 452 261 449 240 c 1,58,-1
 461 240 l 2,59,60
 516 240 516 240 558 246 c 1,61,62
 560 226 560 226 560 209 c 0,63,64
 560 154 560 154 520 154 c 0,65,66
 490 154 490 154 436 158 c 1,67,68
 421 58 421 58 418 6 c 1,69,70
 381 -12 381 -12 320 -12 c 2,0,-1
316 369 m 2,71,-1
 275 369 l 1,72,73
 272 357 272 357 263.5 315 c 128,-1,74
 255 273 255 273 250 249 c 1,75,-1
 350 245 l 1,76,-1
 370 367 l 1,77,78
 334 369 334 369 316 369 c 2,71,-1
EndSplineSet
EndChar

StartChar: dollar
Encoding: 36 36 7
Width: 473
GlyphClass: 2
Flags: W
LayerCount: 2
Fore
SplineSet
432 196 m 0,0,1
 432 110 432 110 372.5 56 c 128,-1,2
 313 2 313 2 224 -9 c 1,3,4
 214 -84 214 -84 214 -118 c 1,5,6
 187 -118 187 -118 150 -105 c 1,7,-1
 167 -11 l 1,8,9
 103 -7 103 -7 62 26.5 c 128,-1,10
 21 60 21 60 16 84 c 1,11,12
 27 117 27 117 63 158 c 128,-1,13
 99 199 99 199 128 208 c 1,14,15
 179 175 179 175 223 61 c 1,16,17
 252 62 252 62 270 79.5 c 128,-1,18
 288 97 288 97 288 133.5 c 128,-1,19
 288 170 288 170 257.5 225.5 c 128,-1,20
 227 281 227 281 191 329.5 c 128,-1,21
 155 378 155 378 124.5 438.5 c 128,-1,22
 94 499 94 499 94 546 c 0,23,24
 94 622 94 622 156 666 c 128,-1,25
 218 710 218 710 305 710 c 2,26,-1
 311 710 l 1,27,28
 318 764 318 764 320 802 c 1,29,30
 347 802 347 802 384 789 c 1,31,-1
 368 701 l 1,32,33
 409 688 409 688 432.5 659.5 c 128,-1,34
 456 631 456 631 456 595.5 c 128,-1,35
 456 560 456 560 424 516 c 128,-1,36
 392 472 392 472 360 446 c 2,37,-1
 328 420 l 1,38,39
 340 404 340 404 357 379 c 128,-1,40
 374 354 374 354 403 294 c 128,-1,41
 432 234 432 234 432 196 c 0,0,1
380 555.5 m 128,-1,43
 391 574 391 574 391 594.5 c 128,-1,44
 391 615 391 615 367 629 c 128,-1,45
 343 643 343 643 309.5 643 c 128,-1,46
 276 643 276 643 253.5 627.5 c 128,-1,47
 231 612 231 612 231 590.5 c 128,-1,48
 231 569 231 569 245.5 540.5 c 128,-1,49
 260 512 260 512 274 493 c 2,50,-1
 289 474 l 1,51,52
 299 479 299 479 320.5 495 c 128,-1,53
 342 511 342 511 355.5 524 c 128,-1,42
 369 537 369 537 380 555.5 c 128,-1,43
EndSplineSet
EndChar

StartChar: percent
Encoding: 37 37 8
Width: 813
GlyphClass: 2
Flags: W
LayerCount: 2
Fore
SplineSet
326.5 696 m 128,-1,1
 356 657 356 657 356 597.5 c 128,-1,2
 356 538 356 538 337 483.5 c 128,-1,3
 318 429 318 429 271.5 389 c 128,-1,4
 225 349 225 349 163.5 349 c 128,-1,5
 102 349 102 349 71.5 387.5 c 128,-1,6
 41 426 41 426 41 489 c 0,7,8
 41 598 41 598 95.5 666.5 c 128,-1,9
 150 735 150 735 236 735 c 0,10,0
 297 735 297 735 326.5 696 c 128,-1,1
175 395 m 0,11,12
 211 395 211 395 232 494 c 0,13,14
 244 550 244 550 244 619.5 c 128,-1,15
 244 689 244 689 218 689 c 0,16,17
 185 689 185 689 164 590 c 1,18,19
 153 533 153 533 153 464 c 128,-1,20
 153 395 153 395 175 395 c 0,11,12
776.5 333 m 128,-1,22
 806 294 806 294 806 234.5 c 128,-1,23
 806 175 806 175 787 120.5 c 128,-1,24
 768 66 768 66 721.5 26 c 128,-1,25
 675 -14 675 -14 613.5 -14 c 128,-1,26
 552 -14 552 -14 521.5 24.5 c 128,-1,27
 491 63 491 63 491 126 c 0,28,29
 491 235 491 235 545.5 303.5 c 128,-1,30
 600 372 600 372 686 372 c 0,31,21
 747 372 747 372 776.5 333 c 128,-1,22
625 32 m 0,32,33
 661 32 661 32 682 131 c 0,34,35
 694 187 694 187 694 256.5 c 128,-1,36
 694 326 694 326 668 326 c 0,37,38
 635 326 635 326 614 226 c 0,39,40
 603 170 603 170 603 101 c 128,-1,41
 603 32 603 32 625 32 c 0,32,33
643 701 m 1,42,43
 596 594 596 594 528.5 468.5 c 128,-1,44
 461 343 461 343 406 229.5 c 128,-1,45
 351 116 351 116 309 -11 c 1,46,47
 292 -10 292 -10 266 0 c 0,48,49
 238 10 238 10 218 27 c 1,50,51
 265 160 265 160 378 381 c 128,-1,52
 491 602 491 602 542 734 c 1,53,54
 617 719 617 719 643 701 c 1,42,43
EndSplineSet
EndChar

StartChar: ampersand
Encoding: 38 38 9
Width: 721
GlyphClass: 2
Flags: W
LayerCount: 2
Fore
SplineSet
668 82 m 0,0,1
 680 82 680 82 710 100 c 2,2,-1
 720 106 l 1,3,-1
 745 69 l 1,4,5
 664 -9 664 -9 589 -9 c 128,-1,6
 514 -9 514 -9 460 65 c 1,7,8
 371 -11 371 -11 260 -11 c 0,9,10
 173 -11 173 -11 121.5 33.5 c 128,-1,11
 70 78 70 78 70 156 c 0,12,13
 70 299 70 299 257 399 c 1,14,15
 214 482 214 482 214 541 c 0,16,17
 214 621 214 621 272 665.5 c 128,-1,18
 330 710 330 710 409 710 c 128,-1,19
 488 710 488 710 525.5 676.5 c 128,-1,20
 563 643 563 643 563 598 c 0,21,22
 563 514 563 514 415 412 c 1,23,24
 461 324 461 324 519 237 c 1,25,26
 542 268 542 268 569.5 317.5 c 128,-1,27
 597 367 597 367 602 375 c 1,28,29
 657 367 657 367 672 341 c 1,30,31
 661 327 661 327 623.5 270 c 128,-1,32
 586 213 586 213 562 183 c 1,33,34
 641 82 641 82 668 82 c 0,0,1
212 180 m 0,35,36
 212 125 212 125 237 96.5 c 128,-1,37
 262 68 262 68 298 68 c 128,-1,38
 334 68 334 68 361 81 c 128,-1,39
 388 94 388 94 401 107 c 2,40,-1
 414 120 l 1,41,42
 323 264 323 264 286 341 c 1,43,44
 212 282 212 282 212 180 c 0,35,36
469 558 m 128,-1,46
 476 574 476 574 476 593.5 c 128,-1,47
 476 613 476 613 459.5 628 c 128,-1,48
 443 643 443 643 413 643 c 128,-1,49
 383 643 383 643 359.5 626.5 c 128,-1,50
 336 610 336 610 336 572.5 c 128,-1,51
 336 535 336 535 379 469 c 1,52,53
 393 479 393 479 405 487 c 128,-1,54
 417 495 417 495 430 507 c 128,-1,55
 443 519 443 519 452.5 530.5 c 128,-1,45
 462 542 462 542 469 558 c 128,-1,46
EndSplineSet
EndChar

StartChar: quotesingle
Encoding: 39 39 10
Width: 214
GlyphClass: 2
Flags: W
LayerCount: 2
Fore
SplineSet
136 732 m 0,0,1
 214 732 214 732 214 674.5 c 128,-1,2
 214 617 214 617 131 431 c 1,3,-1
 87 438 l 1,4,-1
 106 730 l 1,5,6
 126 732 126 732 136 732 c 0,0,1
EndSplineSet
EndChar

StartChar: parenleft
Encoding: 40 40 11
Width: 345
GlyphClass: 2
Flags: W
LayerCount: 2
Fore
SplineSet
197 81 m 0,0,1
 197 -23 197 -23 208 -76 c 128,-1,2
 219 -129 219 -129 250 -184 c 1,3,-1
 205 -228 l 1,4,5
 188 -214 188 -214 163.5 -178 c 128,-1,6
 139 -142 139 -142 122.5 -102 c 128,-1,7
 106 -62 106 -62 92.5 8.5 c 128,-1,8
 79 79 79 79 79 179 c 128,-1,9
 79 279 79 279 106.5 381.5 c 128,-1,10
 134 484 134 484 172 546 c 128,-1,11
 210 608 210 608 251 653 c 128,-1,12
 292 698 292 698 317 716 c 128,-1,13
 342 734 342 734 346 734 c 1,14,-1
 383 684 l 1,15,16
 197 526 197 526 197 81 c 0,0,1
EndSplineSet
EndChar

StartChar: parenright
Encoding: 41 41 12
Width: 373
GlyphClass: 2
Flags: W
LayerCount: 2
Fore
SplineSet
192 422 m 0,0,1
 192 531 192 531 180.5 582 c 128,-1,2
 169 633 169 633 139 690 c 1,3,-1
 184 734 l 1,4,5
 201 720 201 720 225.5 684 c 128,-1,6
 250 648 250 648 266.5 608 c 128,-1,7
 283 568 283 568 296.5 497.5 c 128,-1,8
 310 427 310 427 310 327 c 128,-1,9
 310 227 310 227 282.5 124.5 c 128,-1,10
 255 22 255 22 217 -40 c 128,-1,11
 179 -102 179 -102 138 -147 c 128,-1,12
 97 -192 97 -192 72 -210 c 128,-1,13
 47 -228 47 -228 43 -228 c 1,14,-1
 6 -178 l 1,15,16
 192 -20 192 -20 192 422 c 0,0,1
EndSplineSet
EndChar

StartChar: asterisk
Encoding: 42 42 13
Width: 383
GlyphClass: 2
Flags: W
LayerCount: 2
Fore
SplineSet
264 531 m 1,0,1
 298 504 298 504 319 504 c 128,-1,2
 340 504 340 504 364 512 c 1,3,4
 375 504 375 504 384 480 c 128,-1,5
 393 456 393 456 393 435 c 1,6,7
 367 406 367 406 330 406 c 0,8,9
 322 406 322 406 311.5 410.5 c 128,-1,10
 301 415 301 415 273 448.5 c 128,-1,11
 245 482 245 482 228 514 c 1,12,13
 209 480 209 480 209 466 c 0,14,15
 209 442 209 442 222 415 c 1,16,-1
 227 406 l 1,17,18
 220 393 220 393 198.5 380 c 128,-1,19
 177 367 177 367 156 363 c 1,20,21
 139 373 139 373 127 392 c 128,-1,22
 115 411 115 411 115 428 c 0,23,24
 115 468 115 468 203 539 c 1,25,26
 177 543 177 543 164.5 543 c 128,-1,27
 152 543 152 543 145 541.5 c 128,-1,28
 138 540 138 540 125.5 532 c 128,-1,29
 113 524 113 524 106 516 c 2,30,-1
 99 509 l 1,31,32
 86 511 86 511 67 528 c 128,-1,33
 48 545 48 545 38 563 c 1,34,35
 42 584 42 584 60.5 603.5 c 128,-1,36
 79 623 79 623 95 623 c 128,-1,37
 111 623 111 623 148 608 c 128,-1,38
 185 593 185 593 215 574 c 1,39,40
 213 611 213 611 207 622 c 0,41,42
 196 641 196 641 170 658 c 1,43,-1
 161 663 l 1,44,45
 161 679 161 679 171.5 701 c 128,-1,46
 182 723 182 723 197 736 c 1,47,48
 219 736 219 736 241.5 724 c 128,-1,49
 264 712 264 712 270 696 c 0,50,51
 272 688 272 688 272 677 c 0,52,53
 272 623 272 623 252 566 c 1,54,55
 285 582 285 582 295 596 c 1,56,57
 308 611 308 611 312 642 c 1,58,-1
 314 652 l 1,59,60
 323 657 323 657 347 657 c 128,-1,61
 371 657 371 657 395 646 c 1,62,63
 403 630 403 630 403 605 c 128,-1,64
 403 580 403 580 387 564 c 0,65,66
 377 555 377 555 339 544.5 c 128,-1,67
 301 534 301 534 264 531 c 1,0,1
EndSplineSet
EndChar

StartChar: plus
Encoding: 43 43 14
Width: 503
GlyphClass: 2
Flags: W
LayerCount: 2
Fore
SplineSet
295 238 m 1,0,-1
 295 95 l 1,1,2
 275 86 275 86 212 86 c 2,3,-1
 203 86 l 1,4,-1
 203 238 l 1,5,-1
 64 238 l 1,6,7
 64 297 64 297 68 326 c 1,8,-1
 203 326 l 1,9,-1
 203 465 l 1,10,11
 235 473 235 473 294 473 c 1,12,-1
 294 326 l 1,13,-1
 442 326 l 1,14,15
 442 246 442 246 439 238 c 1,16,-1
 295 238 l 1,0,-1
EndSplineSet
EndChar

StartChar: comma
Encoding: 44 44 15
Width: 235
GlyphClass: 2
Flags: W
LayerCount: 2
Fore
SplineSet
24 16 m 1,0,1
 24 88 24 88 80 151 c 1,2,3
 132 151 132 151 166 120.5 c 128,-1,4
 200 90 200 90 200 49 c 0,5,6
 200 -53 200 -53 78 -192 c 1,7,-1
 36 -165 l 1,8,9
 98 -71 98 -71 103 -32 c 1,10,-1
 24 16 l 1,0,1
EndSplineSet
EndChar

StartChar: hyphen
Encoding: 45 45 16
Width: 369
GlyphClass: 2
Flags: W
LayerCount: 2
Fore
SplineSet
54 238 m 1,0,1
 54 300 54 300 57 323 c 1,2,-1
 332 323 l 1,3,4
 332 254 332 254 329 238 c 1,5,-1
 54 238 l 1,0,1
EndSplineSet
EndChar

StartChar: period
Encoding: 46 46 17
Width: 248
GlyphClass: 2
Flags: W
LayerCount: 2
Fore
SplineSet
62 9 m 128,-1,1
 43 30 43 30 43 65 c 128,-1,2
 43 100 43 100 69 125.5 c 128,-1,3
 95 151 95 151 130.5 151 c 128,-1,4
 166 151 166 151 185 130.5 c 128,-1,5
 204 110 204 110 204 75.5 c 128,-1,6
 204 41 204 41 177.5 14.5 c 128,-1,7
 151 -12 151 -12 116 -12 c 128,-1,0
 81 -12 81 -12 62 9 c 128,-1,1
EndSplineSet
EndChar

StartChar: slash
Encoding: 47 47 18
Width: 361
GlyphClass: 2
Flags: W
LayerCount: 2
Fore
SplineSet
381 715 m 1,0,1
 216 296 216 296 72 -110 c 1,2,3
 33 -110 33 -110 -5 -72 c 1,4,5
 168 408 168 408 299 748 c 1,6,7
 344 741 344 741 381 715 c 1,0,1
EndSplineSet
EndChar

StartChar: zero
Encoding: 48 48 19
Width: 570
GlyphClass: 2
Flags: W
LayerCount: 2
Fore
SplineSet
565 452 m 0,0,1
 565 284 565 284 490 144 c 0,2,3
 453 74 453 74 389.5 31 c 128,-1,4
 326 -12 326 -12 246 -12 c 0,5,6
 149 -12 149 -12 100 59.5 c 128,-1,7
 51 131 51 131 51 249 c 0,8,9
 51 453 51 453 140 581.5 c 128,-1,10
 229 710 229 710 369 710 c 0,11,12
 469 710 469 710 517 637.5 c 128,-1,13
 565 565 565 565 565 452 c 0,0,1
255 55 m 0,14,15
 300 55 300 55 333.5 113.5 c 128,-1,16
 367 172 367 172 382 256 c 0,17,18
 411 420 411 420 411 502.5 c 128,-1,19
 411 585 411 585 397.5 613.5 c 128,-1,20
 384 642 384 642 349.5 642 c 128,-1,21
 315 642 315 642 285.5 595 c 128,-1,22
 256 548 256 548 239 474 c 0,23,24
 205 328 205 328 205 178 c 0,25,26
 205 106 205 106 218 80.5 c 128,-1,27
 231 55 231 55 255 55 c 0,14,15
EndSplineSet
EndChar

StartChar: one
Encoding: 49 49 20
Width: 373
GlyphClass: 2
Flags: W
LayerCount: 2
Fore
SplineSet
100 -3 m 2,0,-1
 90 -3 l 1,1,2
 92 70 92 70 147 309.5 c 128,-1,3
 202 549 202 549 202 596 c 0,4,5
 202 619 202 619 201 624 c 1,6,7
 146 594 146 594 81 529 c 1,8,9
 69 535 69 535 56.5 550.5 c 128,-1,10
 44 566 44 566 38 578 c 2,11,-1
 32 590 l 1,12,-1
 199 697 l 1,13,14
 273 710 273 710 351 710 c 1,15,16
 363 690 363 690 363 646.5 c 128,-1,17
 363 603 363 603 338 494.5 c 128,-1,18
 313 386 313 386 286 252.5 c 128,-1,19
 259 119 259 119 256 17 c 1,20,21
 220 -3 220 -3 100 -3 c 2,0,-1
EndSplineSet
EndChar

StartChar: two
Encoding: 50 50 21
Width: 495
GlyphClass: 2
Flags: W
LayerCount: 2
Fore
SplineSet
372 -18 m 0,0,1
 337 -18 337 -18 267 22.5 c 128,-1,2
 197 63 197 63 151 76 c 1,3,4
 117 40 117 40 85.5 17.5 c 128,-1,5
 54 -5 54 -5 43 -5 c 128,-1,6
 32 -5 32 -5 3.5 30.5 c 128,-1,7
 -25 66 -25 66 -25 84.5 c 128,-1,8
 -25 103 -25 103 8.5 137.5 c 128,-1,9
 42 172 42 172 86 172 c 0,10,11
 113 172 113 172 139 166 c 1,12,13
 209 222 209 222 272 328.5 c 128,-1,14
 335 435 335 435 335 515 c 0,15,16
 335 560 335 560 308 585.5 c 128,-1,17
 281 611 281 611 242.5 611 c 128,-1,18
 204 611 204 611 167.5 586 c 128,-1,19
 131 561 131 561 105 517 c 1,20,-1
 59 537 l 1,21,22
 79 600 79 600 149.5 655 c 128,-1,23
 220 710 220 710 306.5 710 c 128,-1,24
 393 710 393 710 441.5 663 c 128,-1,25
 490 616 490 616 490 545 c 0,26,27
 490 494 490 494 460.5 433.5 c 128,-1,28
 431 373 431 373 385 318 c 0,29,30
 299 217 299 217 213 148 c 1,31,32
 338 114 338 114 406 114 c 0,33,34
 425 114 425 114 434 124.5 c 128,-1,35
 443 135 443 135 462 173 c 1,36,-1
 495 166 l 1,37,38
 485 -18 485 -18 372 -18 c 0,0,1
EndSplineSet
EndChar

StartChar: three
Encoding: 51 51 22
Width: 477
GlyphClass: 2
Flags: W
LayerCount: 2
Fore
SplineSet
150 662.5 m 128,-1,1
 211 710 211 710 291.5 710 c 128,-1,2
 372 710 372 710 421.5 666.5 c 128,-1,3
 471 623 471 623 471 561 c 128,-1,4
 471 499 471 499 425 451.5 c 128,-1,5
 379 404 379 404 310 386 c 1,6,7
 378 374 378 374 421.5 328 c 128,-1,8
 465 282 465 282 465 209 c 0,9,10
 465 117 465 117 388 52.5 c 128,-1,11
 311 -12 311 -12 208 -12 c 0,12,13
 96 -12 96 -12 30 54 c 0,14,15
 -5 88 -5 88 -5 135 c 0,16,17
 -5 150 -5 150 3 171.5 c 128,-1,18
 11 193 11 193 23 205 c 1,19,20
 33 207 33 207 45 207 c 0,21,22
 116 207 116 207 154 169 c 1,23,-1
 140 63 l 1,24,25
 154 52 154 52 187 52 c 0,26,27
 237 52 237 52 273.5 104.5 c 128,-1,28
 310 157 310 157 310 229 c 128,-1,29
 310 301 310 301 278 327.5 c 128,-1,30
 246 354 246 354 172 354 c 1,31,-1
 149 353 l 1,32,-1
 155 404 l 1,33,34
 204 409 204 409 228.5 420.5 c 128,-1,35
 253 432 253 432 274 448 c 0,36,37
 321 482 321 482 321 549 c 0,38,39
 321 591 321 591 298.5 611.5 c 128,-1,40
 276 632 276 632 245 632 c 0,41,42
 163 632 163 632 113 535 c 1,43,-1
 69 554 l 1,44,0
 89 615 89 615 150 662.5 c 128,-1,1
EndSplineSet
EndChar

StartChar: four
Encoding: 52 52 23
Width: 548
GlyphClass: 2
Flags: W
LayerCount: 2
Fore
SplineSet
510 158 m 0,0,1
 489 144 489 144 460 144 c 128,-1,2
 431 144 431 144 408 148 c 1,3,4
 398 73 398 73 398 16 c 1,5,6
 359 -4 359 -4 241 -4 c 2,7,-1
 231 -4 l 1,8,9
 231 40 231 40 259 177 c 1,10,11
 196 187 196 187 146.5 187 c 128,-1,12
 97 187 97 187 58 174 c 2,13,-1
 19 160 l 1,14,15
 19 160 19 160 18 160 c 0,16,17
 8 160 8 160 -7.5 182 c 128,-1,18
 -23 204 -23 204 -24 223 c 0,19,20
 -24 230 -24 230 -6 248 c 1,21,22
 151 471 151 471 312 693 c 1,23,24
 376 707 376 707 490 710 c 1,25,26
 503 690 503 690 503 653.5 c 128,-1,27
 503 617 503 617 491.5 559 c 128,-1,28
 480 501 480 501 459 411 c 128,-1,29
 438 321 438 321 427 263 c 1,30,31
 465 261 465 261 486.5 261 c 128,-1,32
 508 261 508 261 518 276 c 2,33,-1
 534 303 l 1,34,-1
 570 291 l 1,35,36
 555 187 555 187 510 158 c 0,0,1
281 280 m 1,37,38
 345 561 345 561 346 620 c 1,39,40
 254 514 254 514 120 292 c 1,41,42
 187 291 187 291 281 280 c 1,37,38
EndSplineSet
EndChar

StartChar: five
Encoding: 53 53 24
Width: 481
GlyphClass: 2
Flags: W
LayerCount: 2
Fore
SplineSet
219 695 m 1,0,-1
 434 704 l 1,1,2
 472 704 472 704 498 691 c 1,3,4
 504 677 504 677 504 652 c 0,5,6
 504 606 504 606 486 561 c 1,7,-1
 481 547 l 1,8,9
 434 580 434 580 366 580 c 0,10,11
 245 580 245 580 194 574 c 1,12,13
 182 528 182 528 171 462 c 1,14,15
 291 458 291 458 373 412 c 0,16,17
 417 388 417 388 442 343 c 128,-1,18
 467 298 467 298 467 236 c 0,19,20
 467 136 467 136 391 62 c 128,-1,21
 315 -12 315 -12 210 -12 c 0,22,23
 134 -12 134 -12 71 28.5 c 128,-1,24
 8 69 8 69 8 133 c 0,25,26
 8 180 8 180 32 207 c 1,27,28
 38 208 38 208 49 208 c 0,29,30
 120 208 120 208 160 166 c 1,31,-1
 153 60 l 1,32,33
 169 49 169 49 194 49 c 0,34,35
 248 49 248 49 280.5 106 c 128,-1,36
 313 163 313 163 313 250.5 c 128,-1,37
 313 338 313 338 267 374.5 c 128,-1,38
 221 411 221 411 128 411 c 2,39,-1
 111 411 l 1,40,-1
 91 438 l 1,41,42
 101 472 101 472 119 569 c 128,-1,43
 137 666 137 666 149 699 c 1,44,45
 178 695 178 695 219 695 c 1,0,-1
EndSplineSet
EndChar

StartChar: six
Encoding: 54 54 25
Width: 547
GlyphClass: 2
Flags: W
LayerCount: 2
Fore
SplineSet
367 648 m 0,0,1
 309 648 309 648 270.5 574.5 c 128,-1,2
 232 501 232 501 215 381 c 1,3,4
 276 420 276 420 353 420 c 128,-1,5
 430 420 430 420 471.5 369.5 c 128,-1,6
 513 319 513 319 513 228.5 c 128,-1,7
 513 138 513 138 441 63 c 128,-1,8
 369 -12 369 -12 262 -12 c 0,9,10
 51 -12 51 -12 51 252 c 0,11,12
 51 375 51 375 91.5 480 c 128,-1,13
 132 585 132 585 206 647.5 c 128,-1,14
 280 710 280 710 371 710 c 0,15,16
 439 710 439 710 492 675.5 c 128,-1,17
 545 641 545 641 545 576 c 0,18,19
 545 530 545 530 521 505 c 1,20,21
 513 504 513 504 499 504 c 0,22,23
 426 504 426 504 390 543 c 1,24,-1
 405 637 l 1,25,26
 389 648 389 648 367 648 c 0,0,1
293 350 m 0,27,28
 257 350 257 350 208 316 c 1,29,30
 204 267 204 267 204 191.5 c 128,-1,31
 204 116 204 116 218 83 c 128,-1,32
 232 50 232 50 265 50 c 0,33,34
 312 50 312 50 335 107 c 128,-1,35
 358 164 358 164 358 234 c 0,36,37
 358 350 358 350 293 350 c 0,27,28
EndSplineSet
EndChar

StartChar: seven
Encoding: 55 55 26
Width: 418
GlyphClass: 2
Flags: W
LayerCount: 2
Fore
SplineSet
171 583 m 0,0,1
 121 583 121 583 59 542 c 1,2,3
 37 593 37 593 37 652 c 0,4,5
 37 674 37 674 43 692 c 1,6,7
 103 707 103 707 148 707 c 128,-1,8
 193 707 193 707 264.5 700.5 c 128,-1,9
 336 694 336 694 377.5 694 c 128,-1,10
 419 694 419 694 468 702 c 1,11,-1
 483 667 l 1,12,13
 375 506 375 506 313.5 335.5 c 128,-1,14
 252 165 252 165 238 16 c 1,15,16
 229 9 229 9 184.5 2.5 c 128,-1,17
 140 -4 140 -4 105 -4 c 2,18,-1
 84 -4 l 1,19,20
 94 80 94 80 122 164 c 0,21,22
 169 309 169 309 330 574 c 1,23,24
 253 583 253 583 171 583 c 0,0,1
EndSplineSet
EndChar

StartChar: eight
Encoding: 56 56 27
Width: 500
GlyphClass: 2
Flags: W
LayerCount: 2
Fore
SplineSet
380 46 m 128,-1,1
 307 -11 307 -11 221.5 -11 c 128,-1,2
 136 -11 136 -11 88 31 c 128,-1,3
 40 73 40 73 40 140 c 0,4,5
 40 253 40 253 200 361 c 1,6,7
 122 482 122 482 122 552.5 c 128,-1,8
 122 623 122 623 186.5 666.5 c 128,-1,9
 251 710 251 710 333.5 710 c 128,-1,10
 416 710 416 710 458 674 c 128,-1,11
 500 638 500 638 500 586 c 0,12,13
 500 499 500 499 370 384 c 1,14,15
 377 372 377 372 396 344 c 128,-1,16
 415 316 415 316 425 298 c 0,17,18
 453 250 453 250 453 195 c 0,19,0
 453 103 453 103 380 46 c 128,-1,1
127 145 m 0,20,21
 127 104 127 104 153 80 c 128,-1,22
 179 56 179 56 220.5 56 c 128,-1,23
 262 56 262 56 293 76.5 c 128,-1,24
 324 97 324 97 324 131 c 0,25,26
 324 170 324 170 281 238 c 0,27,28
 266 261 266 261 237 305 c 1,29,30
 127 230 127 230 127 145 c 0,20,21
416 585 m 0,31,32
 416 643 416 643 349 643 c 0,33,34
 313 643 313 643 287.5 627.5 c 128,-1,35
 262 612 262 612 262 584.5 c 128,-1,36
 262 557 262 557 288.5 510 c 128,-1,37
 315 463 315 463 333 440 c 1,38,39
 363 464 363 464 389.5 508.5 c 128,-1,40
 416 553 416 553 416 585 c 0,31,32
EndSplineSet
EndChar

StartChar: nine
Encoding: 57 57 28
Width: 528
GlyphClass: 2
Flags: W
LayerCount: 2
Fore
SplineSet
68 134 m 1,0,1
 124 67 124 67 188 67 c 0,2,3
 320 67 320 67 355 303 c 1,4,5
 302 275 302 275 237 275 c 0,6,7
 153 275 153 275 105.5 326.5 c 128,-1,8
 58 378 58 378 58 460 c 0,9,10
 58 566 58 566 132 638 c 128,-1,11
 206 710 206 710 311.5 710 c 128,-1,12
 417 710 417 710 470 644.5 c 128,-1,13
 523 579 523 579 523 448.5 c 128,-1,14
 523 318 523 318 489 217.5 c 128,-1,15
 455 117 455 117 384 52.5 c 128,-1,16
 313 -12 313 -12 218 -12 c 0,17,18
 144 -12 144 -12 96 22.5 c 128,-1,19
 48 57 48 57 25 99 c 1,20,-1
 68 134 l 1,0,1
285 345 m 0,21,22
 326 345 326 345 362 367 c 1,23,24
 367 424 367 424 367 494.5 c 128,-1,25
 367 565 367 565 354.5 606 c 128,-1,26
 342 647 342 647 300.5 647 c 128,-1,27
 259 647 259 647 236.5 591.5 c 128,-1,28
 214 536 214 536 214 462 c 0,29,30
 214 345 214 345 285 345 c 0,21,22
EndSplineSet
EndChar

StartChar: colon
Encoding: 58 58 29
Width: 318
GlyphClass: 2
Flags: W
LayerCount: 2
Fore
SplineSet
84 9 m 128,-1,1
 65 30 65 30 65 65 c 128,-1,2
 65 100 65 100 91 125.5 c 128,-1,3
 117 151 117 151 152.5 151 c 128,-1,4
 188 151 188 151 207 130.5 c 128,-1,5
 226 110 226 110 226 75.5 c 128,-1,6
 226 41 226 41 199.5 14.5 c 128,-1,7
 173 -12 173 -12 138 -12 c 128,-1,0
 103 -12 103 -12 84 9 c 128,-1,1
121 300 m 128,-1,9
 102 321 102 321 102 356 c 128,-1,10
 102 391 102 391 128 416.5 c 128,-1,11
 154 442 154 442 189.5 442 c 128,-1,12
 225 442 225 442 244 421.5 c 128,-1,13
 263 401 263 401 263 366.5 c 128,-1,14
 263 332 263 332 236.5 305.5 c 128,-1,15
 210 279 210 279 175 279 c 128,-1,8
 140 279 140 279 121 300 c 128,-1,9
EndSplineSet
EndChar

StartChar: semicolon
Encoding: 59 59 30
Width: 320
GlyphClass: 2
Flags: W
LayerCount: 2
Fore
SplineSet
121 300 m 128,-1,1
 102 321 102 321 102 356 c 128,-1,2
 102 391 102 391 128 416.5 c 128,-1,3
 154 442 154 442 189.5 442 c 128,-1,4
 225 442 225 442 244 421.5 c 128,-1,5
 263 401 263 401 263 366.5 c 128,-1,6
 263 332 263 332 236.5 305.5 c 128,-1,7
 210 279 210 279 175 279 c 128,-1,0
 140 279 140 279 121 300 c 128,-1,1
57 16 m 1,8,9
 57 88 57 88 113 151 c 1,10,11
 165 151 165 151 199 120.5 c 128,-1,12
 233 90 233 90 233 49 c 0,13,14
 233 -53 233 -53 111 -192 c 1,15,-1
 69 -165 l 1,16,17
 131 -71 131 -71 136 -32 c 1,18,-1
 57 16 l 1,8,9
EndSplineSet
EndChar

StartChar: less
Encoding: 60 60 31
Width: 421
GlyphClass: 2
Flags: W
LayerCount: 2
Fore
SplineSet
154 283 m 1,0,-1
 391 194 l 1,1,2
 391 131 391 131 382 105 c 1,3,-1
 40 244 l 1,4,-1
 40 319 l 1,5,-1
 382 475 l 1,6,7
 391 450 391 450 391 386 c 1,8,-1
 154 283 l 1,0,-1
EndSplineSet
EndChar

StartChar: equal
Encoding: 61 61 32
Width: 532
GlyphClass: 2
Flags: W
LayerCount: 2
Fore
SplineSet
85 159 m 1,0,1
 85 221 85 221 95 249 c 1,2,-1
 465 249 l 1,3,4
 465 182 465 182 459 159 c 1,5,-1
 85 159 l 1,0,1
85 315 m 1,6,7
 85 374 85 374 96 405 c 1,8,-1
 465 405 l 1,9,10
 465 354 465 354 459 315 c 1,11,-1
 85 315 l 1,6,7
EndSplineSet
EndChar

StartChar: greater
Encoding: 62 62 33
Width: 405
GlyphClass: 2
Flags: W
LayerCount: 2
Fore
SplineSet
55 194 m 1,0,-1
 292 283 l 1,1,-1
 55 386 l 1,2,3
 55 437 55 437 68 473 c 1,4,-1
 406 319 l 1,5,-1
 406 244 l 1,6,-1
 64 105 l 1,7,8
 55 131 55 131 55 194 c 1,0,-1
EndSplineSet
EndChar

StartChar: question
Encoding: 63 63 34
Width: 382
GlyphClass: 2
Flags: W
LayerCount: 2
Fore
SplineSet
237 285 m 0,0,1
 237 275 237 275 253.5 265.5 c 128,-1,2
 270 256 270 256 289 255 c 1,3,4
 280 219 280 219 271 206 c 1,5,6
 199 206 199 206 152.5 236.5 c 128,-1,7
 106 267 106 267 106 323 c 0,8,9
 106 355 106 355 130.5 395 c 128,-1,10
 155 435 155 435 184.5 467 c 128,-1,11
 214 499 214 499 238.5 542.5 c 128,-1,12
 263 586 263 586 263 622 c 128,-1,13
 263 658 263 658 234 658 c 1,14,15
 208 592 208 592 151 540 c 1,16,17
 127 547 127 547 86.5 580 c 128,-1,18
 46 613 46 613 46 627 c 0,19,20
 46 649 46 649 90.5 679.5 c 128,-1,21
 135 710 135 710 191 710 c 0,22,23
 278 710 278 710 334.5 662 c 128,-1,24
 391 614 391 614 391 542 c 0,25,26
 391 509 391 509 374 474 c 128,-1,27
 357 439 357 439 342.5 421 c 128,-1,28
 328 403 328 403 300 372 c 0,29,30
 237 305 237 305 237 285 c 0,0,1
100 9 m 128,-1,32
 81 30 81 30 81 65 c 128,-1,33
 81 100 81 100 107 125.5 c 128,-1,34
 133 151 133 151 168.5 151 c 128,-1,35
 204 151 204 151 223 130.5 c 128,-1,36
 242 110 242 110 242 75.5 c 128,-1,37
 242 41 242 41 215.5 14.5 c 128,-1,38
 189 -12 189 -12 154 -12 c 128,-1,31
 119 -12 119 -12 100 9 c 128,-1,32
EndSplineSet
EndChar

StartChar: at
Encoding: 64 64 35
Width: 774
GlyphClass: 2
Flags: W
LayerCount: 2
Fore
SplineSet
362 -12 m 0,0,1
 208 -12 208 -12 128 78.5 c 128,-1,2
 48 169 48 169 48 305 c 0,3,4
 48 385 48 385 76.5 458 c 128,-1,5
 105 531 105 531 156 587 c 128,-1,6
 207 643 207 643 284 676.5 c 128,-1,7
 361 710 361 710 451 710 c 0,8,9
 595 710 595 710 677 633 c 128,-1,10
 759 556 759 556 759 433 c 0,11,12
 759 365 759 365 733 308.5 c 128,-1,13
 707 252 707 252 669 219.5 c 128,-1,14
 631 187 631 187 595 169.5 c 128,-1,15
 559 152 559 152 534 152 c 0,16,17
 491 152 491 152 477 206 c 1,18,19
 412 152 412 152 360.5 152 c 128,-1,20
 309 152 309 152 277.5 187 c 128,-1,21
 246 222 246 222 246 321 c 128,-1,22
 246 420 246 420 298 488.5 c 128,-1,23
 350 557 350 557 432 557 c 0,24,25
 463 557 463 557 487.5 550 c 128,-1,26
 512 543 512 543 537.5 535 c 128,-1,27
 563 527 563 527 582 522 c 1,28,29
 546 381 546 381 546 253 c 0,30,31
 546 235 546 235 548.5 228 c 128,-1,32
 551 221 551 221 560 221 c 0,33,34
 594 221 594 221 633.5 283.5 c 128,-1,35
 673 346 673 346 673 434 c 128,-1,36
 673 522 673 522 621 584.5 c 128,-1,37
 569 647 569 647 452 647 c 0,38,39
 313 647 313 647 229.5 549.5 c 128,-1,40
 146 452 146 452 146 330.5 c 128,-1,41
 146 209 146 209 203 132.5 c 128,-1,42
 260 56 260 56 373 56 c 0,43,44
 430 56 430 56 475 78 c 1,45,46
 489 56 489 56 495 24 c 2,47,-1
 497 14 l 1,48,49
 430 -12 430 -12 362 -12 c 0,0,1
390 225 m 0,50,51
 422 225 422 225 456 261 c 1,52,53
 466 406 466 406 484 483 c 1,54,55
 458 496 458 496 436 496 c 0,56,57
 394 496 394 496 369 446 c 128,-1,58
 344 396 344 396 344 310.5 c 128,-1,59
 344 225 344 225 390 225 c 0,50,51
EndSplineSet
EndChar

StartChar: A
Encoding: 65 65 36
Width: 576
GlyphClass: 2
Flags: W
LayerCount: 2
Fore
SplineSet
60 13 m 0,0,1
 53 -9 53 -9 28.5 -9 c 128,-1,2
 4 -9 4 -9 -27 18 c 1,3,4
 3 106 3 106 100 301.5 c 128,-1,5
 197 497 197 497 226 594 c 0,6,7
 230 610 230 610 230 616 c 0,8,9
 230 631 230 631 208 662 c 2,10,-1
 200 673 l 1,11,-1
 202 686 l 1,12,13
 287 710 287 710 390 710 c 1,14,-1
 451 706 l 1,15,16
 462 691 462 691 468 660 c 0,17,18
 484 584 484 584 484 269 c 0,19,20
 484 147 484 147 505 97 c 0,21,22
 513 78 513 78 521 78 c 128,-1,23
 529 78 529 78 570 98 c 2,24,-1
 583 104 l 1,25,-1
 603 68 l 1,26,27
 565 31 565 31 518.5 9.5 c 128,-1,28
 472 -12 472 -12 433 -12 c 0,29,30
 332 -12 332 -12 332 145 c 2,31,-1
 332 224 l 1,32,33
 306 230 306 230 253 230 c 128,-1,34
 200 230 200 230 137 220 c 1,35,36
 87 104 87 104 60 13 c 0,0,1
334 292 m 1,37,-1
 335 408 l 1,38,39
 335 560 335 560 322 614 c 1,40,41
 314 614 314 614 310 612 c 1,42,43
 282 535 282 535 257.5 481.5 c 128,-1,44
 233 428 233 428 204.5 367.5 c 128,-1,45
 176 307 176 307 169 292 c 1,46,-1
 334 292 l 1,37,-1
EndSplineSet
EndChar

StartChar: B
Encoding: 66 66 37
Width: 591
GlyphClass: 2
Flags: W
LayerCount: 2
Fore
SplineSet
330 -12 m 0,0,1
 276 -12 276 -12 193 8 c 1,2,3
 141 -6 141 -6 96 -6 c 128,-1,4
 51 -6 51 -6 44 -3 c 1,5,6
 51 57 51 57 103.5 292.5 c 128,-1,7
 156 528 156 528 156 588 c 0,8,9
 156 600 156 600 143 620 c 128,-1,10
 130 640 130 640 117 654 c 2,11,-1
 104 668 l 1,12,-1
 107 683 l 1,13,14
 238 710 238 710 389 710 c 0,15,16
 472 710 472 710 525.5 670.5 c 128,-1,17
 579 631 579 631 579 560 c 0,18,19
 579 423 579 423 412 370 c 1,20,21
 479 362 479 362 524.5 319.5 c 128,-1,22
 570 277 570 277 570 200 c 0,23,24
 570 106 570 106 502 47 c 128,-1,25
 434 -12 434 -12 330 -12 c 0,0,1
312 343 m 0,26,27
 284 343 284 343 262 338 c 1,28,29
 219 148 219 148 207 73 c 1,30,31
 232 56 232 56 285.5 56 c 128,-1,32
 339 56 339 56 377 98.5 c 128,-1,33
 415 141 415 141 415 221 c 0,34,35
 415 343 415 343 312 343 c 0,26,27
368 648 m 0,36,37
 330 648 330 648 323 641 c 1,38,39
 309 551 309 551 277 405 c 1,40,41
 317 405 317 405 333 410 c 128,-1,42
 349 415 349 415 361.5 423 c 128,-1,43
 374 431 374 431 390 448 c 0,44,45
 425 485 425 485 425 566.5 c 128,-1,46
 425 648 425 648 368 648 c 0,36,37
EndSplineSet
EndChar

StartChar: C
Encoding: 67 67 38
Width: 542
GlyphClass: 2
Flags: W
LayerCount: 2
Fore
SplineSet
266 -12 m 0,0,1
 173 -12 173 -12 112 63.5 c 128,-1,2
 51 139 51 139 51 261 c 128,-1,3
 51 383 51 383 93 483.5 c 128,-1,4
 135 584 135 584 213 647 c 128,-1,5
 291 710 291 710 379.5 710 c 128,-1,6
 468 710 468 710 522.5 670 c 128,-1,7
 577 630 577 630 577 574.5 c 128,-1,8
 577 519 577 519 544 480 c 1,9,10
 512 480 512 480 472 494 c 128,-1,11
 432 508 432 508 412 528 c 1,12,-1
 431 629 l 1,13,14
 407 644 407 644 368 644 c 0,15,16
 307 644 307 644 260 539.5 c 128,-1,17
 213 435 213 435 213 282 c 0,18,19
 213 181 213 181 246.5 135.5 c 128,-1,20
 280 90 280 90 328 90 c 0,21,22
 407 90 407 90 480 164 c 1,23,-1
 521 127 l 1,24,25
 510 111 510 111 481 83 c 128,-1,26
 452 55 452 55 424 36.5 c 128,-1,27
 396 18 396 18 353 3 c 128,-1,28
 310 -12 310 -12 266 -12 c 0,0,1
EndSplineSet
EndChar

StartChar: D
Encoding: 68 68 39
Width: 641
GlyphClass: 2
Flags: W
LayerCount: 2
Fore
SplineSet
307 -12 m 0,0,1
 249 -12 249 -12 187 7 c 1,2,3
 135 -6 135 -6 96.5 -6 c 128,-1,4
 58 -6 58 -6 44 -4 c 1,5,6
 51 55 51 55 104.5 295.5 c 128,-1,7
 158 536 158 536 158 568.5 c 128,-1,8
 158 601 158 601 144.5 625 c 128,-1,9
 131 649 131 649 118 660 c 2,10,-1
 104 671 l 1,11,-1
 107 686 l 1,12,13
 133 693 133 693 213.5 701.5 c 128,-1,14
 294 710 294 710 354 710 c 0,15,16
 493 710 493 710 564.5 648.5 c 128,-1,17
 636 587 636 587 636 449 c 0,18,19
 636 336 636 336 598.5 232.5 c 128,-1,20
 561 129 561 129 484 58.5 c 128,-1,21
 407 -12 407 -12 307 -12 c 0,0,1
378 647 m 0,22,23
 352 647 352 647 319 641 c 1,24,25
 309 535 309 535 262.5 331.5 c 128,-1,26
 216 128 216 128 208 72 c 1,27,28
 232 60 232 60 274 60 c 128,-1,29
 316 60 316 60 353.5 93.5 c 128,-1,30
 391 127 391 127 414 177 c 128,-1,31
 437 227 437 227 454 289 c 0,32,33
 483 400 483 400 483 491 c 128,-1,34
 483 582 483 582 459 614.5 c 128,-1,35
 435 647 435 647 378 647 c 0,22,23
EndSplineSet
EndChar

StartChar: E
Encoding: 69 69 40
Width: 515
GlyphClass: 2
Flags: W
LayerCount: 2
Fore
SplineSet
249 -12 m 0,0,1
 179 -12 179 -12 115 28 c 0,2,3
 83 48 83 48 62.5 84 c 128,-1,4
 42 120 42 120 42 167 c 0,5,6
 42 256 42 256 101 312 c 128,-1,7
 160 368 160 368 243 377 c 1,8,9
 187 392 187 392 153.5 429 c 128,-1,10
 120 466 120 466 120 523 c 0,11,12
 120 609 120 609 187.5 659.5 c 128,-1,13
 255 710 255 710 342 710 c 128,-1,14
 429 710 429 710 487 673 c 128,-1,15
 545 636 545 636 545 573 c 0,16,17
 545 551 545 551 537.5 530 c 128,-1,18
 530 509 530 509 522 500 c 1,19,-1
 515 490 l 1,20,21
 483 490 483 490 444.5 501 c 128,-1,22
 406 512 406 512 388 529 c 1,23,-1
 400 632 l 1,24,25
 385 647 385 647 349.5 647 c 128,-1,26
 314 647 314 647 293.5 610.5 c 128,-1,27
 273 574 273 574 273 527 c 128,-1,28
 273 480 273 480 284 456 c 128,-1,29
 295 432 295 432 315 419 c 0,30,31
 346 399 346 399 388 391 c 1,32,-1
 380 336 l 1,33,34
 308 336 308 336 255 293.5 c 128,-1,35
 202 251 202 251 202 181 c 0,36,37
 202 137 202 137 230.5 108.5 c 128,-1,38
 259 80 259 80 304 80 c 0,39,40
 386 80 386 80 472 163 c 1,41,-1
 512 126 l 1,42,43
 396 -12 396 -12 249 -12 c 0,0,1
EndSplineSet
EndChar

StartChar: F
Encoding: 70 70 41
Width: 481
GlyphClass: 2
Flags: W
LayerCount: 2
Fore
SplineSet
235 705 m 1,0,-1
 431 699 l 1,1,-1
 534 701 l 1,2,3
 537 686 537 686 537 661 c 128,-1,4
 537 636 537 636 529.5 625 c 128,-1,5
 522 614 522 614 504 614 c 128,-1,6
 486 614 486 614 427.5 619 c 128,-1,7
 369 624 369 624 341 624 c 1,8,-1
 305 622 l 1,9,10
 301 584 301 584 257 379 c 1,11,12
 333 386 333 386 384 386 c 128,-1,13
 435 386 435 386 463 378 c 1,14,15
 461 336 461 336 445 306 c 1,16,17
 402 315 402 315 343 315 c 128,-1,18
 284 315 284 315 243 309 c 1,19,20
 206 128 206 128 206 34 c 2,21,-1
 206 17 l 1,22,23
 170 -3 170 -3 54 -3 c 2,24,-1
 44 -3 l 1,25,26
 44 65 44 65 90.5 280 c 128,-1,27
 137 495 137 495 147 589 c 1,28,29
 147 605 147 605 137 627.5 c 128,-1,30
 127 650 127 650 116 664 c 2,31,-1
 106 678 l 1,32,-1
 109 693 l 1,33,34
 163 704 163 704 235 705 c 1,0,-1
EndSplineSet
EndChar

StartChar: G
Encoding: 71 71 42
Width: 567
GlyphClass: 2
Flags: W
LayerCount: 2
Fore
SplineSet
222 -224 m 0,0,1
 172 -224 172 -224 140 -200 c 128,-1,2
 108 -176 108 -176 108 -132 c 0,3,4
 108 -93 108 -93 140 -59 c 0,5,6
 159 -39 159 -39 218 -16 c 1,7,8
 246 -4 246 -4 280.5 2.5 c 128,-1,9
 315 9 315 9 341 14 c 1,10,11
 348 39 348 39 355 83 c 1,12,13
 309 55 309 55 258 55 c 0,14,15
 165 55 165 55 108 122.5 c 128,-1,16
 51 190 51 190 51 298 c 128,-1,17
 51 406 51 406 93 498 c 128,-1,18
 135 590 135 590 213.5 650 c 128,-1,19
 292 710 292 710 380.5 710 c 128,-1,20
 469 710 469 710 525.5 666.5 c 128,-1,21
 582 623 582 623 582 556 c 0,22,23
 582 516 582 516 568 491 c 1,24,25
 560 490 560 490 546 490 c 0,26,27
 469 490 469 490 430 515 c 1,28,-1
 431 623 l 1,29,30
 407 644 407 644 368 644 c 0,31,32
 307 644 307 644 260 550.5 c 128,-1,33
 213 457 213 457 213 323 c 0,34,35
 213 234 213 234 242 192 c 128,-1,36
 271 150 271 150 311 150 c 0,37,38
 371 150 371 150 419 210 c 128,-1,39
 467 270 467 270 488 353 c 1,40,-1
 542 344 l 1,41,42
 504 58 504 58 427 -83 c 128,-1,43
 350 -224 350 -224 222 -224 c 0,0,1
171 -129 m 0,44,45
 171 -157 171 -157 218 -157 c 0,46,47
 242 -157 242 -157 275 -127.5 c 128,-1,48
 308 -98 308 -98 325 -51 c 1,49,50
 267 -56 267 -56 219 -77.5 c 128,-1,51
 171 -99 171 -99 171 -129 c 0,44,45
EndSplineSet
EndChar

StartChar: H
Encoding: 72 72 43
Width: 681
GlyphClass: 2
Flags: W
LayerCount: 2
Fore
SplineSet
436 13.5 m 128,-1,1
 411 39 411 39 411 82.5 c 128,-1,2
 411 126 411 126 455 329 c 1,3,4
 429 335 429 335 371 335 c 128,-1,5
 313 335 313 335 260 325 c 1,6,7
 209 95 209 95 206 17 c 1,8,9
 170 -3 170 -3 54 -3 c 2,10,-1
 44 -3 l 1,11,12
 47 41 47 41 97.5 260 c 128,-1,13
 148 479 148 479 160 589 c 1,14,15
 160 605 160 605 150 627.5 c 128,-1,16
 140 650 140 650 130 664 c 2,17,-1
 119 678 l 1,18,-1
 122 693 l 1,19,20
 181 710 181 710 309 710 c 1,21,22
 321 690 321 690 321 645 c 128,-1,23
 321 600 321 600 276 397 c 1,24,-1
 469 397 l 1,25,26
 504 575 504 575 505 651 c 0,27,28
 505 668 505 668 503 679 c 1,29,30
 583 710 583 710 664 710 c 1,31,32
 667 704 667 704 667 680 c 0,33,34
 667 625 667 625 618.5 397 c 128,-1,35
 570 169 570 169 570 107 c 0,36,37
 570 80 570 80 579 80 c 128,-1,38
 588 80 588 80 640 106 c 1,39,-1
 658 69 l 1,40,41
 569 -12 569 -12 500 -12 c 0,42,0
 461 -12 461 -12 436 13.5 c 128,-1,1
EndSplineSet
EndChar

StartChar: I
Encoding: 73 73 44
Width: 325
GlyphClass: 2
Flags: W
LayerCount: 2
Fore
SplineSet
209 102 m 0,0,1
 209 80 209 80 220 80 c 0,2,3
 226 80 226 80 278 106 c 1,4,-1
 297 69 l 1,5,6
 207 -12 207 -12 138 -12 c 0,7,8
 95 -12 95 -12 72.5 17 c 128,-1,9
 50 46 50 46 50 89 c 128,-1,10
 50 132 50 132 98.5 324.5 c 128,-1,11
 147 517 147 517 152 589 c 1,12,13
 152 605 152 605 141.5 627.5 c 128,-1,14
 131 650 131 650 120 664 c 2,15,-1
 110 678 l 1,16,-1
 113 693 l 1,17,18
 170 710 170 710 301 710 c 1,19,20
 313 687 313 687 313 643.5 c 128,-1,21
 313 600 313 600 261 392 c 128,-1,22
 209 184 209 184 209 102 c 0,0,1
EndSplineSet
EndChar

StartChar: J
Encoding: 74 74 45
Width: 415
GlyphClass: 2
Flags: W
LayerCount: 2
Fore
SplineSet
173 709 m 1,0,-1
 376 702 l 1,1,-1
 482 706 l 1,2,3
 484 695 484 695 484 672.5 c 128,-1,4
 484 650 484 650 476.5 640.5 c 128,-1,5
 469 631 469 631 452 631 c 128,-1,6
 435 631 435 631 379 633 c 1,7,8
 339 298 339 298 300 146 c 0,9,10
 282 72 282 72 251 34 c 0,11,12
 235 15 235 15 208 1.5 c 128,-1,13
 181 -12 181 -12 140 -12 c 128,-1,14
 99 -12 99 -12 55.5 15.5 c 128,-1,15
 12 43 12 43 -15 84 c 1,16,-1
 13 115 l 1,17,18
 25 104 25 104 50 91 c 128,-1,19
 75 78 75 78 93 78 c 0,20,21
 123 78 123 78 145.5 138.5 c 128,-1,22
 168 199 168 199 191.5 351 c 128,-1,23
 215 503 215 503 215 598 c 2,24,-1
 215 639 l 1,25,26
 136 639 136 639 98 630 c 1,27,28
 85 656 85 656 80 698 c 1,29,30
 105 709 105 709 173 709 c 1,0,-1
EndSplineSet
EndChar

StartChar: K
Encoding: 75 75 46
Width: 635
GlyphClass: 2
Flags: W
LayerCount: 2
Fore
SplineSet
63 -4 m 2,0,-1
 44 -4 l 1,1,2
 48 41 48 41 97 260.5 c 128,-1,3
 146 480 146 480 158 589 c 1,4,5
 158 605 158 605 147.5 627.5 c 128,-1,6
 137 650 137 650 126 664 c 2,7,-1
 116 678 l 1,8,-1
 119 693 l 1,9,10
 175 710 175 710 312 710 c 1,11,12
 325 686 325 686 325 641.5 c 128,-1,13
 325 597 325 597 275 391 c 1,14,-1
 280 391 l 2,15,16
 369 391 369 391 407.5 458.5 c 128,-1,17
 446 526 446 526 465 686 c 1,18,19
 536 710 536 710 614 710 c 1,20,21
 616 703 616 703 615.5 676 c 128,-1,22
 615 649 615 649 605 606.5 c 128,-1,23
 595 564 595 564 575.5 517 c 128,-1,24
 556 470 556 470 518.5 428.5 c 128,-1,25
 481 387 481 387 432 362 c 1,26,27
 490 164 490 164 532 104 c 0,28,29
 550 79 550 79 560 79 c 0,30,31
 578 79 578 79 616 97 c 2,32,-1
 628 103 l 1,33,-1
 651 66 l 1,34,35
 614 32 614 32 565.5 10 c 128,-1,36
 517 -12 517 -12 474 -12 c 128,-1,37
 431 -12 431 -12 406.5 22 c 128,-1,38
 382 56 382 56 365.5 106.5 c 128,-1,39
 349 157 349 157 331 226 c 128,-1,40
 313 295 313 295 307 330 c 1,41,42
 298 329 298 329 260 329 c 1,43,44
 201 79 201 79 201 16 c 1,45,46
 162 -4 162 -4 63 -4 c 2,0,-1
EndSplineSet
EndChar

StartChar: L
Encoding: 76 76 47
Width: 501
GlyphClass: 2
Flags: W
LayerCount: 2
Fore
SplineSet
442.5 -1 m 128,-1,1
 417 -19 417 -19 382.5 -19 c 128,-1,2
 348 -19 348 -19 279.5 23 c 128,-1,3
 211 65 211 65 170 77 c 1,4,5
 143 41 143 41 109 17 c 128,-1,6
 75 -7 75 -7 62 -7 c 0,7,8
 52 -7 52 -7 22 36.5 c 128,-1,9
 -8 80 -8 80 -8 99 c 0,10,11
 -8 110 -8 110 23.5 132 c 128,-1,12
 55 154 55 154 90 162 c 1,13,14
 115 223 115 223 142 342.5 c 128,-1,15
 169 462 169 462 184 589 c 1,16,17
 184 605 184 605 173.5 627.5 c 128,-1,18
 163 650 163 650 152 664 c 2,19,-1
 142 678 l 1,20,-1
 145 693 l 1,21,22
 205 710 205 710 342 710 c 1,23,24
 355 688 355 688 355 643 c 128,-1,25
 355 598 355 598 329 509 c 128,-1,26
 303 420 303 420 257.5 295.5 c 128,-1,27
 212 171 212 171 205 148 c 1,28,29
 209 147 209 147 230 141 c 128,-1,30
 251 135 251 135 257.5 133.5 c 128,-1,31
 264 132 264 132 283 127.5 c 128,-1,32
 302 123 302 123 313 121.5 c 128,-1,33
 324 120 324 120 342 118 c 0,34,35
 373 113 373 113 400.5 113 c 128,-1,36
 428 113 428 113 440 127 c 1,37,-1
 468 179 l 1,38,-1
 501 171 l 1,39,40
 501 106 501 106 480 48 c 0,41,0
 468 17 468 17 442.5 -1 c 128,-1,1
EndSplineSet
EndChar

StartChar: M
Encoding: 77 77 48
Width: 970
GlyphClass: 2
Flags: W
LayerCount: 2
Fore
SplineSet
730 14.5 m 128,-1,1
 707 41 707 41 707 86.5 c 128,-1,2
 707 132 707 132 748.5 313 c 128,-1,3
 790 494 790 494 790 544 c 128,-1,4
 790 594 790 594 751 594 c 0,5,6
 697 594 697 594 632 546 c 1,7,8
 625 492 625 492 591 357.5 c 128,-1,9
 557 223 557 223 545.5 158.5 c 128,-1,10
 534 94 534 94 534 59 c 128,-1,11
 534 24 534 24 535 16 c 1,12,13
 496 -4 496 -4 396 -4 c 2,14,-1
 377 -4 l 1,15,16
 377 80 377 80 424 282 c 0,17,18
 472 488 472 488 472 541 c 128,-1,19
 472 594 472 594 435 594 c 0,20,21
 381 594 381 594 309 542 c 1,22,23
 298 487 298 487 268 363 c 0,24,25
 201 79 201 79 201 16 c 1,26,27
 162 -4 162 -4 63 -4 c 2,28,-1
 44 -4 l 1,29,30
 48 41 48 41 97 260.5 c 128,-1,31
 146 480 146 480 158 589 c 1,32,33
 158 605 158 605 147.5 627.5 c 128,-1,34
 137 650 137 650 126 664 c 2,35,-1
 116 678 l 1,36,-1
 119 693 l 1,37,38
 175 710 175 710 312 710 c 1,39,40
 325 686 325 686 325 649 c 0,41,42
 325 641 325 641 321 607 c 1,43,44
 436 710 436 710 527 710 c 0,45,46
 568 710 568 710 596 682 c 128,-1,47
 624 654 624 654 632 609 c 1,48,49
 751 710 751 710 834 710 c 0,50,51
 886 710 886 710 918 676 c 128,-1,52
 950 642 950 642 950 581 c 128,-1,53
 950 520 950 520 907.5 348.5 c 128,-1,54
 865 177 865 177 865 109 c 0,55,56
 865 80 865 80 875 80 c 0,57,58
 884 80 884 80 924 100 c 1,59,-1
 938 106 l 1,60,-1
 958 69 l 1,61,62
 915 32 915 32 871.5 10 c 128,-1,63
 828 -12 828 -12 790.5 -12 c 128,-1,0
 753 -12 753 -12 730 14.5 c 128,-1,1
228 390 m 2,64,65
 227 388 227 388 227 385 c 2,66,-1
 228 390 l 2,64,65
EndSplineSet
EndChar

StartChar: N
Encoding: 78 78 49
Width: 661
GlyphClass: 2
Flags: W
LayerCount: 2
Fore
SplineSet
63 -4 m 2,0,-1
 44 -4 l 1,1,2
 48 41 48 41 97 260.5 c 128,-1,3
 146 480 146 480 158 589 c 1,4,5
 158 605 158 605 147.5 627.5 c 128,-1,6
 137 650 137 650 126 664 c 2,7,-1
 116 678 l 1,8,-1
 119 693 l 1,9,10
 175 710 175 710 312 710 c 1,11,12
 325 686 325 686 325 663 c 128,-1,13
 325 640 325 640 321 606 c 1,14,15
 446 710 446 710 525 710 c 0,16,17
 577 710 577 710 609 676 c 128,-1,18
 641 642 641 642 641 581 c 128,-1,19
 641 520 641 520 598.5 348.5 c 128,-1,20
 556 177 556 177 556 109 c 0,21,22
 556 80 556 80 566 80 c 0,23,24
 575 80 575 80 616 100 c 2,25,-1
 629 106 l 1,26,-1
 649 69 l 1,27,28
 607 33 607 33 562 10.5 c 128,-1,29
 517 -12 517 -12 480.5 -12 c 128,-1,30
 444 -12 444 -12 421 14.5 c 128,-1,31
 398 41 398 41 398 86.5 c 128,-1,32
 398 132 398 132 439.5 313 c 128,-1,33
 481 494 481 494 481 544 c 128,-1,34
 481 594 481 594 442 594 c 0,35,36
 383 594 383 594 308 535 c 1,37,38
 297 482 297 482 267 358 c 0,39,40
 201 85 201 85 201 16 c 1,41,42
 162 -4 162 -4 63 -4 c 2,0,-1
EndSplineSet
EndChar

StartChar: O
Encoding: 79 79 50
Width: 636
GlyphClass: 2
Flags: W
LayerCount: 2
Fore
SplineSet
618 537.5 m 128,-1,1
 631 493 631 493 631 439 c 128,-1,2
 631 385 631 385 619 324 c 128,-1,3
 607 263 607 263 579 202 c 128,-1,4
 551 141 551 141 511 94 c 128,-1,5
 471 47 471 47 410 17.5 c 128,-1,6
 349 -12 349 -12 276 -12 c 0,7,8
 169 -12 169 -12 110 64.5 c 128,-1,9
 51 141 51 141 51 261.5 c 128,-1,10
 51 382 51 382 93.5 482.5 c 128,-1,11
 136 583 136 583 215.5 646.5 c 128,-1,12
 295 710 295 710 392 710 c 0,13,14
 456 710 456 710 504 686 c 128,-1,15
 552 662 552 662 578.5 622 c 128,-1,0
 605 582 605 582 618 537.5 c 128,-1,1
385.5 97 m 128,-1,17
 418 138 418 138 435 204 c 0,18,19
 469 334 469 334 469 471 c 0,20,21
 469 642 469 642 377 642 c 0,22,23
 325 642 325 642 286 580 c 0,24,25
 213 463 213 463 213 256 c 0,26,27
 213 143 213 143 226 116 c 1,28,29
 232 101 232 101 242 85 c 0,30,31
 260 56 260 56 306.5 56 c 128,-1,16
 353 56 353 56 385.5 97 c 128,-1,17
EndSplineSet
EndChar

StartChar: P
Encoding: 80 80 51
Width: 546
GlyphClass: 2
Flags: W
LayerCount: 2
Fore
SplineSet
290 277 m 0,0,1
 263 277 263 277 249 278 c 1,2,3
 206 90 206 90 201 17 c 1,4,5
 158 -4 158 -4 70 -4 c 0,6,7
 51 -4 51 -4 44 -3 c 1,8,9
 51 56 51 56 104 293.5 c 128,-1,10
 157 531 157 531 157 593 c 0,11,12
 157 605 157 605 143.5 624.5 c 128,-1,13
 130 644 130 644 116 657 c 2,14,-1
 103 670 l 1,15,-1
 106 685 l 1,16,17
 274 710 274 710 378 710 c 0,18,19
 584 710 584 710 584 542 c 0,20,21
 584 430 584 430 510 353.5 c 128,-1,22
 436 277 436 277 290 277 c 0,0,1
274 344 m 2,23,24
 351 344 351 344 390.5 402 c 128,-1,25
 430 460 430 460 430 557 c 0,26,27
 430 597 430 597 415 622.5 c 128,-1,28
 400 648 400 648 371 648 c 0,29,30
 352 648 352 648 324 641 c 1,31,32
 308 536 308 536 264 344 c 1,33,-1
 274 344 l 2,23,24
EndSplineSet
EndChar

StartChar: Q
Encoding: 81 81 52
Width: 636
GlyphClass: 2
Flags: W
LayerCount: 2
Fore
SplineSet
516 -224 m 0,0,1
 484 -224 484 -224 389.5 -169.5 c 128,-1,2
 295 -115 295 -115 258 -115 c 1,3,4
 196 -183 196 -183 168 -183 c 0,5,6
 158 -183 158 -183 131.5 -151 c 128,-1,7
 105 -119 105 -119 105 -102 c 128,-1,8
 105 -85 105 -85 140 -59.5 c 128,-1,9
 175 -34 175 -34 221.5 -34 c 128,-1,10
 268 -34 268 -34 375 -64.5 c 128,-1,11
 482 -95 482 -95 542 -95 c 0,12,13
 560 -95 560 -95 567.5 -87.5 c 128,-1,14
 575 -80 575 -80 582.5 -68 c 128,-1,15
 590 -56 590 -56 596.5 -45.5 c 128,-1,16
 603 -35 603 -35 604 -35 c 2,17,-1
 636 -45 l 1,18,19
 636 -224 636 -224 516 -224 c 0,0,1
618 537.5 m 128,-1,21
 631 493 631 493 631 439 c 128,-1,22
 631 385 631 385 619 324 c 128,-1,23
 607 263 607 263 579 202 c 128,-1,24
 551 141 551 141 511 94 c 128,-1,25
 471 47 471 47 410 17.5 c 128,-1,26
 349 -12 349 -12 276 -12 c 0,27,28
 169 -12 169 -12 110 64.5 c 128,-1,29
 51 141 51 141 51 261.5 c 128,-1,30
 51 382 51 382 93.5 482.5 c 128,-1,31
 136 583 136 583 215.5 646.5 c 128,-1,32
 295 710 295 710 392 710 c 0,33,34
 456 710 456 710 504 686 c 128,-1,35
 552 662 552 662 578.5 622 c 128,-1,20
 605 582 605 582 618 537.5 c 128,-1,21
385.5 97 m 128,-1,37
 418 138 418 138 435 204 c 0,38,39
 469 334 469 334 469 471 c 0,40,41
 469 642 469 642 377 642 c 0,42,43
 324 642 324 642 286 580 c 0,44,45
 213 462 213 462 213 256 c 0,46,47
 213 143 213 143 226 116 c 1,48,49
 232 101 232 101 242 85 c 0,50,51
 260 56 260 56 306.5 56 c 128,-1,36
 353 56 353 56 385.5 97 c 128,-1,37
EndSplineSet
EndChar

StartChar: R
Encoding: 82 82 53
Width: 633
GlyphClass: 2
Flags: W
LayerCount: 2
Fore
SplineSet
70 -5 m 0,0,1
 51 -5 51 -5 44 -4 c 1,2,3
 51 54 51 54 105.5 290.5 c 128,-1,4
 160 527 160 527 160 590 c 0,5,6
 160 602 160 602 146 621.5 c 128,-1,7
 132 641 132 641 118 654 c 1,8,-1
 105 668 l 1,9,-1
 108 684 l 1,10,11
 245 710 245 710 398 710 c 0,12,13
 582 710 582 710 582 565 c 0,14,15
 582 494 582 494 546.5 435.5 c 128,-1,16
 511 377 511 377 436 344 c 1,17,18
 492 157 492 157 532 102 c 1,19,20
 550 79 550 79 560 79 c 0,21,22
 578 79 578 79 616 97 c 2,23,-1
 628 103 l 1,24,-1
 651 66 l 1,25,26
 614 32 614 32 565.5 10 c 128,-1,27
 517 -12 517 -12 474.5 -12 c 128,-1,28
 432 -12 432 -12 404.5 24.5 c 128,-1,29
 377 61 377 61 354.5 132 c 128,-1,30
 332 203 332 203 309 314 c 1,31,32
 277 312 277 312 260 312 c 1,33,34
 209 93 209 93 204 16 c 1,35,36
 161 -5 161 -5 70 -5 c 0,0,1
299 380 m 2,37,38
 359 380 359 380 393.5 433.5 c 128,-1,39
 428 487 428 487 428 561 c 0,40,41
 428 600 428 600 414 624 c 128,-1,42
 400 648 400 648 372 648 c 0,43,44
 360 648 360 648 343.5 644.5 c 128,-1,45
 327 641 327 641 327 640 c 0,46,47
 311 537 311 537 275 380 c 1,48,-1
 299 380 l 2,37,38
EndSplineSet
EndChar

StartChar: S
Encoding: 83 83 54
Width: 463
GlyphClass: 2
Flags: W
LayerCount: 2
Fore
SplineSet
432 196 m 0,0,1
 432 100 432 100 359 44 c 128,-1,2
 286 -12 286 -12 182 -12 c 0,3,4
 112 -12 112 -12 66.5 23.5 c 128,-1,5
 21 59 21 59 16 84 c 1,6,7
 27 117 27 117 63 158 c 128,-1,8
 99 199 99 199 128 208 c 1,9,10
 179 175 179 175 223 61 c 1,11,12
 288 63 288 63 288 132 c 0,13,14
 288 170 288 170 257.5 225.5 c 128,-1,15
 227 281 227 281 191 329.5 c 128,-1,16
 155 378 155 378 124.5 438.5 c 128,-1,17
 94 499 94 499 94 546 c 0,18,19
 94 622 94 622 155.5 666 c 128,-1,20
 217 710 217 710 294 710 c 128,-1,21
 371 710 371 710 413.5 677 c 128,-1,22
 456 644 456 644 456 602 c 128,-1,23
 456 560 456 560 424 516 c 128,-1,24
 392 472 392 472 360 446 c 2,25,-1
 328 420 l 1,26,27
 340 404 340 404 357 379 c 128,-1,28
 374 354 374 354 403 294 c 128,-1,29
 432 234 432 234 432 196 c 0,0,1
380 555.5 m 128,-1,31
 391 574 391 574 391 594.5 c 128,-1,32
 391 615 391 615 367 629 c 128,-1,33
 343 643 343 643 309.5 643 c 128,-1,34
 276 643 276 643 253.5 627.5 c 128,-1,35
 231 612 231 612 231 590.5 c 128,-1,36
 231 569 231 569 245.5 540.5 c 128,-1,37
 260 512 260 512 274 493 c 2,38,-1
 289 474 l 1,39,40
 299 479 299 479 320.5 495 c 128,-1,41
 342 511 342 511 355.5 524 c 128,-1,30
 369 537 369 537 380 555.5 c 128,-1,31
EndSplineSet
EndChar

StartChar: T
Encoding: 84 84 55
Width: 499
GlyphClass: 2
Flags: W
LayerCount: 2
Fore
SplineSet
136 710 m 1,0,-1
 470 699 l 1,1,-1
 564 701 l 1,2,3
 567 680 567 680 567 657 c 128,-1,4
 567 634 567 634 559 624 c 128,-1,5
 551 614 551 614 530 614 c 0,6,7
 528 614 528 614 389 627 c 1,8,9
 385 582 385 582 359 473 c 128,-1,10
 333 364 333 364 309 240 c 128,-1,11
 285 116 285 116 284 17 c 1,12,13
 245 -3 245 -3 124 -3 c 2,14,-1
 117 -3 l 1,15,16
 117 49 117 49 174 307 c 128,-1,17
 231 565 231 565 231 621 c 0,18,19
 231 625 231 625 229 635 c 1,20,-1
 189 635 l 2,21,22
 107 635 107 635 63 610 c 1,23,24
 40 640 40 640 35 698 c 1,25,26
 69 710 69 710 136 710 c 1,0,-1
EndSplineSet
EndChar

StartChar: U
Encoding: 85 85 56
Width: 668
GlyphClass: 2
Flags: W
LayerCount: 2
Fore
SplineSet
313 633 m 128,-1,1
 313 581 313 581 270.5 393 c 128,-1,2
 228 205 228 205 228 154.5 c 128,-1,3
 228 104 228 104 265 104 c 0,4,5
 329 104 329 104 409 159 c 1,6,7
 415 195 415 195 438 304 c 0,8,9
 492 556 492 556 494 651 c 0,10,11
 494 668 494 668 492 679 c 1,12,13
 572 710 572 710 653 710 c 1,14,15
 656 704 656 704 656 680 c 0,16,17
 656 625 656 625 607.5 397 c 128,-1,18
 559 169 559 169 559 107 c 0,19,20
 559 80 559 80 568 80 c 128,-1,21
 577 80 577 80 629 106 c 1,22,-1
 647 69 l 1,23,24
 558 -12 558 -12 489 -12 c 0,25,26
 451 -12 451 -12 426 12 c 128,-1,27
 401 36 401 36 400 80 c 1,28,29
 265 -12 265 -12 176 -12 c 0,30,31
 127 -12 127 -12 97.5 19.5 c 128,-1,32
 68 51 68 51 68 106 c 128,-1,33
 68 161 68 161 109 336.5 c 128,-1,34
 150 512 150 512 150 589 c 0,35,36
 150 605 150 605 140 627.5 c 128,-1,37
 130 650 130 650 120 664 c 2,38,-1
 110 678 l 1,39,-1
 112 693 l 1,40,41
 167 710 167 710 298 710 c 1,42,0
 313 685 313 685 313 633 c 128,-1,1
EndSplineSet
EndChar

StartChar: V
Encoding: 86 86 57
Width: 576
GlyphClass: 2
Flags: W
LayerCount: 2
Fore
SplineSet
133.5 25.5 m 128,-1,1
 103 63 103 63 103 118 c 128,-1,2
 103 173 103 173 117 312 c 128,-1,3
 131 451 131 451 131 510 c 128,-1,4
 131 569 131 569 118 602 c 1,5,-1
 77 678 l 1,6,-1
 81 693 l 1,7,8
 162 710 162 710 282 710 c 1,9,10
 292 672 292 672 292 593 c 128,-1,11
 292 514 292 514 272.5 363.5 c 128,-1,12
 253 213 253 213 253 163.5 c 128,-1,13
 253 114 253 114 284 114 c 128,-1,14
 315 114 315 114 363.5 167 c 128,-1,15
 412 220 412 220 456 306.5 c 128,-1,16
 500 393 500 393 510 473 c 1,17,-1
 404 535 l 1,18,19
 412 611 412 611 441 656 c 0,20,21
 467 696 467 696 484 707 c 2,22,-1
 491 712 l 1,23,24
 552 712 552 712 583.5 680 c 128,-1,25
 615 648 615 648 615 604 c 0,26,27
 615 495 615 495 550 349 c 128,-1,28
 485 203 485 203 388 95.5 c 128,-1,29
 291 -12 291 -12 209 -12 c 0,30,0
 164 -12 164 -12 133.5 25.5 c 128,-1,1
EndSplineSet
EndChar

StartChar: W
Encoding: 87 87 58
Width: 891
GlyphClass: 2
Flags: W
LayerCount: 2
Fore
SplineSet
117 123 m 1,0,1
 117 123 117 123 124 440 c 1,2,3
 124 566 124 566 109 602 c 1,4,-1
 60 678 l 1,5,-1
 63 693 l 1,6,7
 134 709 134 709 267 709 c 1,8,9
 286 680 286 680 286 601.5 c 128,-1,10
 286 523 286 523 276 390.5 c 128,-1,11
 266 258 266 258 266 186 c 128,-1,12
 266 114 266 114 300 114 c 0,13,14
 320 114 320 114 358 146.5 c 128,-1,15
 396 179 396 179 423 217 c 1,16,17
 445 443 445 443 445 522 c 128,-1,18
 445 601 445 601 423 669 c 1,19,20
 476 696 476 696 597 710 c 1,21,22
 608 674 608 674 608 608.5 c 128,-1,23
 608 543 608 543 587.5 381 c 128,-1,24
 567 219 567 219 567 166.5 c 128,-1,25
 567 114 567 114 597.5 114 c 128,-1,26
 628 114 628 114 680 172 c 128,-1,27
 732 230 732 230 775.5 316.5 c 128,-1,28
 819 403 819 403 824 473 c 1,29,-1
 718 535 l 1,30,31
 725 595 725 595 746.5 638.5 c 128,-1,32
 768 682 768 682 786 696 c 2,33,-1
 804 710 l 1,34,35
 865 710 865 710 897.5 678.5 c 128,-1,36
 930 647 930 647 930 604 c 0,37,38
 930 523 930 523 889.5 415 c 128,-1,39
 849 307 849 307 789.5 213 c 128,-1,40
 730 119 730 119 654 53.5 c 128,-1,41
 578 -12 578 -12 514 -12 c 0,42,43
 476 -12 476 -12 446.5 24 c 128,-1,44
 417 60 417 60 416 116 c 1,45,46
 372 56 372 56 323 22 c 128,-1,47
 274 -12 274 -12 229 -12 c 128,-1,48
 184 -12 184 -12 150.5 25.5 c 128,-1,49
 117 63 117 63 117 123 c 1,0,1
EndSplineSet
EndChar

StartChar: X
Encoding: 88 88 59
Width: 564
GlyphClass: 2
Flags: W
LayerCount: 2
Fore
SplineSet
532 710 m 0,0,1
 557 710 557 710 594 670 c 1,2,3
 555 599 555 599 456 488 c 0,4,5
 423 451 423 451 358 380 c 1,6,7
 381 315 381 315 416 224 c 0,8,9
 468 87 468 87 499 87 c 0,10,11
 509 87 509 87 551 110 c 1,12,-1
 565 117 l 1,13,-1
 586 73 l 1,14,15
 555 42 555 42 501.5 15 c 128,-1,16
 448 -12 448 -12 409.5 -12 c 128,-1,17
 371 -12 371 -12 348 8.5 c 128,-1,18
 325 29 325 29 303 86 c 128,-1,19
 281 143 281 143 245 252 c 1,20,21
 133 121 133 121 57 3 c 0,22,23
 47 -14 47 -14 26 -14 c 128,-1,24
 5 -14 5 -14 -27 28 c 1,25,26
 19 107 19 107 119 220 c 0,27,28
 154 259 154 259 219 330 c 1,29,30
 146 546 146 546 115.5 590 c 128,-1,31
 85 634 85 634 54 665 c 1,32,-1
 58 680 l 1,33,34
 56 681 56 681 83 688 c 0,35,36
 159 706 159 706 238 710 c 1,37,38
 263 688 263 688 279 633 c 0,39,40
 322 488 322 488 332 456 c 1,41,42
 460 602 460 602 509 693 c 0,43,44
 518 710 518 710 532 710 c 0,0,1
EndSplineSet
EndChar

StartChar: Y
Encoding: 89 89 60
Width: 641
GlyphClass: 2
Flags: W
LayerCount: 2
Fore
SplineSet
282.5 -216.5 m 128,-1,1
 249 -224 249 -224 210 -224 c 128,-1,2
 171 -224 171 -224 143.5 -201 c 128,-1,3
 116 -178 116 -178 116 -140 c 128,-1,4
 116 -102 116 -102 141.5 -71 c 128,-1,5
 167 -40 167 -40 203 -22 c 0,6,7
 276 16 276 16 336 28 c 2,8,-1
 362 33 l 1,9,10
 363 37 363 37 374 73 c 128,-1,11
 385 109 385 109 390 129 c 1,12,13
 263 53 263 53 181 53 c 0,14,15
 132 53 132 53 100 84.5 c 128,-1,16
 68 116 68 116 68 174.5 c 128,-1,17
 68 233 68 233 106 385.5 c 128,-1,18
 144 538 144 538 144 589 c 0,19,20
 144 622 144 622 114 664 c 2,21,-1
 104 678 l 1,22,-1
 107 693 l 1,23,24
 167 710 167 710 292 710 c 1,25,26
 306 680 306 680 306 629 c 128,-1,27
 306 578 306 578 268 413.5 c 128,-1,28
 230 249 230 249 230 223 c 0,29,30
 230 170 230 170 266 170 c 0,31,32
 334 170 334 170 411 209 c 1,33,34
 472 460 472 460 494 683 c 1,35,36
 545 709 545 709 634 709 c 2,37,-1
 653 709 l 1,38,39
 653 656 653 656 635 562 c 0,40,41
 612 443 612 443 564 202 c 0,42,43
 543 94 543 94 509 13.5 c 128,-1,44
 475 -67 475 -67 439 -111 c 128,-1,45
 403 -155 403 -155 359.5 -182 c 128,-1,0
 316 -209 316 -209 282.5 -216.5 c 128,-1,1
210 -157 m 0,46,47
 245 -157 245 -157 283 -118.5 c 128,-1,48
 321 -80 321 -80 345 -27 c 1,49,50
 298 -32 298 -32 239.5 -63.5 c 128,-1,51
 181 -95 181 -95 181 -128 c 0,52,53
 181 -140 181 -140 189.5 -148.5 c 128,-1,54
 198 -157 198 -157 210 -157 c 0,46,47
EndSplineSet
EndChar

StartChar: Z
Encoding: 90 90 61
Width: 530
GlyphClass: 2
Flags: W
LayerCount: 2
Fore
SplineSet
420 -13 m 0,0,1
 379 -13 379 -13 291 27 c 128,-1,2
 203 67 203 67 141 67 c 0,3,4
 123 67 123 67 87 30 c 128,-1,5
 51 -7 51 -7 42 -7 c 128,-1,6
 33 -7 33 -7 15 4 c 128,-1,7
 -3 15 -3 15 -12 26 c 1,8,9
 28 107 28 107 169 277 c 128,-1,10
 310 447 310 447 382 556 c 1,11,12
 284 569 284 569 228 569 c 0,13,14
 144 569 144 569 108 549 c 2,15,-1
 96 542 l 1,16,17
 94 542 94 542 88 558 c 0,18,19
 70 606 70 606 70 642 c 128,-1,20
 70 678 70 678 76 692 c 1,21,22
 117 710 117 710 168 710 c 128,-1,23
 219 710 219 710 306.5 698.5 c 128,-1,24
 394 687 394 687 445 687 c 128,-1,25
 496 687 496 687 536 696 c 1,26,-1
 555 651 l 1,27,28
 491 549 491 549 377 409 c 128,-1,29
 263 269 263 269 211 189 c 1,30,31
 253 186 253 186 331 161.5 c 128,-1,32
 409 137 409 137 439 137 c 128,-1,33
 469 137 469 137 481 147 c 128,-1,34
 493 157 493 157 512 192 c 1,35,-1
 544 182 l 1,36,37
 539 111 539 111 525 66 c 0,38,39
 501 -13 501 -13 420 -13 c 0,0,1
EndSplineSet
EndChar

StartChar: bracketleft
Encoding: 91 91 62
Width: 343
GlyphClass: 2
Flags: W
LayerCount: 2
Fore
SplineSet
178 -147 m 0,0,1
 178 -156 178 -156 238 -178 c 1,2,-1
 258 -186 l 1,3,-1
 252 -223 l 1,4,5
 245 -224 245 -224 238 -224 c 0,6,7
 169 -224 169 -224 82 -210 c 1,8,9
 68 -188 68 -188 66 -170 c 1,10,11
 123 417 123 417 161 694 c 0,12,13
 162 702 162 702 172 718 c 128,-1,14
 182 734 182 734 193 734 c 0,15,16
 261 734 261 734 363 717 c 1,17,-1
 361 680 l 1,18,19
 270 667 270 667 267 652 c 0,20,21
 262 629 262 629 243 491 c 128,-1,22
 224 353 224 353 217.5 290.5 c 128,-1,23
 211 228 211 228 202.5 155 c 128,-1,24
 194 82 194 82 190 40 c 0,25,26
 178 -84 178 -84 178 -147 c 0,0,1
EndSplineSet
EndChar

StartChar: backslash
Encoding: 92 92 63
Width: 366
GlyphClass: 2
Flags: W
LayerCount: 2
Fore
SplineSet
12 715 m 1,0,1
 49 741 49 741 94 748 c 1,2,3
 225 408 225 408 398 -72 c 1,4,5
 360 -110 360 -110 321 -110 c 1,6,7
 177 296 177 296 12 715 c 1,0,1
EndSplineSet
EndChar

StartChar: bracketright
Encoding: 93 93 64
Width: 375
GlyphClass: 2
Flags: W
LayerCount: 2
Fore
SplineSet
203 657 m 0,0,1
 203 666 203 666 143 688 c 1,2,-1
 123 696 l 1,3,-1
 129 733 l 1,4,5
 136 734 136 734 143 734 c 0,6,7
 212 734 212 734 299 720 c 1,8,9
 313 698 313 698 315 680 c 1,10,11
 258 93 258 93 220 -184 c 0,12,13
 219 -192 219 -192 209 -208 c 128,-1,14
 199 -224 199 -224 188 -224 c 0,15,16
 120 -224 120 -224 18 -207 c 1,17,-1
 20 -170 l 1,18,19
 111 -157 111 -157 114 -142 c 0,20,21
 119 -119 119 -119 138 19 c 128,-1,22
 157 157 157 157 163.5 219.5 c 128,-1,23
 170 282 170 282 178.5 355 c 128,-1,24
 187 428 187 428 191 470 c 0,25,26
 203 594 203 594 203 657 c 0,0,1
EndSplineSet
EndChar

StartChar: asciicircum
Encoding: 94 94 65
Width: 458
GlyphClass: 2
Flags: W
LayerCount: 2
Fore
SplineSet
21 287 m 1,0,-1
 193 674 l 1,1,-1
 268 674 l 1,2,3
 291 621 291 621 322 548 c 0,4,5
 388 393 388 393 437 287 c 1,6,7
 411 284 411 284 395 284 c 128,-1,8
 379 284 379 284 339 288 c 1,9,10
 268 467 268 467 230 556 c 1,11,12
 191 466 191 466 118 288 c 1,13,14
 78 284 78 284 62 284 c 128,-1,15
 46 284 46 284 21 287 c 1,0,-1
EndSplineSet
EndChar

StartChar: underscore
Encoding: 95 95 66
Width: 560
GlyphClass: 2
Flags: W
LayerCount: 2
Fore
SplineSet
52 0 m 1,0,1
 52 42 52 42 55 65 c 1,2,-1
 509 65 l 1,3,4
 509 16 509 16 506 0 c 1,5,-1
 52 0 l 1,0,1
EndSplineSet
EndChar

StartChar: grave
Encoding: 96 96 67
Width: 621
GlyphClass: 2
Flags: W
LayerCount: 2
Fore
SplineSet
228 693 m 0,0,1
 255 693 255 693 316 651 c 0,2,3
 332 640 332 640 344.5 631.5 c 128,-1,4
 357 623 357 623 376 609 c 128,-1,5
 395 595 395 595 407 586 c 0,6,7
 437 561 437 561 471 537 c 1,8,-1
 449 499 l 1,9,10
 326 546 326 546 157 600 c 1,11,12
 195 693 195 693 228 693 c 0,0,1
EndSplineSet
EndChar

StartChar: a
Encoding: 97 97 68
Width: 480
GlyphClass: 2
Flags: W
LayerCount: 2
Fore
SplineSet
328 414 m 1,0,1
 330 416 330 416 339 440 c 1,2,3
 386 440 386 440 465 412 c 1,4,5
 440 329 440 329 425 238.5 c 128,-1,6
 410 148 410 148 410 109.5 c 128,-1,7
 410 71 410 71 418 71 c 0,8,9
 424 71 424 71 462 90 c 2,10,-1
 474 96 l 1,11,-1
 492 61 l 1,12,13
 483 53 483 53 468.5 41 c 128,-1,14
 454 29 454 29 414 8.5 c 128,-1,15
 374 -12 374 -12 342 -12 c 0,16,17
 280 -12 280 -12 270 44 c 1,18,19
 206 -12 206 -12 154.5 -12 c 128,-1,20
 103 -12 103 -12 67.5 28 c 128,-1,21
 32 68 32 68 32 154 c 0,22,23
 32 288 32 288 87 365.5 c 128,-1,24
 142 443 142 443 220 443 c 0,25,26
 276 443 276 443 328 414 c 1,0,1
214 73 m 0,27,28
 238 73 238 73 268 92 c 1,29,30
 275 233 275 233 315 371 c 1,31,32
 285 384 285 384 264 384 c 0,33,34
 228 384 228 384 202.5 313.5 c 128,-1,35
 177 243 177 243 177 158 c 128,-1,36
 177 73 177 73 214 73 c 0,27,28
EndSplineSet
EndChar

StartChar: b
Encoding: 98 98 69
Width: 474
GlyphClass: 2
Flags: W
LayerCount: 2
Fore
SplineSet
289 698 m 0,0,1
 289 622 289 622 238 400 c 1,2,3
 298 443 298 443 346.5 443 c 128,-1,4
 395 443 395 443 429.5 402.5 c 128,-1,5
 464 362 464 362 464 279 c 0,6,7
 464 140 464 140 409.5 64 c 128,-1,8
 355 -12 355 -12 277 -12 c 0,9,10
 248 -12 248 -12 218.5 -5 c 128,-1,11
 189 2 189 2 174 10 c 2,12,-1
 159 17 l 1,13,14
 95 -5 95 -5 34 -5 c 1,15,16
 28 0 28 0 28 43.5 c 128,-1,17
 28 87 28 87 84 331.5 c 128,-1,18
 140 576 140 576 140 666 c 0,19,20
 140 682 140 682 135 707 c 1,21,22
 213 734 213 734 284 734 c 1,23,24
 289 720 289 720 289 698 c 0,0,1
280 358 m 0,25,26
 261 358 261 358 223 340 c 1,27,28
 177 146 177 146 173 62 c 1,29,30
 203 49 203 49 230 49 c 0,31,32
 268 49 268 49 293.5 119 c 128,-1,33
 319 189 319 189 319 273.5 c 128,-1,34
 319 358 319 358 280 358 c 0,25,26
EndSplineSet
EndChar

StartChar: c
Encoding: 99 99 70
Width: 381
GlyphClass: 2
Flags: W
LayerCount: 2
Fore
SplineSet
257 393 m 0,0,1
 217 393 217 393 193 326.5 c 128,-1,2
 169 260 169 260 169 184 c 0,3,4
 169 64 169 64 243 64 c 0,5,6
 267 64 267 64 294.5 75.5 c 128,-1,7
 322 87 322 87 337 98 c 2,8,-1
 352 110 l 1,9,-1
 375 79 l 1,10,11
 367 68 367 68 343 50 c 128,-1,12
 319 32 319 32 298 20 c 128,-1,13
 277 8 277 8 244 -2 c 128,-1,14
 211 -12 211 -12 179 -12 c 0,15,16
 101 -12 101 -12 62 39 c 128,-1,17
 23 90 23 90 23 176 c 0,18,19
 23 295 23 295 88.5 369 c 128,-1,20
 154 443 154 443 257 443 c 0,21,22
 324 443 324 443 363.5 412.5 c 128,-1,23
 403 382 403 382 403 337.5 c 128,-1,24
 403 293 403 293 375 261 c 1,25,26
 350 261 350 261 317 272 c 128,-1,27
 284 283 284 283 267 299 c 1,28,-1
 282 387 l 1,29,30
 273 393 273 393 257 393 c 0,0,1
EndSplineSet
EndChar

StartChar: d
Encoding: 100 100 71
Width: 502
GlyphClass: 2
Flags: W
LayerCount: 2
Fore
SplineSet
504 61 m 1,0,1
 419 -12 419 -12 354.5 -12 c 128,-1,2
 290 -12 290 -12 280 52 c 1,3,4
 250 22 250 22 213 5 c 128,-1,5
 176 -12 176 -12 148 -12 c 0,6,7
 100 -12 100 -12 66 30 c 128,-1,8
 32 72 32 72 32 160 c 0,9,10
 32 292 32 292 88 367.5 c 128,-1,11
 144 443 144 443 214.5 443 c 128,-1,12
 285 443 285 443 333 411 c 1,13,14
 364 573 364 573 364 666 c 1,15,-1
 359 708 l 1,16,17
 434 734 434 734 506 734 c 1,18,19
 514 717 514 717 514 695 c 0,20,21
 514 622 514 622 470 398.5 c 128,-1,22
 426 175 426 175 426 95 c 0,23,24
 426 71 426 71 437 71 c 0,25,26
 443 71 443 71 475 90 c 2,27,-1
 485 96 l 1,28,-1
 504 61 l 1,0,1
263 384 m 0,29,30
 228 384 228 384 202.5 315 c 128,-1,31
 177 246 177 246 177 178.5 c 128,-1,32
 177 111 177 111 186.5 92 c 128,-1,33
 196 73 196 73 215 73 c 0,34,35
 248 73 248 73 280 100 c 1,36,37
 283 140 283 140 325 366 c 1,38,39
 291 384 291 384 263 384 c 0,29,30
EndSplineSet
EndChar

StartChar: e
Encoding: 101 101 72
Width: 385
GlyphClass: 2
Flags: W
LayerCount: 2
Fore
SplineSet
23 173 m 0,0,1
 23 298 23 298 98.5 370.5 c 128,-1,2
 174 443 174 443 270 443 c 0,3,4
 329 443 329 443 367 414 c 128,-1,5
 405 385 405 385 405 336.5 c 128,-1,6
 405 288 405 288 380.5 255 c 128,-1,7
 356 222 356 222 321 204 c 0,8,9
 250 169 250 169 192 160 c 1,10,-1
 167 157 l 1,11,12
 174 63 174 63 244 63 c 0,13,14
 268 63 268 63 295 75 c 128,-1,15
 322 87 322 87 337 99 c 2,16,-1
 352 111 l 1,17,-1
 376 79 l 1,18,19
 368 68 368 68 344 50 c 128,-1,20
 320 32 320 32 298 20 c 0,21,22
 241 -12 241 -12 172 -12 c 128,-1,23
 103 -12 103 -12 63 37 c 128,-1,24
 23 86 23 86 23 173 c 0,0,1
247 249 m 128,-1,26
 277 283 277 283 277 337 c 128,-1,27
 277 391 277 391 245 391 c 0,28,29
 207 391 207 391 186.5 326.5 c 128,-1,30
 166 262 166 262 166 206 c 1,31,25
 217 215 217 215 247 249 c 128,-1,26
EndSplineSet
EndChar

StartChar: f
Encoding: 102 102 73
Width: 280
GlyphClass: 2
Flags: W
LayerCount: 2
Fore
SplineSet
322 431 m 1,0,1
 320 409 320 409 304 373 c 1,2,3
 266 377 266 377 229 377 c 2,4,-1
 225 377 l 1,5,6
 204 130 204 130 186 12 c 128,-1,7
 168 -106 168 -106 139 -153 c 1,8,9
 103 -152 103 -152 64.5 -143.5 c 128,-1,10
 26 -135 26 -135 12 -126 c 1,11,12
 36 -52 36 -52 60.5 97 c 128,-1,13
 85 246 85 246 92 372 c 1,14,15
 64 370 64 370 30 365 c 1,16,17
 27 378 27 378 27 391.5 c 128,-1,18
 27 405 27 405 31 431 c 1,19,-1
 95 431 l 1,20,21
 97 518 97 518 104 563 c 0,22,23
 116 643 116 643 159.5 688.5 c 128,-1,24
 203 734 203 734 272 734 c 0,25,26
 316 734 316 734 341.5 714.5 c 128,-1,27
 367 695 367 695 367 653 c 128,-1,28
 367 611 367 611 329 544.5 c 128,-1,29
 291 478 291 478 229 431 c 1,30,-1
 322 431 l 1,0,1
292 567 m 128,-1,32
 314 607 314 607 314 639.5 c 128,-1,33
 314 672 314 672 293 672 c 0,34,35
 249 672 249 672 237 571 c 0,36,37
 233 537 233 537 231 494 c 1,38,31
 270 527 270 527 292 567 c 128,-1,32
EndSplineSet
EndChar

StartChar: g
Encoding: 103 103 74
Width: 463
GlyphClass: 2
Flags: W
LayerCount: 2
Fore
SplineSet
216 -212.5 m 128,-1,1
 182 -224 182 -224 150 -224 c 128,-1,2
 118 -224 118 -224 98 -206 c 128,-1,3
 78 -188 78 -188 78 -154.5 c 128,-1,4
 78 -121 78 -121 121 -91 c 128,-1,5
 164 -61 164 -61 206 -50 c 1,6,-1
 249 -40 l 1,7,-1
 264 40 l 1,8,9
 206 -4 206 -4 152.5 -4 c 128,-1,10
 99 -4 99 -4 65.5 37 c 128,-1,11
 32 78 32 78 32 168 c 0,12,13
 32 286 32 286 85 364.5 c 128,-1,14
 138 443 138 443 225 443 c 0,15,16
 274 443 274 443 322 419 c 1,17,18
 373 437 373 437 432 437 c 1,19,-1
 453 436 l 1,20,21
 456 424 456 424 456 402 c 0,22,23
 456 314 456 314 393 7 c 1,24,25
 382 -56 382 -56 353 -103.5 c 128,-1,26
 324 -151 324 -151 287 -176 c 128,-1,0
 250 -201 250 -201 216 -212.5 c 128,-1,1
270 384 m 0,27,28
 227 384 227 384 202 314.5 c 128,-1,29
 177 245 177 245 177 160.5 c 128,-1,30
 177 76 177 76 215 76 c 0,31,32
 240 76 240 76 274 95 c 1,33,34
 302 263 302 263 314 372 c 1,35,36
 286 384 286 384 270 384 c 0,27,28
123 -152 m 0,37,38
 123 -171 123 -171 145.5 -171 c 128,-1,39
 168 -171 168 -171 195 -145.5 c 128,-1,40
 222 -120 222 -120 238 -83 c 1,41,42
 205 -87 205 -87 164 -107.5 c 128,-1,43
 123 -128 123 -128 123 -152 c 0,37,38
EndSplineSet
EndChar

StartChar: h
Encoding: 104 104 75
Width: 496
GlyphClass: 2
Flags: W
LayerCount: 2
Fore
SplineSet
147 660 m 0,0,1
 147 693 147 693 141 707 c 1,2,3
 219 734 219 734 288 734 c 1,4,5
 297 725 297 725 297 688 c 0,6,7
 297 622 297 622 241 384 c 1,8,9
 322 443 322 443 383 443 c 0,10,11
 421 443 421 443 440.5 419 c 128,-1,12
 460 395 460 395 460 355.5 c 128,-1,13
 460 316 460 316 437 226.5 c 128,-1,14
 414 137 414 137 414 104 c 128,-1,15
 414 71 414 71 422 71 c 128,-1,16
 430 71 430 71 464 89 c 2,17,-1
 476 95 l 1,18,-1
 494 60 l 1,19,20
 485 52 485 52 470 40 c 128,-1,21
 455 28 455 28 415 8 c 128,-1,22
 375 -12 375 -12 341.5 -12 c 128,-1,23
 308 -12 308 -12 288 9.5 c 128,-1,24
 268 31 268 31 268 67.5 c 128,-1,25
 268 104 268 104 290.5 200.5 c 128,-1,26
 313 297 313 297 313 322.5 c 128,-1,27
 313 348 313 348 292 348 c 0,28,29
 266 348 266 348 227 326 c 1,30,31
 172 84 172 84 172 12 c 1,32,33
 130 -4 130 -4 29 -4 c 1,34,35
 28 13 28 13 28 26 c 0,36,37
 28 69 28 69 87.5 320 c 128,-1,38
 147 571 147 571 147 660 c 0,0,1
EndSplineSet
EndChar

StartChar: i
Encoding: 105 105 76
Width: 272
GlyphClass: 2
Flags: W
LayerCount: 2
Fore
SplineSet
210 236.5 m 128,-1,1
 183 134 183 134 183 102.5 c 128,-1,2
 183 71 183 71 192 71 c 0,3,4
 198 71 198 71 238 90 c 2,5,-1
 250 96 l 1,6,-1
 267 61 l 1,7,8
 258 53 258 53 243 41 c 128,-1,9
 228 29 228 29 187 8.5 c 128,-1,10
 146 -12 146 -12 111 -12 c 128,-1,11
 76 -12 76 -12 56 9.5 c 128,-1,12
 36 31 36 31 36 67.5 c 128,-1,13
 36 104 36 104 61 197.5 c 128,-1,14
 86 291 86 291 86 319 c 0,15,16
 86 361 86 361 60 398 c 1,17,-1
 51 410 l 1,18,-1
 52 423 l 1,19,20
 105 438 105 438 224 438 c 1,21,22
 237 423 237 423 237 381 c 128,-1,0
 237 339 237 339 210 236.5 c 128,-1,1
103 600 m 128,-1,24
 103 633 103 633 130.5 658 c 128,-1,25
 158 683 158 683 194 683 c 128,-1,26
 230 683 230 683 250 663 c 128,-1,27
 270 643 270 643 270 610.5 c 128,-1,28
 270 578 270 578 241.5 553 c 128,-1,29
 213 528 213 528 178 528 c 128,-1,30
 143 528 143 528 123 547.5 c 128,-1,23
 103 567 103 567 103 600 c 128,-1,24
EndSplineSet
EndChar

StartChar: j
Encoding: 106 106 77
Width: 256
GlyphClass: 2
Flags: W
LayerCount: 2
Fore
SplineSet
89 333 m 0,0,1
 89 356 89 356 60 396 c 1,2,-1
 51 410 l 1,3,-1
 52 423 l 1,4,5
 109 438 109 438 224 438 c 1,6,7
 237 423 237 423 237 382.5 c 128,-1,8
 237 342 237 342 212.5 194 c 128,-1,9
 188 46 188 46 171.5 -19 c 128,-1,10
 155 -84 155 -84 137 -121.5 c 128,-1,11
 119 -159 119 -159 80.5 -191.5 c 128,-1,12
 42 -224 42 -224 -1.5 -224 c 128,-1,13
 -45 -224 -45 -224 -82 -205 c 128,-1,14
 -119 -186 -119 -186 -138 -168 c 1,15,-1
 -156 -149 l 1,16,-1
 -134 -117 l 1,17,18
 -85 -146 -85 -146 -61 -146 c 0,19,20
 -23 -146 -23 -146 7 -93 c 128,-1,21
 37 -40 37 -40 63 117.5 c 128,-1,22
 89 275 89 275 89 333 c 0,0,1
105 600 m 128,-1,24
 105 633 105 633 132.5 658 c 128,-1,25
 160 683 160 683 196 683 c 128,-1,26
 232 683 232 683 252 663 c 128,-1,27
 272 643 272 643 272 610.5 c 128,-1,28
 272 578 272 578 243.5 553 c 128,-1,29
 215 528 215 528 180 528 c 128,-1,30
 145 528 145 528 125 547.5 c 128,-1,23
 105 567 105 567 105 600 c 128,-1,24
EndSplineSet
EndChar

StartChar: k
Encoding: 107 107 78
Width: 500
GlyphClass: 2
Flags: W
LayerCount: 2
Fore
SplineSet
143 660 m 0,0,1
 143 693 143 693 137 707 c 1,2,3
 215 734 215 734 284 734 c 1,4,5
 293 725 293 725 293 688 c 0,6,7
 293 605 293 605 238 370 c 1,8,9
 327 443 327 443 414 443 c 0,10,11
 453 443 453 443 480 419 c 128,-1,12
 507 395 507 395 507 349 c 0,13,14
 507 263 507 263 366 224 c 1,15,16
 399 120 399 120 424 83 c 0,17,18
 435 67 435 67 440 67 c 0,19,20
 451 67 451 67 486 84 c 2,21,-1
 497 89 l 1,22,-1
 513 55 l 1,23,24
 489 33 489 33 446.5 10.5 c 128,-1,25
 404 -12 404 -12 369 -12 c 0,26,27
 291 -12 291 -12 260 130 c 0,28,29
 246 191 246 191 243 244 c 1,30,31
 307 259 307 259 338.5 280.5 c 128,-1,32
 370 302 370 302 370 335.5 c 128,-1,33
 370 369 370 369 336 369 c 128,-1,34
 302 369 302 369 222 301 c 1,35,36
 172 90 172 90 172 12 c 1,37,38
 117 -4 117 -4 29 -4 c 1,39,40
 28 13 28 13 28 26 c 0,41,42
 28 69 28 69 85.5 320 c 128,-1,43
 143 571 143 571 143 660 c 0,0,1
EndSplineSet
EndChar

StartChar: l
Encoding: 108 108 79
Width: 266
GlyphClass: 2
Flags: W
LayerCount: 2
Fore
SplineSet
50.5 11 m 128,-1,1
 28 34 28 34 28 75.5 c 128,-1,2
 28 117 28 117 77.5 340.5 c 128,-1,3
 127 564 127 564 127 663 c 1,4,-1
 121 707 l 1,5,6
 199 734 199 734 267 734 c 1,7,8
 277 720 277 720 277 685 c 0,9,10
 277 605 277 605 226.5 375.5 c 128,-1,11
 176 146 176 146 176 108.5 c 128,-1,12
 176 71 176 71 185 71 c 1,13,-1
 255 96 l 1,14,-1
 273 61 l 1,15,16
 239 34 239 34 190.5 11 c 128,-1,17
 142 -12 142 -12 107.5 -12 c 128,-1,0
 73 -12 73 -12 50.5 11 c 128,-1,1
EndSplineSet
EndChar

StartChar: m
Encoding: 109 109 80
Width: 734
GlyphClass: 2
Flags: W
LayerCount: 2
Fore
SplineSet
57 -3 m 2,0,-1
 38 -3 l 1,1,2
 38 44 38 44 66.5 177 c 128,-1,3
 95 310 95 310 95 328 c 0,4,5
 95 361 95 361 67 398 c 2,6,-1
 58 410 l 1,7,-1
 59 423 l 1,8,9
 113 438 113 438 232 438 c 1,10,11
 246 419 246 419 246 376 c 1,12,13
 336 443 336 443 389 443 c 0,14,15
 456 443 456 443 468 374 c 1,16,17
 495 396 495 396 538.5 419.5 c 128,-1,18
 582 443 582 443 616.5 443 c 128,-1,19
 651 443 651 443 674 420.5 c 128,-1,20
 697 398 697 398 697 358 c 128,-1,21
 697 318 697 318 675 226 c 128,-1,22
 653 134 653 134 653 102.5 c 128,-1,23
 653 71 653 71 662 71 c 0,24,25
 668 71 668 71 703 90 c 2,26,-1
 714 96 l 1,27,-1
 732 61 l 1,28,29
 706 35 706 35 661.5 11.5 c 128,-1,30
 617 -12 617 -12 583 -12 c 0,31,32
 508 -12 508 -12 508 73 c 0,33,34
 508 104 508 104 529.5 197.5 c 128,-1,35
 551 291 551 291 551 319.5 c 128,-1,36
 551 348 551 348 534 348 c 0,37,38
 505 348 505 348 468 326 c 1,39,40
 466 306 466 306 440.5 190 c 128,-1,41
 415 74 415 74 415 10 c 1,42,43
 386 -3 386 -3 279 -3 c 1,44,45
 277 8 277 8 277 50 c 128,-1,46
 277 92 277 92 300.5 193 c 128,-1,47
 324 294 324 294 324 321 c 128,-1,48
 324 348 324 348 305 348 c 0,49,50
 275 348 275 348 239 324 c 1,51,52
 237 315 237 315 219 236 c 0,53,54
 183 78 183 78 183 11 c 1,55,56
 148 -3 148 -3 57 -3 c 2,0,-1
EndSplineSet
EndChar

StartChar: n
Encoding: 110 110 81
Width: 508
GlyphClass: 2
Flags: W
LayerCount: 2
Fore
SplineSet
57 -3 m 2,0,-1
 38 -3 l 1,1,2
 38 44 38 44 66.5 177 c 128,-1,3
 95 310 95 310 95 328 c 0,4,5
 95 361 95 361 67 398 c 2,6,-1
 58 410 l 1,7,-1
 59 423 l 1,8,9
 113 438 113 438 232 438 c 1,10,11
 245 421 245 421 246 376 c 1,12,13
 333 443 333 443 393 443 c 0,14,15
 429 443 429 443 450.5 418 c 128,-1,16
 472 393 472 393 472 355.5 c 128,-1,17
 472 318 472 318 449 226 c 128,-1,18
 426 134 426 134 426 102.5 c 128,-1,19
 426 71 426 71 434 71 c 0,20,21
 440 71 440 71 476 90 c 2,22,-1
 488 96 l 1,23,-1
 506 61 l 1,24,25
 497 53 497 53 482 41 c 128,-1,26
 467 29 467 29 426.5 8.5 c 128,-1,27
 386 -12 386 -12 354 -12 c 0,28,29
 281 -12 281 -12 281 71 c 0,30,31
 281 106 281 106 303.5 200 c 128,-1,32
 326 294 326 294 326 321 c 128,-1,33
 326 348 326 348 309 348 c 0,34,35
 280 348 280 348 238 323 c 1,36,37
 235 306 235 306 218 233 c 0,38,39
 183 76 183 76 183 11 c 1,40,41
 148 -3 148 -3 57 -3 c 2,0,-1
EndSplineSet
EndChar

StartChar: o
Encoding: 111 111 82
Width: 409
GlyphClass: 2
Flags: W
LayerCount: 2
Fore
SplineSet
170 -12 m 0,0,1
 101 -12 101 -12 62 36.5 c 128,-1,2
 23 85 23 85 23 172 c 0,3,4
 23 283 23 283 82.5 363 c 128,-1,5
 142 443 142 443 247 443 c 1,6,-1
 283 441 l 1,7,8
 300 450 300 450 321 450 c 0,9,10
 400 450 400 450 400 301 c 1,11,12
 441 303 441 303 483 312 c 1,13,-1
 499 316 l 1,14,-1
 505 277 l 1,15,16
 472 263 472 263 416 252 c 2,17,-1
 396 248 l 1,18,19
 377 143 377 143 319 65.5 c 128,-1,20
 261 -12 261 -12 170 -12 c 0,0,1
224 74 m 0,21,22
 266 74 266 74 299.5 128 c 128,-1,23
 333 182 333 182 346 242 c 1,24,25
 239 242 239 242 239 322 c 0,26,27
 239 354 239 354 252 382 c 2,28,-1
 257 392 l 1,29,30
 253 394 253 394 247 394 c 128,-1,31
 241 394 241 394 238 392 c 0,32,33
 213 376 213 376 191 317 c 128,-1,34
 169 258 169 258 169 182 c 0,35,36
 169 74 169 74 224 74 c 0,21,22
EndSplineSet
EndChar

StartChar: p
Encoding: 112 112 83
Width: 471
GlyphClass: 2
Flags: W
LayerCount: 2
Fore
SplineSet
1 -224 m 1,0,1
 -4 -212 -4 -212 -4 -171 c 128,-1,2
 -4 -130 -4 -130 35 49.5 c 128,-1,3
 74 229 74 229 74 326 c 0,4,5
 74 345 74 345 65 366.5 c 128,-1,6
 56 388 56 388 46 400 c 2,7,-1
 37 411 l 1,8,-1
 38 424 l 1,9,10
 85 439 85 439 204 439 c 1,11,12
 215 418 215 418 218 380 c 1,13,14
 295 443 295 443 346.5 443 c 128,-1,15
 398 443 398 443 429.5 400 c 128,-1,16
 461 357 461 357 461 274 c 0,17,18
 461 129 461 129 408 58.5 c 128,-1,19
 355 -12 355 -12 274 -12 c 0,20,21
 232 -12 232 -12 204 0 c 2,22,-1
 194 4 l 1,23,-1
 201 43 l 1,24,25
 210 41 210 41 222 41 c 0,26,27
 248 41 248 41 267.5 65 c 128,-1,28
 287 89 287 89 297 126 c 0,29,30
 317 200 317 200 317 263 c 0,31,32
 317 353 317 353 280 353 c 0,33,34
 251 353 251 353 218 330 c 1,35,36
 214 260 214 260 177 85 c 128,-1,37
 140 -90 140 -90 140 -197 c 1,38,39
 86 -219 86 -219 1 -224 c 1,0,1
EndSplineSet
EndChar

StartChar: q
Encoding: 113 113 84
Width: 469
GlyphClass: 2
Flags: W
LayerCount: 2
Fore
SplineSet
238 -224 m 1,0,1
 232 -212 232 -212 232 -174 c 128,-1,2
 232 -136 232 -136 267 39 c 1,3,4
 204 -12 204 -12 151 -12 c 128,-1,5
 98 -12 98 -12 65 30 c 128,-1,6
 32 72 32 72 32 155 c 0,7,8
 32 294 32 294 88 368.5 c 128,-1,9
 144 443 144 443 222 443 c 0,10,11
 264 443 264 443 323 420 c 1,12,13
 373 438 373 438 451 438 c 1,14,15
 454 420 454 420 454 397 c 0,16,17
 454 288 454 288 415.5 92 c 128,-1,18
 377 -104 377 -104 377 -197 c 1,19,20
 323 -219 323 -219 238 -224 c 1,0,1
266 384 m 0,21,22
 228 384 228 384 202.5 317.5 c 128,-1,23
 177 251 177 251 177 162 c 128,-1,24
 177 73 177 73 215 73 c 0,25,26
 249 73 249 73 279 99 c 1,27,28
 313 271 313 271 313 373 c 1,29,30
 285 384 285 384 266 384 c 0,21,22
EndSplineSet
EndChar

StartChar: r
Encoding: 114 114 85
Width: 364
GlyphClass: 2
Flags: W
LayerCount: 2
Fore
SplineSet
50 -3 m 2,0,-1
 43 -3 l 1,1,2
 41 5 41 5 41 33.5 c 128,-1,3
 41 62 41 62 68 187 c 128,-1,4
 95 312 95 312 95 330 c 0,5,6
 95 361 95 361 67 398 c 2,7,-1
 58 410 l 1,8,-1
 59 423 l 1,9,10
 113 438 113 438 232 438 c 1,11,12
 244 412 244 412 244 365 c 1,13,14
 255 383 255 383 290 413 c 128,-1,15
 325 443 325 443 362 443 c 0,16,17
 416 443 416 443 416 349 c 1,18,19
 411 343 411 343 402.5 333.5 c 128,-1,20
 394 324 394 324 368.5 307 c 128,-1,21
 343 290 343 290 319 286 c 0,22,23
 318 286 318 286 302 313 c 128,-1,24
 286 340 286 340 278 340 c 1,25,26
 253 331 253 331 234 310 c 1,27,28
 188 103 188 103 188 42 c 0,29,30
 188 20 188 20 189 11 c 1,31,32
 154 -3 154 -3 50 -3 c 2,0,-1
EndSplineSet
EndChar

StartChar: s
Encoding: 115 115 86
Width: 355
GlyphClass: 2
Flags: W
LayerCount: 2
Fore
SplineSet
339 131 m 0,0,1
 339 68 339 68 283.5 28 c 128,-1,2
 228 -12 228 -12 157 -12 c 128,-1,3
 86 -12 86 -12 44.5 18 c 128,-1,4
 3 48 3 48 3 71 c 0,5,6
 3 85 3 85 38 116.5 c 128,-1,7
 73 148 73 148 97 155 c 1,8,9
 147 118 147 118 179 38 c 1,10,11
 216 41 216 41 216 73 c 0,12,13
 216 119 216 119 135 203.5 c 128,-1,14
 54 288 54 288 54 338 c 128,-1,15
 54 388 54 388 99 415.5 c 128,-1,16
 144 443 144 443 207.5 443 c 128,-1,17
 271 443 271 443 303 420.5 c 128,-1,18
 335 398 335 398 335 359.5 c 128,-1,19
 335 321 335 321 274 253 c 1,20,21
 281 246 281 246 292 234.5 c 128,-1,22
 303 223 303 223 321 191 c 128,-1,23
 339 159 339 159 339 131 c 0,0,1
285 359 m 128,-1,25
 285 394 285 394 237 394 c 0,26,27
 214 394 214 394 199 384.5 c 128,-1,28
 184 375 184 375 184 363 c 0,29,30
 184 341 184 341 228 301 c 1,31,-1
 243 288 l 1,32,24
 285 324 285 324 285 359 c 128,-1,25
EndSplineSet
EndChar

StartChar: t
Encoding: 116 116 87
Width: 295
GlyphClass: 2
Flags: W
LayerCount: 2
Fore
SplineSet
343 431 m 1,0,1
 341 406 341 406 326 373 c 1,2,3
 288 377 288 377 254 377 c 2,4,-1
 236 377 l 1,5,6
 190 154 190 154 190 99 c 0,7,8
 190 70 190 70 202.5 70 c 128,-1,9
 215 70 215 70 269 95 c 1,10,-1
 287 62 l 1,11,12
 198 -12 198 -12 122 -12 c 0,13,14
 87 -12 87 -12 64.5 10 c 128,-1,15
 42 32 42 32 42 68.5 c 128,-1,16
 42 105 42 105 50.5 151 c 128,-1,17
 59 197 59 197 74 263.5 c 128,-1,18
 89 330 89 330 96 371 c 1,19,20
 59 368 59 368 41 365 c 1,21,22
 39 377 39 377 39 397.5 c 128,-1,23
 39 418 39 418 42 431 c 1,24,-1
 105 431 l 1,25,26
 113 485 113 485 113 533 c 1,27,-1
 112 564 l 1,28,-1
 112 567 l 1,29,30
 190 594 190 594 259 594 c 1,31,32
 263 574 263 574 263 544 c 128,-1,33
 263 514 263 514 246 431 c 1,34,-1
 343 431 l 1,0,1
EndSplineSet
EndChar

StartChar: u
Encoding: 117 117 88
Width: 499
GlyphClass: 2
Flags: W
LayerCount: 2
Fore
SplineSet
64 221.5 m 128,-1,1
 90 325 90 325 90 348.5 c 128,-1,2
 90 372 90 372 54 411 c 1,3,-1
 55 424 l 1,4,5
 123 438 123 438 234 438 c 1,6,7
 239 425 239 425 239 391 c 128,-1,8
 239 357 239 357 211 246 c 128,-1,9
 183 135 183 135 183 108 c 128,-1,10
 183 81 183 81 203 81 c 0,11,12
 232 81 232 81 270 102 c 1,13,14
 274 126 274 126 290 194 c 0,15,16
 326 354 326 354 326 423 c 1,17,18
 361 437 361 437 452 437 c 2,19,-1
 471 437 l 1,20,21
 471 390 471 390 443 253.5 c 128,-1,22
 415 117 415 117 415 93.5 c 128,-1,23
 415 70 415 70 425 70 c 0,24,25
 431 70 431 70 482 94 c 1,26,-1
 501 62 l 1,27,28
 412 -12 412 -12 345 -12 c 0,29,30
 313 -12 313 -12 290.5 6 c 128,-1,31
 268 24 268 24 265 53 c 1,32,33
 184 -13 184 -13 118 -13 c 0,34,35
 83 -13 83 -13 60.5 10 c 128,-1,36
 38 33 38 33 38 75.5 c 128,-1,0
 38 118 38 118 64 221.5 c 128,-1,1
EndSplineSet
EndChar

StartChar: v
Encoding: 118 118 89
Width: 394
GlyphClass: 2
Flags: W
LayerCount: 2
Fore
SplineSet
192.5 425 m 128,-1,1
 214 407 214 407 214 351 c 0,2,3
 214 321 214 321 196 228.5 c 128,-1,4
 178 136 178 136 178 116 c 0,5,6
 178 76 178 76 194 76 c 0,7,8
 232 76 232 76 277.5 132.5 c 128,-1,9
 323 189 323 189 325 227 c 1,10,-1
 257 303 l 1,11,12
 261 346 261 346 278 381 c 128,-1,13
 295 416 295 416 310 430 c 2,14,-1
 324 443 l 1,15,16
 367 443 367 443 389 420 c 128,-1,17
 411 397 411 397 411 366 c 0,18,19
 411 287 411 287 372 199 c 128,-1,20
 333 111 333 111 268 49.5 c 128,-1,21
 203 -12 203 -12 136 -12 c 0,22,23
 94 -12 94 -12 71.5 14 c 128,-1,24
 49 40 49 40 49 82.5 c 128,-1,25
 49 125 49 125 55.5 197 c 128,-1,26
 62 269 62 269 62 340 c 0,27,28
 62 356 62 356 50.5 378 c 128,-1,29
 39 400 39 400 27 413 c 1,30,-1
 30 425 l 1,31,32
 84 443 84 443 127.5 443 c 128,-1,0
 171 443 171 443 192.5 425 c 128,-1,1
EndSplineSet
EndChar

StartChar: w
Encoding: 119 119 90
Width: 624
GlyphClass: 2
Flags: W
LayerCount: 2
Fore
SplineSet
52 82 m 1,0,-1
 63 343 l 1,1,2
 63 377 63 377 27 413 c 1,3,-1
 29 425 l 1,4,5
 36 427 36 427 42.5 428.5 c 128,-1,6
 49 430 49 430 57.5 432 c 128,-1,7
 66 434 66 434 77 436 c 128,-1,8
 88 438 88 438 100 440 c 0,9,10
 128 443 128 443 152.5 443 c 128,-1,11
 177 443 177 443 194.5 423 c 128,-1,12
 212 403 212 403 212 359.5 c 128,-1,13
 212 316 212 316 198.5 235.5 c 128,-1,14
 185 155 185 155 185 115.5 c 128,-1,15
 185 76 185 76 204 76 c 0,16,17
 235 76 235 76 272 115 c 1,18,19
 273 131 273 131 285 217 c 128,-1,20
 297 303 297 303 297 342 c 128,-1,21
 297 381 297 381 291 409 c 1,22,23
 368 438 368 438 429 438 c 1,24,25
 442 429 442 429 442 379.5 c 128,-1,26
 442 330 442 330 425 242.5 c 128,-1,27
 408 155 408 155 408 115.5 c 128,-1,28
 408 76 408 76 424 76 c 0,29,30
 462 76 462 76 507 132.5 c 128,-1,31
 552 189 552 189 555 227 c 1,32,-1
 487 303 l 1,33,34
 491 346 491 346 508 381 c 128,-1,35
 525 416 525 416 540 430 c 2,36,-1
 554 443 l 1,37,38
 597 443 597 443 619 420 c 128,-1,39
 641 397 641 397 641 366 c 0,40,41
 641 287 641 287 602 199 c 128,-1,42
 563 111 563 111 497 49.5 c 128,-1,43
 431 -12 431 -12 363 -12 c 0,44,45
 329 -12 329 -12 305.5 7.5 c 128,-1,46
 282 27 282 27 274 58 c 1,47,48
 204 -12 204 -12 138 -12 c 0,49,50
 94 -12 94 -12 73 15.5 c 128,-1,51
 52 43 52 43 52 82 c 1,0,-1
EndSplineSet
EndChar

StartChar: x
Encoding: 120 120 91
Width: 378
GlyphClass: 2
Flags: W
LayerCount: 2
Fore
SplineSet
335 68 m 0,0,1
 341 68 341 68 374 86 c 1,2,-1
 385 91 l 1,3,-1
 403 56 l 1,4,5
 395 48 395 48 382 37 c 128,-1,6
 369 26 369 26 331.5 7 c 128,-1,7
 294 -12 294 -12 260.5 -12 c 128,-1,8
 227 -12 227 -12 206.5 5.5 c 128,-1,9
 186 23 186 23 173 63 c 2,10,-1
 150 134 l 1,11,12
 75 53 75 53 38 -11 c 1,13,14
 31 -11 31 -11 3.5 -1 c 128,-1,15
 -24 9 -24 9 -37 16 c 1,16,17
 -8 67 -8 67 130 197 c 1,18,19
 95 302 95 302 74 344 c 0,20,21
 70 352 70 352 26 401 c 1,22,-1
 29 413 l 1,23,-1
 90 426 l 1,24,25
 143 434 143 434 184 436 c 1,26,27
 205 419 205 419 217.5 373 c 128,-1,28
 230 327 230 327 237 303 c 1,29,30
 311 384 311 384 334 439 c 1,31,32
 362 435 362 435 389 418 c 1,33,-1
 398 413 l 1,34,35
 363 347 363 347 256 240 c 1,36,37
 267 202 267 202 276 177 c 0,38,39
 314 68 314 68 335 68 c 0,0,1
EndSplineSet
EndChar

StartChar: y
Encoding: 121 121 92
Width: 457
GlyphClass: 2
Flags: W
LayerCount: 2
Fore
SplineSet
117 -4 m 0,0,1
 34 -4 34 -4 34 88 c 0,2,3
 34 110 34 110 54 215 c 128,-1,4
 74 320 74 320 74 390 c 0,5,6
 74 405 74 405 70 418 c 1,7,8
 124 439 124 439 218 439 c 1,9,10
 223 425 223 425 223 391 c 128,-1,11
 223 357 223 357 201 255 c 128,-1,12
 179 153 179 153 179 122 c 128,-1,13
 179 91 179 91 195 91 c 0,14,15
 239 91 239 91 280 122 c 1,16,17
 283 159 283 159 320 423 c 1,18,19
 355 437 355 437 446 437 c 2,20,-1
 465 437 l 1,21,22
 453 390 453 390 425.5 199.5 c 128,-1,23
 398 9 398 9 386 -42 c 128,-1,24
 374 -93 374 -93 353.5 -132 c 128,-1,25
 333 -171 333 -171 303.5 -190.5 c 128,-1,26
 274 -210 274 -210 244 -217 c 128,-1,27
 214 -224 214 -224 166.5 -224 c 128,-1,28
 119 -224 119 -224 76.5 -193.5 c 128,-1,29
 34 -163 34 -163 34 -141 c 0,30,31
 34 -127 34 -127 69.5 -98 c 128,-1,32
 105 -69 105 -69 129 -62 c 1,33,34
 180 -113 180 -113 204 -173 c 1,35,36
 230 -173 230 -173 250 -111 c 128,-1,37
 270 -49 270 -49 277 71 c 1,38,39
 253 47 253 47 204 21.5 c 128,-1,40
 155 -4 155 -4 117 -4 c 0,0,1
EndSplineSet
EndChar

StartChar: z
Encoding: 122 122 93
Width: 385
GlyphClass: 2
Flags: W
LayerCount: 2
Fore
SplineSet
131 443 m 1,0,-1
 322 435 l 1,1,2
 354 435 354 435 383 438 c 1,3,-1
 392 406 l 1,4,-1
 373 384 l 1,5,6
 319 319 319 319 253 228.5 c 128,-1,7
 187 138 187 138 181 130 c 1,8,9
 273 97 273 97 320 97 c 0,10,11
 335 97 335 97 341 103 c 0,12,13
 350 112 350 112 364 142 c 1,14,-1
 394 135 l 1,15,16
 387 22 387 22 348 -9 c 0,17,18
 329 -24 329 -24 301 -24 c 128,-1,19
 273 -24 273 -24 211.5 10.5 c 128,-1,20
 150 45 150 45 112 55 c 1,21,22
 70 -2 70 -2 54 -2 c 128,-1,23
 38 -2 38 -2 14 24.5 c 128,-1,24
 -10 51 -10 51 -10 66 c 128,-1,25
 -10 81 -10 81 21.5 117.5 c 128,-1,26
 53 154 53 154 87 154 c 0,27,28
 94 154 94 154 98 153 c 1,29,30
 179 232 179 232 244 332 c 1,31,32
 158 331 158 331 124 326.5 c 128,-1,33
 90 322 90 322 58 304 c 1,34,35
 50 339 50 339 50 376.5 c 128,-1,36
 50 414 50 414 53 430 c 1,37,38
 66 443 66 443 131 443 c 1,0,-1
EndSplineSet
EndChar

StartChar: braceleft
Encoding: 123 123 94
Width: 430
GlyphClass: 2
Flags: W
LayerCount: 2
Fore
SplineSet
228 390 m 2,0,-1
 225 612 l 2,1,2
 225 657 225 657 253.5 696 c 128,-1,3
 282 735 282 735 333 735 c 128,-1,4
 384 735 384 735 446 709 c 1,5,-1
 441 668 l 1,6,7
 376 668 376 668 363 654 c 128,-1,8
 350 640 350 640 341 579.5 c 128,-1,9
 332 519 332 519 324 427.5 c 128,-1,10
 316 336 316 336 313 316 c 0,11,12
 307 273 307 273 260 253 c 1,13,14
 296 231 296 231 296 194.5 c 128,-1,15
 296 158 296 158 275 37 c 128,-1,16
 254 -84 254 -84 254 -109 c 128,-1,17
 254 -134 254 -134 257 -141 c 0,18,19
 262 -155 262 -155 282 -164 c 128,-1,20
 302 -173 302 -173 320 -176 c 2,21,-1
 338 -178 l 1,22,-1
 332 -219 l 1,23,24
 303 -224 303 -224 265 -224 c 0,25,26
 133 -224 133 -224 133 -112 c 0,27,28
 133 -76 133 -76 169.5 48 c 128,-1,29
 206 172 206 172 214 215 c 1,30,31
 209 221 209 221 175.5 226.5 c 128,-1,32
 142 232 142 232 112 234 c 2,33,-1
 81 236 l 1,34,-1
 91 309 l 1,35,36
 179 297 179 297 213 297 c 1,37,-1
 224 298 l 1,38,39
 228 335 228 335 228 390 c 2,0,-1
EndSplineSet
EndChar

StartChar: bar
Encoding: 124 124 95
Width: 266
GlyphClass: 2
Flags: W
LayerCount: 2
Fore
SplineSet
199 794 m 1,0,-1
 199 -144 l 1,1,2
 176 -147 176 -147 112 -147 c 1,3,-1
 112 791 l 1,4,5
 147 794 147 794 199 794 c 1,0,-1
EndSplineSet
EndChar

StartChar: braceright
Encoding: 125 125 96
Width: 433
GlyphClass: 2
Flags: W
LayerCount: 2
Fore
SplineSet
249 121 m 2,0,-1
 252 -101 l 2,1,2
 252 -146 252 -146 223.5 -185 c 128,-1,3
 195 -224 195 -224 144 -224 c 128,-1,4
 93 -224 93 -224 31 -198 c 1,5,-1
 36 -157 l 1,6,7
 101 -157 101 -157 114 -143 c 128,-1,8
 127 -129 127 -129 136 -68.5 c 128,-1,9
 145 -8 145 -8 153 83.5 c 128,-1,10
 161 175 161 175 164 195 c 0,11,12
 170 238 170 238 217 258 c 1,13,14
 181 280 181 280 181 316.5 c 128,-1,15
 181 353 181 353 202 474 c 128,-1,16
 223 595 223 595 223 619.5 c 128,-1,17
 223 644 223 644 219 655 c 128,-1,18
 215 666 215 666 195 675 c 128,-1,19
 175 684 175 684 157 686 c 2,20,-1
 139 689 l 1,21,-1
 145 730 l 1,22,23
 174 735 174 735 212 735 c 0,24,25
 344 735 344 735 344 623 c 0,26,27
 344 587 344 587 307.5 463 c 128,-1,28
 271 339 271 339 263 296 c 1,29,30
 268 290 268 290 301.5 284.5 c 128,-1,31
 335 279 335 279 366 277 c 2,32,-1
 396 275 l 1,33,-1
 386 202 l 1,34,35
 298 214 298 214 264 214 c 1,36,-1
 253 213 l 1,37,38
 249 176 249 176 249 121 c 2,0,-1
EndSplineSet
EndChar

StartChar: asciitilde
Encoding: 126 126 97
Width: 535
GlyphClass: 2
Flags: W
LayerCount: 2
Fore
SplineSet
376 235 m 0,0,1
 350 235 350 235 275 248 c 128,-1,2
 200 261 200 261 166.5 261 c 128,-1,3
 133 261 133 261 124 260 c 0,4,5
 97 255 97 255 78 226 c 1,6,-1
 47 233 l 1,7,8
 55 288 55 288 87.5 324.5 c 128,-1,9
 120 361 120 361 166.5 361 c 128,-1,10
 213 361 213 361 290 349 c 128,-1,11
 367 337 367 337 397.5 337 c 128,-1,12
 428 337 428 337 444 343 c 128,-1,13
 460 349 460 349 474 369 c 1,14,-1
 505 363 l 1,15,16
 495 305 495 305 467 270 c 128,-1,17
 439 235 439 235 376 235 c 0,0,1
EndSplineSet
EndChar

StartChar: exclamdown
Encoding: 161 161 99
Width: 275
GlyphClass: 2
Flags: W
LayerCount: 2
Fore
SplineSet
251 422 m 128,-1,1
 270 401 270 401 270 366 c 128,-1,2
 270 331 270 331 244 305.5 c 128,-1,3
 218 280 218 280 182.5 280 c 128,-1,4
 147 280 147 280 128 300.5 c 128,-1,5
 109 321 109 321 109 355.5 c 128,-1,6
 109 390 109 390 135.5 416.5 c 128,-1,7
 162 443 162 443 197 443 c 128,-1,0
 232 443 232 443 251 422 c 128,-1,1
16 -233 m 0,8,9
 16 -134 16 -134 81 78 c 0,10,11
 86 95 86 95 99.5 139.5 c 128,-1,12
 113 184 113 184 120 208 c 1,13,14
 147 219 147 219 170 219 c 128,-1,15
 193 219 193 219 204 215 c 1,16,17
 168 -2 168 -2 168 -168 c 1,18,-1
 174 -252 l 1,19,20
 89 -279 89 -279 23 -279 c 1,21,22
 16 -270 16 -270 16 -233 c 0,8,9
EndSplineSet
EndChar

StartChar: cent
Encoding: 162 162 100
Width: 388
GlyphClass: 2
Flags: W
LayerCount: 2
Fore
SplineSet
252 393 m 0,0,1
 218 393 218 393 191 332 c 128,-1,2
 164 271 164 271 164 214 c 0,3,4
 164 94 164 94 238 94 c 0,5,6
 262 94 262 94 289 105.5 c 128,-1,7
 316 117 316 117 332 128 c 1,8,-1
 347 140 l 1,9,-1
 370 109 l 1,10,11
 362 101 362 101 348.5 88 c 128,-1,12
 335 75 335 75 292 50.5 c 128,-1,13
 249 26 249 26 205 20 c 1,14,15
 194 -54 194 -54 194 -94 c 1,16,17
 148 -94 148 -94 128 -84 c 1,18,-1
 147 20 l 1,19,20
 82 29 82 29 50 78.5 c 128,-1,21
 18 128 18 128 18 214 c 128,-1,22
 18 300 18 300 77 365.5 c 128,-1,23
 136 431 136 431 223 441 c 1,24,25
 235 541 235 541 235 561 c 1,26,27
 275 561 275 561 301 551 c 1,28,-1
 280 441 l 1,29,30
 335 435 335 435 366.5 405.5 c 128,-1,31
 398 376 398 376 398 334.5 c 128,-1,32
 398 293 398 293 370 261 c 1,33,34
 345 261 345 261 312 272 c 128,-1,35
 279 283 279 283 262 299 c 1,36,-1
 277 387 l 1,37,38
 268 393 268 393 252 393 c 0,0,1
EndSplineSet
EndChar

StartChar: sterling
Encoding: 163 163 101
Width: 523
GlyphClass: 2
Flags: W
LayerCount: 2
Fore
SplineSet
432 431 m 1,0,1
 430 406 430 406 415 373 c 1,2,3
 377 377 377 377 303 377 c 2,4,-1
 276 377 l 1,5,6
 246 248 246 248 200 150 c 1,7,8
 204 149 204 149 229.5 142 c 128,-1,9
 255 135 255 135 263.5 133 c 128,-1,10
 272 131 272 131 294.5 126 c 128,-1,11
 317 121 317 121 332 119 c 0,12,13
 375 113 375 113 401 113 c 128,-1,14
 427 113 427 113 439 125 c 1,15,-1
 469 181 l 1,16,-1
 501 171 l 1,17,18
 501 106 501 106 480 48 c 0,19,20
 468 17 468 17 442.5 -1 c 128,-1,21
 417 -19 417 -19 382.5 -19 c 128,-1,22
 348 -19 348 -19 279.5 23 c 128,-1,23
 211 65 211 65 170 77 c 1,24,25
 143 41 143 41 109 17 c 128,-1,26
 75 -7 75 -7 62 -7 c 0,27,28
 52 -7 52 -7 22 36.5 c 128,-1,29
 -8 80 -8 80 -8 99 c 0,30,31
 -8 110 -8 110 23.5 132 c 128,-1,32
 55 154 55 154 90 162 c 1,33,34
 112 223 112 223 133 370 c 1,35,36
 108 369 108 369 90 365 c 1,37,38
 88 377 88 377 88 394 c 128,-1,39
 88 411 88 411 91 431 c 1,40,-1
 141 431 l 1,41,-1
 150 503 l 2,42,43
 168 645 168 645 229 692 c 0,44,45
 260 716 260 716 294 724.5 c 128,-1,46
 328 733 328 733 384 733 c 128,-1,47
 440 733 440 733 494 701 c 128,-1,48
 548 669 548 669 548 621 c 0,49,50
 548 599 548 599 538 573.5 c 128,-1,51
 528 548 528 548 515 535 c 1,52,53
 490 535 490 535 451 551.5 c 128,-1,54
 412 568 412 568 393 587 c 1,55,-1
 411 673 l 1,56,57
 400 682 400 682 381.5 682 c 128,-1,58
 363 682 363 682 351.5 673 c 128,-1,59
 340 664 340 664 332.5 649.5 c 128,-1,60
 325 635 325 635 319 609 c 128,-1,61
 313 583 313 583 310 569 c 128,-1,62
 307 555 307 555 301 517.5 c 128,-1,63
 295 480 295 480 294 474 c 2,64,-1
 287 431 l 1,65,-1
 432 431 l 1,0,1
EndSplineSet
EndChar

StartChar: currency
Encoding: 164 164 102
Width: 654
GlyphClass: 2
Flags: W
LayerCount: 2
Fore
SplineSet
151 217 m 1,0,1
 116 271 116 271 116 347 c 128,-1,2
 116 423 116 423 149 478 c 1,3,4
 79 536 79 536 47 579 c 1,5,6
 93 638 93 638 117 638 c 0,7,8
 128 638 128 638 139 626 c 128,-1,9
 150 614 150 614 172.5 585.5 c 128,-1,10
 195 557 195 557 211 541 c 1,11,12
 268 575 268 575 345 575 c 128,-1,13
 422 575 422 575 479 541 c 1,14,15
 519 593 519 593 540 624 c 0,16,17
 550 638 550 638 563 637.5 c 128,-1,18
 576 637 576 637 583 634 c 0,19,20
 600 627 600 627 636 582 c 1,21,22
 605 539 605 539 541 480 c 1,23,24
 576 424 576 424 576 349 c 128,-1,25
 576 274 576 274 541 218 c 1,26,27
 608 157 608 157 636 117 c 1,28,29
 590 60 590 60 566 60 c 0,30,31
 552 60 552 60 543 71.5 c 128,-1,32
 534 83 534 83 512.5 112 c 128,-1,33
 491 141 491 141 479 157 c 1,34,35
 425 123 425 123 345.5 123 c 128,-1,36
 266 123 266 123 210 158 c 1,37,38
 209 157 209 157 151 73 c 0,39,40
 142 61 142 61 130 61 c 0,41,42
 103 61 103 61 57 117 c 1,43,44
 92 164 92 164 151 217 c 1,0,1
238.5 453 m 128,-1,46
 202 413 202 413 202 349.5 c 128,-1,47
 202 286 202 286 238.5 245.5 c 128,-1,48
 275 205 275 205 345.5 205 c 128,-1,49
 416 205 416 205 453 245.5 c 128,-1,50
 490 286 490 286 490 349 c 128,-1,51
 490 412 490 412 453 452.5 c 128,-1,52
 416 493 416 493 345.5 493 c 128,-1,45
 275 493 275 493 238.5 453 c 128,-1,46
EndSplineSet
EndChar

StartChar: yen
Encoding: 165 165 103
Width: 489
GlyphClass: 2
Flags: W
LayerCount: 2
Fore
SplineSet
433 204 m 1,0,1
 431 179 431 179 416 146 c 1,2,-1
 298 150 l 1,3,4
 287 82 287 82 287 20 c 1,5,6
 255 0 255 0 142 0 c 2,7,-1
 138 0 l 1,8,9
 138 44 138 44 159 147 c 1,10,11
 95 144 95 144 52 138 c 1,12,13
 50 150 50 150 50 167 c 128,-1,14
 50 184 50 184 53 204 c 1,15,-1
 170 204 l 1,16,-1
 180 251 l 1,17,18
 94 247 94 247 64 242 c 1,19,20
 62 254 62 254 62 271 c 128,-1,21
 62 288 62 288 65 308 c 1,22,-1
 192 308 l 1,23,24
 182 318 182 318 175 337 c 0,25,26
 159 376 159 376 143 478 c 128,-1,27
 127 580 127 580 117.5 607.5 c 128,-1,28
 108 635 108 635 100 640 c 1,29,-1
 61 682 l 1,30,-1
 64 695 l 1,31,32
 152 710 152 710 244 710 c 1,33,34
 259 684 259 684 263.5 644.5 c 128,-1,35
 268 605 268 605 273 548 c 0,36,37
 283 437 283 437 295 398 c 1,38,39
 301 398 301 398 302 399 c 0,40,41
 337 452 337 452 379 541.5 c 128,-1,42
 421 631 421 631 443 708 c 1,43,44
 500 708 500 708 532 693 c 1,45,46
 523 679 523 679 450.5 535 c 128,-1,47
 378 391 378 391 334 321 c 1,48,-1
 331 308 l 1,49,-1
 445 308 l 1,50,51
 443 283 443 283 428 250 c 1,52,-1
 318 254 l 1,53,-1
 308 204 l 1,54,-1
 433 204 l 1,0,1
EndSplineSet
EndChar

StartChar: brokenbar
Encoding: 166 166 104
Width: 276
GlyphClass: 2
Flags: W
LayerCount: 2
Fore
SplineSet
112 -147 m 1,0,-1
 112 289 l 1,1,-1
 199 289 l 1,2,-1
 199 -144 l 1,3,4
 176 -147 176 -147 112 -147 c 1,0,-1
199 403 m 1,5,-1
 112 403 l 1,6,-1
 112 791 l 1,7,8
 114 791 114 791 199 794 c 1,9,-1
 199 403 l 1,5,-1
EndSplineSet
EndChar

StartChar: section
Encoding: 167 167 105
Width: 471
GlyphClass: 2
Flags: W
LayerCount: 2
Fore
SplineSet
456 274 m 0,0,1
 456 171 456 171 311 117 c 1,2,3
 370 38 370 38 370 -25 c 128,-1,4
 370 -88 370 -88 310.5 -130 c 128,-1,5
 251 -172 251 -172 180 -172 c 0,6,7
 137 -172 137 -172 93 -155 c 128,-1,8
 49 -138 49 -138 25 -119 c 128,-1,9
 1 -100 1 -100 0 -90 c 1,10,11
 8 -65 8 -65 39.5 -37 c 128,-1,12
 71 -9 71 -9 98 -1 c 1,13,14
 138 -29 138 -29 166 -114 c 1,15,16
 193 -114 193 -114 214 -101 c 128,-1,17
 235 -88 235 -88 235 -59 c 128,-1,18
 235 -30 235 -30 215 3 c 128,-1,19
 195 36 195 36 166 68 c 128,-1,20
 137 100 137 100 108 134 c 0,21,22
 39 215 39 215 39 288 c 0,23,24
 39 394 39 394 184 440 c 1,25,26
 125 519 125 519 125 583 c 128,-1,27
 125 647 125 647 184.5 690.5 c 128,-1,28
 244 734 244 734 314 734 c 128,-1,29
 384 734 384 734 423 703.5 c 128,-1,30
 462 673 462 673 462 631 c 0,31,32
 462 559 462 559 407 514 c 1,33,34
 390 520 390 520 376.5 530.5 c 128,-1,35
 363 541 363 541 353 556 c 1,36,37
 396 590 396 590 396 625 c 0,38,39
 396 647 396 647 377 660 c 128,-1,40
 358 673 358 673 327 673 c 128,-1,41
 296 673 296 673 277 656.5 c 128,-1,42
 258 640 258 640 257 610 c 1,43,44
 262 563 262 563 332 485 c 0,45,46
 360 453 360 453 388 420 c 0,47,48
 456 340 456 340 456 274 c 0,0,1
246 366 m 0,49,50
 230 383 230 383 225 389 c 1,51,52
 171 361 171 361 171 317 c 0,53,54
 171 299 171 299 180 283 c 128,-1,55
 189 267 189 267 194 259 c 128,-1,56
 199 251 199 251 211 236 c 128,-1,57
 223 221 223 221 228.5 214.5 c 128,-1,58
 234 208 234 208 250 190 c 128,-1,59
 266 172 266 172 271 166 c 1,60,61
 323 200 323 200 323 239 c 128,-1,62
 323 278 323 278 246 366 c 0,49,50
EndSplineSet
EndChar

StartChar: dieresis
Encoding: 168 168 106
Width: 509
GlyphClass: 2
Flags: W
LayerCount: 2
Fore
SplineSet
106 557 m 128,-1,1
 90 575 90 575 90 605 c 128,-1,2
 90 635 90 635 112.5 656.5 c 128,-1,3
 135 678 135 678 164 678 c 0,4,5
 227 678 227 678 227 613 c 0,6,7
 227 584 227 584 204 561.5 c 128,-1,8
 181 539 181 539 151.5 539 c 128,-1,0
 122 539 122 539 106 557 c 128,-1,1
301.5 556.5 m 128,-1,10
 286 574 286 574 286 604.5 c 128,-1,11
 286 635 286 635 308.5 656.5 c 128,-1,12
 331 678 331 678 361 678 c 128,-1,13
 391 678 391 678 407 660.5 c 128,-1,14
 423 643 423 643 423 613.5 c 128,-1,15
 423 584 423 584 400 561.5 c 128,-1,16
 377 539 377 539 347 539 c 128,-1,9
 317 539 317 539 301.5 556.5 c 128,-1,10
EndSplineSet
EndChar

StartChar: copyright
Encoding: 169 169 107
Width: 793
GlyphClass: 2
Flags: W
LayerCount: 2
Fore
SplineSet
544 543 m 128,-1,1
 586 513 586 513 586 476.5 c 128,-1,2
 586 440 586 440 571 414 c 1,3,4
 545 414 545 414 512 422.5 c 128,-1,5
 479 431 479 431 463 443 c 1,6,-1
 470 513 l 1,7,8
 453 523 453 523 437 523 c 0,9,10
 394 523 394 523 367.5 472.5 c 128,-1,11
 341 422 341 422 341 328 c 0,12,13
 341 270 341 270 366 235 c 128,-1,14
 391 200 391 200 426 200 c 0,15,16
 478 200 478 200 530 245 c 1,17,-1
 554 213 l 1,18,19
 521 163 521 163 451 141 c 0,20,21
 423 132 423 132 392 132 c 0,22,23
 315 132 315 132 263.5 183 c 128,-1,24
 212 234 212 234 212 330.5 c 128,-1,25
 212 427 212 427 279.5 500 c 128,-1,26
 347 573 347 573 447 573 c 0,27,0
 502 573 502 573 544 543 c 128,-1,1
132 89.5 m 128,-1,29
 35 191 35 191 35 347 c 128,-1,30
 35 503 35 503 134 606.5 c 128,-1,31
 233 710 233 710 410.5 710 c 128,-1,32
 588 710 588 710 684.5 609 c 128,-1,33
 781 508 781 508 781 349.5 c 128,-1,34
 781 191 781 191 684 89.5 c 128,-1,35
 587 -12 587 -12 408 -12 c 128,-1,28
 229 -12 229 -12 132 89.5 c 128,-1,29
185 560 m 128,-1,37
 105 475 105 475 105 347.5 c 128,-1,38
 105 220 105 220 183 136.5 c 128,-1,39
 261 53 261 53 408 53 c 128,-1,40
 555 53 555 53 633 136.5 c 128,-1,41
 711 220 711 220 711 350 c 128,-1,42
 711 480 711 480 633 562.5 c 128,-1,43
 555 645 555 645 410 645 c 128,-1,36
 265 645 265 645 185 560 c 128,-1,37
EndSplineSet
EndChar

StartChar: ordfeminine
Encoding: 170 170 108
Width: 378
GlyphClass: 2
Flags: W
LayerCount: 2
Fore
SplineSet
191 321 m 128,-1,1
 162 306 162 306 132.5 306 c 128,-1,2
 103 306 103 306 78 335.5 c 128,-1,3
 53 365 53 365 53 432 c 0,4,5
 53 528 53 528 102.5 594 c 128,-1,6
 152 660 152 660 233 660 c 0,7,8
 264 660 264 660 364 632 c 1,9,10
 345 584 345 584 329.5 506.5 c 128,-1,11
 314 429 314 429 314 400 c 128,-1,12
 314 371 314 371 325 371 c 1,13,-1
 361 379 l 1,14,-1
 372 351 l 1,15,16
 317 305 317 305 277 305 c 0,17,18
 241 305 241 305 236 356 c 1,19,0
 220 336 220 336 191 321 c 128,-1,1
171 376 m 0,20,21
 200 376 200 376 232 410 c 1,22,23
 256 546 256 546 274 600 c 1,24,25
 261 607 261 607 233 607 c 128,-1,26
 205 607 205 607 182 578 c 1,27,28
 139 520 139 520 139 433 c 0,29,30
 139 376 139 376 171 376 c 0,20,21
EndSplineSet
EndChar

StartChar: guillemotleft
Encoding: 171 171 109
Width: 494
GlyphClass: 2
Flags: W
LayerCount: 2
Fore
SplineSet
234 492 m 1,0,-1
 272 460 l 1,1,2
 263 448 263 448 234 410 c 0,3,4
 184 343 184 343 160 301 c 1,5,6
 180 242 180 242 240 143 c 1,7,-1
 203 111 l 1,8,9
 168 135 168 135 107.5 201 c 128,-1,10
 47 267 47 267 47 296 c 1,11,12
 50 332 50 332 234 492 c 1,0,-1
430 492 m 1,13,-1
 468 460 l 1,14,15
 459 448 459 448 430 410 c 0,16,17
 380 343 380 343 356 301 c 1,18,19
 373 251 373 251 436 143 c 1,20,-1
 399 111 l 1,21,22
 364 135 364 135 303.5 201 c 128,-1,23
 243 267 243 267 243 296 c 1,24,25
 246 332 246 332 430 492 c 1,13,-1
EndSplineSet
EndChar

StartChar: logicalnot
Encoding: 172 172 110
Width: 503
GlyphClass: 2
Flags: W
LayerCount: 2
Fore
SplineSet
449 388 m 1,0,-1
 449 169 l 1,1,2
 423 156 423 156 358 156 c 1,3,-1
 358 302 l 1,4,-1
 49 302 l 1,5,6
 49 366 49 366 55 388 c 1,7,-1
 449 388 l 1,0,-1
EndSplineSet
EndChar

StartChar: uni00AD
Encoding: 173 173 111
Width: 518
GlyphClass: 2
Flags: W
LayerCount: 2
Fore
SplineSet
76 159 m 1,0,1
 76 221 76 221 86 249 c 1,2,-1
 456 249 l 1,3,4
 456 182 456 182 450 159 c 1,5,-1
 76 159 l 1,0,1
EndSplineSet
EndChar

StartChar: registered
Encoding: 174 174 112
Width: 796
GlyphClass: 2
Flags: W
LayerCount: 2
Fore
SplineSet
132 89.5 m 128,-1,1
 35 191 35 191 35 349.5 c 128,-1,2
 35 508 35 508 131.5 609 c 128,-1,3
 228 710 228 710 408 710 c 128,-1,4
 588 710 588 710 684.5 609 c 128,-1,5
 781 508 781 508 781 349.5 c 128,-1,6
 781 191 781 191 684 89.5 c 128,-1,7
 587 -12 587 -12 408 -12 c 128,-1,0
 229 -12 229 -12 132 89.5 c 128,-1,1
183 562.5 m 128,-1,9
 105 480 105 480 105 350 c 128,-1,10
 105 220 105 220 183 136.5 c 128,-1,11
 261 53 261 53 408 53 c 128,-1,12
 555 53 555 53 633 136.5 c 128,-1,13
 711 220 711 220 711 350 c 128,-1,14
 711 480 711 480 633 562.5 c 128,-1,15
 555 645 555 645 408 645 c 128,-1,8
 261 645 261 645 183 562.5 c 128,-1,9
232 149 m 0,16,17
 221 149 221 149 217 150 c 1,18,19
 221 186 221 186 251.5 319 c 128,-1,20
 282 452 282 452 282 487 c 0,21,22
 282 500 282 500 258 525 c 1,23,-1
 251 533 l 1,24,-1
 255 549 l 1,25,26
 350 569 350 569 451 569 c 0,27,28
 509 569 509 569 543 547 c 128,-1,29
 577 525 577 525 577 480 c 0,30,31
 577 387 577 387 483 354 c 1,32,33
 486 343 486 343 527 258 c 0,34,35
 548 213 548 213 567 213 c 1,36,-1
 601 221 l 1,37,-1
 614 194 l 1,38,39
 558 149 558 149 505.5 149 c 128,-1,40
 453 149 453 149 433 199.5 c 128,-1,41
 413 250 413 250 391 335 c 1,42,43
 383 334 383 334 366 334 c 1,44,45
 336 195 336 195 334 162 c 1,46,47
 308 149 308 149 232 149 c 0,16,17
394 383 m 2,48,49
 429 383 429 383 447 410.5 c 128,-1,50
 465 438 465 438 465 483.5 c 128,-1,51
 465 529 465 529 433 529 c 1,52,-1
 406 525 l 1,53,54
 392 455 392 455 376 383 c 1,55,-1
 394 383 l 2,48,49
EndSplineSet
EndChar

StartChar: macron
Encoding: 175 175 113
Width: 469
GlyphClass: 2
Flags: W
LayerCount: 2
Fore
SplineSet
138 576 m 1,0,1
 135 591 135 591 135 612 c 128,-1,2
 135 633 135 633 139 659 c 1,3,-1
 471 659 l 1,4,-1
 462 579 l 1,5,6
 398 583 398 583 295.5 583 c 128,-1,7
 193 583 193 583 138 576 c 1,0,1
EndSplineSet
EndChar

StartChar: degree
Encoding: 176 176 114
Width: 233
GlyphClass: 2
Flags: W
LayerCount: 2
Fore
SplineSet
268.5 690.5 m 128,-1,1
 300 667 300 667 300 617.5 c 128,-1,2
 300 568 300 568 263 524.5 c 128,-1,3
 226 481 226 481 156 481 c 0,4,5
 106 481 106 481 73 506 c 128,-1,6
 40 531 40 531 40 584.5 c 128,-1,7
 40 638 40 638 78.5 676 c 128,-1,8
 117 714 117 714 177 714 c 128,-1,0
 237 714 237 714 268.5 690.5 c 128,-1,1
160 530 m 0,9,10
 193 530 193 530 206 557 c 128,-1,11
 219 584 219 584 219 619 c 0,12,13
 219 665 219 665 180 665 c 0,14,15
 148 665 148 665 134 639 c 128,-1,16
 120 613 120 613 120 576 c 0,17,18
 120 530 120 530 160 530 c 0,9,10
EndSplineSet
EndChar

StartChar: plusminus
Encoding: 177 177 115
Width: 545
GlyphClass: 2
Flags: W
LayerCount: 2
Fore
SplineSet
310 308 m 1,0,-1
 310 166 l 1,1,2
 290 157 290 157 227 157 c 2,3,-1
 218 157 l 1,4,-1
 218 308 l 1,5,-1
 79 308 l 1,6,7
 79 369 79 369 83 398 c 1,8,-1
 218 398 l 1,9,-1
 218 536 l 1,10,11
 250 544 250 544 309 544 c 1,12,-1
 309 398 l 1,13,-1
 457 398 l 1,14,15
 457 316 457 316 454 308 c 1,16,-1
 310 308 l 1,0,-1
79 12 m 1,17,18
 79 78 79 78 90 102 c 1,19,-1
 458 102 l 1,20,21
 458 32 458 32 454 12 c 1,22,-1
 79 12 l 1,17,18
EndSplineSet
EndChar

StartChar: twosuperior
Encoding: 178 178 116
Width: 363
GlyphClass: 2
Flags: W
LayerCount: 2
Fore
SplineSet
339 369 m 0,0,1
 323 351 323 351 301.5 351 c 128,-1,2
 280 351 280 351 250.5 361.5 c 128,-1,3
 221 372 221 372 192 385 c 128,-1,4
 163 398 163 398 156 400 c 1,5,6
 134 382 134 382 112 371.5 c 128,-1,7
 90 361 90 361 82 361 c 128,-1,8
 74 361 74 361 59.5 380.5 c 128,-1,9
 45 400 45 400 45 409.5 c 128,-1,10
 45 419 45 419 67 438 c 128,-1,11
 89 457 89 457 112 457 c 0,12,13
 118 457 118 457 136 455 c 1,14,15
 174 480 174 480 207.5 530 c 128,-1,16
 241 580 241 580 241 627 c 128,-1,17
 241 674 241 674 205 674 c 0,18,19
 188 674 188 674 168 660.5 c 128,-1,20
 148 647 148 647 134 625 c 1,21,-1
 100 644 l 1,22,23
 159 734 159 734 248 734 c 0,24,25
 299 734 299 734 327 710 c 128,-1,26
 355 686 355 686 355 638 c 128,-1,27
 355 590 355 590 308.5 536 c 128,-1,28
 262 482 262 482 205 444 c 1,29,30
 273 428 273 428 296.5 428 c 128,-1,31
 320 428 320 428 327 434 c 1,32,-1
 343 459 l 1,33,-1
 364 453 l 1,34,35
 364 397 364 397 339 369 c 0,0,1
EndSplineSet
EndChar

StartChar: threesuperior
Encoding: 179 179 117
Width: 319
GlyphClass: 2
Flags: W
LayerCount: 2
Fore
SplineSet
139 713.5 m 128,-1,1
 174 734 174 734 223 734 c 128,-1,2
 272 734 272 734 301 712.5 c 128,-1,3
 330 691 330 691 330 659 c 128,-1,4
 330 627 330 627 304 602.5 c 128,-1,5
 278 578 278 578 235 567 c 1,6,7
 334 555 334 555 334 473 c 0,8,9
 334 423 334 423 296 385.5 c 128,-1,10
 258 348 258 348 194 348 c 128,-1,11
 130 348 130 348 88 369 c 128,-1,12
 46 390 46 390 46 427 c 0,13,14
 46 452 46 452 60 469 c 1,15,16
 66 470 66 470 80 470 c 0,17,18
 114 470 114 470 136 446 c 1,19,-1
 130 398 l 1,20,21
 138 391 138 391 152 391 c 0,22,23
 181 391 181 391 200.5 415 c 128,-1,24
 220 439 220 439 220 476 c 128,-1,25
 220 513 220 513 199.5 525 c 128,-1,26
 179 537 179 537 136 537 c 1,27,-1
 134 570 l 1,28,29
 147 570 147 570 163 574 c 0,30,31
 221 587 221 587 221 638 c 0,32,33
 221 680 221 680 183 680 c 128,-1,34
 145 680 145 680 113 642 c 1,35,-1
 85 664 l 1,36,0
 104 693 104 693 139 713.5 c 128,-1,1
EndSplineSet
EndChar

StartChar: acute
Encoding: 180 180 118
Width: 607
GlyphClass: 2
Flags: W
LayerCount: 2
Fore
SplineSet
447 616 m 0,0,1
 447 588 447 588 411 571 c 0,2,3
 362 548 362 548 166 503 c 1,4,-1
 148 543 l 1,5,6
 242 592 242 592 318 643 c 128,-1,7
 394 694 394 694 412 705 c 1,8,9
 422 691 422 691 434.5 661 c 128,-1,10
 447 631 447 631 447 616 c 0,0,1
EndSplineSet
EndChar

StartChar: mu
Encoding: 181 181 119
AltUni2: 0003bc.ffffffff.0
Width: 503
GlyphClass: 2
Flags: W
LayerCount: 2
Fore
SplineSet
70 219 m 0,0,1
 94 312 94 312 94 342 c 128,-1,2
 94 372 94 372 58 411 c 1,3,-1
 59 424 l 1,4,5
 114 439 114 439 240 439 c 1,6,7
 243 432 243 432 243 414 c 0,8,9
 243 354 243 354 215 244.5 c 128,-1,10
 187 135 187 135 187 108 c 128,-1,11
 187 81 187 81 207 81 c 0,12,13
 236 81 236 81 274 102 c 1,14,15
 278 126 278 126 294 194 c 0,16,17
 330 354 330 354 330 423 c 1,18,19
 365 437 365 437 456 437 c 2,20,-1
 475 437 l 1,21,22
 475 390 475 390 447 253.5 c 128,-1,23
 419 117 419 117 419 93.5 c 128,-1,24
 419 70 419 70 429 70 c 0,25,26
 435 70 435 70 486 94 c 1,27,-1
 505 62 l 1,28,29
 416 -12 416 -12 349 -12 c 0,30,31
 317 -12 317 -12 294.5 6 c 128,-1,32
 272 24 272 24 269 53 c 1,33,34
 188 -10 188 -10 129 -13 c 1,35,36
 125 -53 125 -53 125 -100.5 c 128,-1,37
 125 -148 125 -148 140 -198 c 1,38,39
 97 -215 97 -215 34 -221 c 2,40,-1
 4 -224 l 1,41,42
 1 -198 1 -198 1 -172 c 0,43,44
 1 -56 1 -56 70 219 c 0,0,1
EndSplineSet
EndChar

StartChar: paragraph
Encoding: 182 182 120
Width: 581
GlyphClass: 2
Flags: W
LayerCount: 2
Fore
SplineSet
357 698 m 2,0,-1
 576 699 l 1,1,2
 582 672 582 672 582 619.5 c 128,-1,3
 582 567 582 567 562.5 476.5 c 128,-1,4
 543 386 543 386 519 304 c 128,-1,5
 495 222 495 222 472 104.5 c 128,-1,6
 449 -13 449 -13 443 -120 c 1,7,8
 406 -140 406 -140 357 -140 c 2,9,-1
 347 -140 l 1,10,11
 349 -58 349 -58 416.5 232.5 c 128,-1,12
 484 523 484 523 490 629 c 1,13,14
 436 629 436 629 423 621 c 1,15,16
 417 512 417 512 343.5 226 c 128,-1,17
 270 -60 270 -60 263 -145 c 1,18,19
 226 -165 226 -165 177 -165 c 2,20,-1
 167 -165 l 1,21,22
 171 -89 171 -89 226 161 c 1,23,-1
 217 161 l 2,24,25
 143 161 143 161 100 214 c 128,-1,26
 57 267 57 267 57 364 c 0,27,28
 57 508 57 508 138 603 c 128,-1,29
 219 698 219 698 357 698 c 2,0,-1
EndSplineSet
EndChar

StartChar: periodcentered
Encoding: 183 183 121
Width: 289
GlyphClass: 2
Flags: W
LayerCount: 2
Fore
SplineSet
93.5 276.5 m 128,-1,1
 74 297 74 297 74 328.5 c 128,-1,2
 74 360 74 360 96 382.5 c 128,-1,3
 118 405 118 405 151 405 c 128,-1,4
 184 405 184 405 203.5 385 c 128,-1,5
 223 365 223 365 223 333.5 c 128,-1,6
 223 302 223 302 200 279 c 128,-1,7
 177 256 177 256 145 256 c 128,-1,0
 113 256 113 256 93.5 276.5 c 128,-1,1
EndSplineSet
EndChar

StartChar: cedilla
Encoding: 184 184 122
Width: 495
GlyphClass: 2
Flags: W
LayerCount: 2
Fore
SplineSet
226 -94 m 0,0,1
 226 -118 226 -118 250 -118 c 128,-1,2
 274 -118 274 -118 307 -102 c 1,3,-1
 318 -96 l 1,4,-1
 336 -130 l 1,5,6
 329 -137 329 -137 317 -147.5 c 128,-1,7
 305 -158 305 -158 269 -176 c 128,-1,8
 233 -194 233 -194 202 -194 c 128,-1,9
 171 -194 171 -194 152 -175.5 c 128,-1,10
 133 -157 133 -157 133 -126.5 c 128,-1,11
 133 -96 133 -96 162.5 -58 c 128,-1,12
 192 -20 192 -20 223 0 c 1,13,-1
 287 -1 l 1,14,15
 261 -21 261 -21 243.5 -47.5 c 128,-1,16
 226 -74 226 -74 226 -94 c 0,0,1
EndSplineSet
EndChar

StartChar: onesuperior
Encoding: 185 185 123
Width: 277
GlyphClass: 2
Flags: W
LayerCount: 2
Fore
SplineSet
271 733 m 1,0,1
 277 723 277 723 277 699 c 128,-1,2
 277 675 277 675 246 541 c 128,-1,3
 215 407 215 407 213 365 c 1,4,5
 188 354 188 354 111 354 c 2,6,-1
 104 354 l 1,7,8
 106 379 106 379 136 511.5 c 128,-1,9
 166 644 166 644 166 665 c 1,10,-1
 164 677 l 1,11,12
 150 670 150 670 130.5 654.5 c 128,-1,13
 111 639 111 639 101 632 c 1,14,-1
 73 668 l 1,15,-1
 150 725 l 1,16,17
 189 731 189 731 271 733 c 1,0,1
EndSplineSet
EndChar

StartChar: ordmasculine
Encoding: 186 186 124
Width: 318
GlyphClass: 2
Flags: W
LayerCount: 2
Fore
SplineSet
324 627 m 128,-1,1
 357 594 357 594 357 537.5 c 128,-1,2
 357 481 357 481 338 431.5 c 128,-1,3
 319 382 319 382 273.5 344 c 128,-1,4
 228 306 228 306 165 306 c 0,5,6
 47 306 47 306 47 439 c 0,7,8
 47 532 47 532 99.5 596 c 128,-1,9
 152 660 152 660 234 660 c 0,10,0
 291 660 291 660 324 627 c 128,-1,1
161 551.5 m 128,-1,12
 135 494 135 494 135 425.5 c 128,-1,13
 135 357 135 357 176.5 357 c 128,-1,14
 218 357 218 357 243.5 417.5 c 128,-1,15
 269 478 269 478 269 543.5 c 128,-1,16
 269 609 269 609 228 609 c 128,-1,11
 187 609 187 609 161 551.5 c 128,-1,12
EndSplineSet
EndChar

StartChar: guillemotright
Encoding: 187 187 125
Width: 524
GlyphClass: 2
Flags: W
LayerCount: 2
Fore
SplineSet
291 111 m 1,0,-1
 253 143 l 1,1,2
 262 155 262 155 291 194 c 0,3,4
 341 260 341 260 365 302 c 1,5,6
 345 361 345 361 285 460 c 1,7,-1
 322 492 l 1,8,9
 357 468 357 468 417.5 402 c 128,-1,10
 478 336 478 336 478 307 c 1,11,12
 475 271 475 271 291 111 c 1,0,-1
95 111 m 1,13,-1
 57 143 l 1,14,15
 66 155 66 155 95 194 c 0,16,17
 145 260 145 260 169 302 c 1,18,19
 152 352 152 352 89 460 c 1,20,-1
 126 492 l 1,21,22
 161 468 161 468 221.5 402 c 128,-1,23
 282 336 282 336 282 307 c 1,24,25
 279 271 279 271 95 111 c 1,13,-1
EndSplineSet
EndChar

StartChar: onequarter
Encoding: 188 188 126
Width: 733
GlyphClass: 2
Flags: W
LayerCount: 2
Fore
SplineSet
609 701 m 1,0,1
 537 537 537 537 407 349 c 0,2,3
 360 281 360 281 309 184.5 c 128,-1,4
 258 88 258 88 225 -11 c 1,5,6
 208 -10 208 -10 182 0 c 0,7,8
 154 10 154 10 134 27 c 1,9,10
 164 113 164 113 216 207.5 c 128,-1,11
 268 302 268 302 315.5 373.5 c 128,-1,12
 363 445 363 445 418 544 c 128,-1,13
 473 643 473 643 508 734 c 1,14,15
 583 719 583 719 609 701 c 1,0,1
664 68 m 0,16,17
 650 68 650 68 634 71 c 1,18,19
 627 27 627 27 627 11 c 1,20,21
 604 0 604 0 532 0 c 2,22,-1
 528 0 l 1,23,24
 528 14 528 14 534.5 42 c 128,-1,25
 541 70 541 70 544 85 c 1,26,27
 514 89 514 89 479 89 c 128,-1,28
 444 89 444 89 398 76 c 1,29,30
 392 76 392 76 381.5 87.5 c 128,-1,31
 371 99 371 99 371 105 c 128,-1,32
 371 111 371 111 379 122 c 0,33,34
 481 257 481 257 487 267 c 0,35,36
 510 304 510 304 558 370 c 1,37,38
 599 378 599 378 671 380 c 1,39,40
 678 367 678 367 678 339.5 c 128,-1,41
 678 312 678 312 644 142 c 1,42,43
 655 141 655 141 670.5 141 c 128,-1,44
 686 141 686 141 691 149 c 2,45,-1
 699 162 l 1,46,-1
 723 157 l 1,47,48
 711 68 711 68 664 68 c 0,16,17
554 152 m 1,49,50
 588 303 588 303 588 326 c 1,51,52
 532 253 532 253 476 158 c 1,53,54
 481 158 481 158 554 152 c 1,49,50
268 733 m 1,55,56
 274 723 274 723 274 699 c 128,-1,57
 274 675 274 675 243 541 c 128,-1,58
 212 407 212 407 210 365 c 1,59,60
 185 354 185 354 108 354 c 2,61,-1
 101 354 l 1,62,63
 103 379 103 379 133 511.5 c 128,-1,64
 163 644 163 644 163 665 c 1,65,-1
 161 677 l 1,66,67
 147 670 147 670 127.5 654.5 c 128,-1,68
 108 639 108 639 98 632 c 1,69,-1
 70 668 l 1,70,-1
 147 725 l 1,71,72
 186 731 186 731 268 733 c 1,55,56
EndSplineSet
EndChar

StartChar: onehalf
Encoding: 189 189 127
Width: 735
GlyphClass: 2
Flags: W
LayerCount: 2
Fore
SplineSet
609 701 m 1,0,1
 537 537 537 537 407 349 c 0,2,3
 360 281 360 281 309 184.5 c 128,-1,4
 258 88 258 88 225 -11 c 1,5,6
 208 -10 208 -10 182 0 c 0,7,8
 154 10 154 10 134 27 c 1,9,10
 164 113 164 113 216 207.5 c 128,-1,11
 268 302 268 302 315.5 373.5 c 128,-1,12
 363 445 363 445 418 544 c 128,-1,13
 473 643 473 643 508 734 c 1,14,15
 583 719 583 719 609 701 c 1,0,1
683 -4 m 0,16,17
 667 -22 667 -22 645.5 -22 c 128,-1,18
 624 -22 624 -22 594.5 -11.5 c 128,-1,19
 565 -1 565 -1 536 12 c 128,-1,20
 507 25 507 25 500 27 c 1,21,22
 478 9 478 9 456 -1.5 c 128,-1,23
 434 -12 434 -12 426 -12 c 128,-1,24
 418 -12 418 -12 403.5 7.5 c 128,-1,25
 389 27 389 27 389 36.5 c 128,-1,26
 389 46 389 46 411 65 c 128,-1,27
 433 84 433 84 456 84 c 0,28,29
 462 84 462 84 480 82 c 1,30,31
 518 107 518 107 551.5 157 c 128,-1,32
 585 207 585 207 585 254 c 128,-1,33
 585 301 585 301 549 301 c 0,34,35
 532 301 532 301 512 287.5 c 128,-1,36
 492 274 492 274 478 252 c 1,37,-1
 444 271 l 1,38,39
 503 361 503 361 592 361 c 0,40,41
 643 361 643 361 671 337 c 128,-1,42
 699 313 699 313 699 265 c 128,-1,43
 699 217 699 217 652.5 163 c 128,-1,44
 606 109 606 109 549 71 c 1,45,46
 617 55 617 55 640.5 55 c 128,-1,47
 664 55 664 55 671 61 c 1,48,-1
 687 86 l 1,49,-1
 708 80 l 1,50,51
 708 24 708 24 683 -4 c 0,16,17
268 733 m 1,52,53
 274 723 274 723 274 699 c 128,-1,54
 274 675 274 675 243 541 c 128,-1,55
 212 407 212 407 210 365 c 1,56,57
 185 354 185 354 108 354 c 2,58,-1
 101 354 l 1,59,60
 103 379 103 379 133 511.5 c 128,-1,61
 163 644 163 644 163 665 c 1,62,-1
 161 677 l 1,63,64
 147 670 147 670 127.5 654.5 c 128,-1,65
 108 639 108 639 98 632 c 1,66,-1
 70 668 l 1,67,-1
 147 725 l 1,68,69
 186 731 186 731 268 733 c 1,52,53
EndSplineSet
EndChar

StartChar: threequarters
Encoding: 190 190 128
Width: 797
GlyphClass: 2
Flags: W
LayerCount: 2
Fore
SplineSet
670 701 m 1,0,1
 598 537 598 537 468 349 c 0,2,3
 421 281 421 281 370 184.5 c 128,-1,4
 319 88 319 88 286 -11 c 1,5,6
 269 -10 269 -10 242 0 c 256,7,8
 215 10 215 10 195 27 c 1,9,10
 225 113 225 113 277 207.5 c 128,-1,11
 329 302 329 302 376.5 373.5 c 128,-1,12
 424 445 424 445 479 544 c 128,-1,13
 534 643 534 643 569 734 c 1,14,15
 644 719 644 719 670 701 c 1,0,1
728 68 m 0,16,17
 714 68 714 68 698 71 c 1,18,19
 691 27 691 27 691 11 c 1,20,21
 668 0 668 0 596 0 c 2,22,-1
 592 0 l 1,23,24
 592 14 592 14 598.5 42 c 128,-1,25
 605 70 605 70 608 85 c 1,26,27
 578 89 578 89 543 89 c 128,-1,28
 508 89 508 89 462 76 c 1,29,30
 456 76 456 76 445.5 87.5 c 128,-1,31
 435 99 435 99 435 105 c 128,-1,32
 435 111 435 111 443 122 c 0,33,34
 545 257 545 257 551 267 c 0,35,36
 574 304 574 304 622 370 c 1,37,38
 663 378 663 378 735 380 c 1,39,40
 742 370 742 370 742 341 c 128,-1,41
 742 312 742 312 708 142 c 1,42,43
 719 141 719 141 734.5 141 c 128,-1,44
 750 141 750 141 755 149 c 2,45,-1
 763 162 l 1,46,-1
 787 157 l 1,47,48
 775 68 775 68 728 68 c 0,16,17
618 152 m 1,49,50
 652 303 652 303 652 326 c 1,51,52
 596 253 596 253 540 158 c 1,53,54
 545 158 545 158 618 152 c 1,49,50
123 713.5 m 128,-1,56
 158 734 158 734 207 734 c 128,-1,57
 256 734 256 734 285 712.5 c 128,-1,58
 314 691 314 691 314 659 c 128,-1,59
 314 627 314 627 288 602.5 c 128,-1,60
 262 578 262 578 219 567 c 1,61,62
 318 555 318 555 318 473 c 0,63,64
 318 423 318 423 280 385.5 c 128,-1,65
 242 348 242 348 178 348 c 128,-1,66
 114 348 114 348 72 369 c 128,-1,67
 30 390 30 390 30 427 c 0,68,69
 30 452 30 452 44 469 c 1,70,71
 50 470 50 470 64 470 c 0,72,73
 98 470 98 470 120 446 c 1,74,-1
 114 398 l 1,75,76
 122 391 122 391 136 391 c 0,77,78
 165 391 165 391 184.5 415 c 128,-1,79
 204 439 204 439 204 476 c 128,-1,80
 204 513 204 513 183.5 525 c 128,-1,81
 163 537 163 537 120 537 c 1,82,-1
 118 570 l 1,83,84
 131 570 131 570 147 574 c 0,85,86
 205 587 205 587 205 638 c 0,87,88
 205 680 205 680 167 680 c 128,-1,89
 129 680 129 680 97 642 c 1,90,-1
 69 664 l 1,91,55
 88 693 88 693 123 713.5 c 128,-1,56
EndSplineSet
EndChar

StartChar: questiondown
Encoding: 191 191 129
Width: 343
GlyphClass: 2
Flags: W
LayerCount: 2
Fore
SplineSet
140 146 m 0,0,1
 140 156 140 156 123.5 166 c 128,-1,2
 107 176 107 176 88 176 c 1,3,4
 100 225 100 225 106 225 c 0,5,6
 178 225 178 225 224.5 194.5 c 128,-1,7
 271 164 271 164 271 108 c 0,8,9
 271 76 271 76 246.5 36 c 128,-1,10
 222 -4 222 -4 192.5 -35.5 c 128,-1,11
 163 -67 163 -67 138.5 -110.5 c 128,-1,12
 114 -154 114 -154 114 -190.5 c 128,-1,13
 114 -227 114 -227 143 -227 c 1,14,15
 172 -158 172 -158 226 -109 c 1,16,17
 250 -116 250 -116 290.5 -149 c 128,-1,18
 331 -182 331 -182 331 -196 c 0,19,20
 331 -218 331 -218 286.5 -248.5 c 128,-1,21
 242 -279 242 -279 186 -279 c 0,22,23
 99 -279 99 -279 42.5 -231 c 128,-1,24
 -14 -183 -14 -183 -14 -111 c 0,25,26
 -14 -78 -14 -78 3 -43 c 128,-1,27
 20 -8 20 -8 34.5 10 c 128,-1,28
 49 28 49 28 77 59 c 0,29,30
 140 126 140 126 140 146 c 0,0,1
277 422 m 128,-1,32
 296 401 296 401 296 366 c 128,-1,33
 296 331 296 331 270 305.5 c 128,-1,34
 244 280 244 280 208.5 280 c 128,-1,35
 173 280 173 280 154 300.5 c 128,-1,36
 135 321 135 321 135 355.5 c 128,-1,37
 135 390 135 390 161.5 416.5 c 128,-1,38
 188 443 188 443 223 443 c 128,-1,31
 258 443 258 443 277 422 c 128,-1,32
EndSplineSet
EndChar

StartChar: Agrave
Encoding: 192 192 130
Width: 576
GlyphClass: 2
Flags: W
LayerCount: 2
Fore
SplineSet
60 13 m 0,0,1
 53 -9 53 -9 28.5 -9 c 128,-1,2
 4 -9 4 -9 -27 18 c 1,3,4
 3 106 3 106 100 301.5 c 128,-1,5
 197 497 197 497 226 594 c 0,6,7
 230 610 230 610 230 616 c 0,8,9
 230 631 230 631 208 662 c 2,10,-1
 200 673 l 1,11,-1
 202 686 l 1,12,13
 287 710 287 710 390 710 c 1,14,-1
 451 706 l 1,15,16
 462 691 462 691 468 660 c 0,17,18
 484 584 484 584 484 269 c 0,19,20
 484 147 484 147 505 97 c 0,21,22
 513 78 513 78 521 78 c 128,-1,23
 529 78 529 78 570 98 c 2,24,-1
 583 104 l 1,25,-1
 603 68 l 1,26,27
 565 31 565 31 518.5 9.5 c 128,-1,28
 472 -12 472 -12 433 -12 c 0,29,30
 332 -12 332 -12 332 145 c 2,31,-1
 332 224 l 1,32,33
 306 230 306 230 253 230 c 128,-1,34
 200 230 200 230 137 220 c 1,35,36
 87 104 87 104 60 13 c 0,0,1
334 292 m 1,37,-1
 335 408 l 1,38,39
 335 560 335 560 322 614 c 1,40,41
 314 614 314 614 310 612 c 1,42,43
 282 535 282 535 257.5 481.5 c 128,-1,44
 233 428 233 428 204.5 367.5 c 128,-1,45
 176 307 176 307 169 292 c 1,46,-1
 334 292 l 1,37,-1
239 915 m 0,47,48
 279 915 279 915 498 783 c 1,49,-1
 481 736 l 1,50,51
 386 764 386 764 175 819 c 1,52,53
 201 915 201 915 239 915 c 0,47,48
EndSplineSet
EndChar

StartChar: Aacute
Encoding: 193 193 131
Width: 576
GlyphClass: 2
Flags: W
LayerCount: 2
Fore
SplineSet
60 13 m 0,0,1
 53 -9 53 -9 28.5 -9 c 128,-1,2
 4 -9 4 -9 -27 18 c 1,3,4
 3 106 3 106 100 301.5 c 128,-1,5
 197 497 197 497 226 594 c 0,6,7
 230 610 230 610 230 616 c 0,8,9
 230 631 230 631 208 662 c 2,10,-1
 200 673 l 1,11,-1
 202 686 l 1,12,13
 287 710 287 710 390 710 c 1,14,-1
 451 706 l 1,15,16
 462 691 462 691 468 660 c 0,17,18
 484 584 484 584 484 269 c 0,19,20
 484 147 484 147 505 97 c 0,21,22
 513 78 513 78 521 78 c 128,-1,23
 529 78 529 78 570 98 c 2,24,-1
 583 104 l 1,25,-1
 603 68 l 1,26,27
 565 31 565 31 518.5 9.5 c 128,-1,28
 472 -12 472 -12 433 -12 c 0,29,30
 332 -12 332 -12 332 145 c 2,31,-1
 332 224 l 1,32,33
 306 230 306 230 253 230 c 128,-1,34
 200 230 200 230 137 220 c 1,35,36
 87 104 87 104 60 13 c 0,0,1
334 292 m 1,37,-1
 335 408 l 1,38,39
 335 560 335 560 322 614 c 1,40,41
 314 614 314 614 310 612 c 1,42,43
 282 535 282 535 257.5 481.5 c 128,-1,44
 233 428 233 428 204.5 367.5 c 128,-1,45
 176 307 176 307 169 292 c 1,46,-1
 334 292 l 1,37,-1
539 846 m 0,47,48
 539 818 539 818 502 802 c 1,49,50
 411 776 411 776 240 750 c 1,51,-1
 219 796 l 1,52,53
 429 891 429 891 502 931 c 1,54,55
 513 915 513 915 526 885.5 c 128,-1,56
 539 856 539 856 539 846 c 0,47,48
EndSplineSet
EndChar

StartChar: Acircumflex
Encoding: 194 194 132
Width: 576
GlyphClass: 2
Flags: W
LayerCount: 2
Fore
SplineSet
60 13 m 0,0,1
 53 -9 53 -9 28.5 -9 c 128,-1,2
 4 -9 4 -9 -27 18 c 1,3,4
 3 106 3 106 100 301.5 c 128,-1,5
 197 497 197 497 226 594 c 0,6,7
 230 610 230 610 230 616 c 0,8,9
 230 631 230 631 208 662 c 2,10,-1
 200 673 l 1,11,-1
 202 686 l 1,12,13
 287 710 287 710 390 710 c 1,14,-1
 451 706 l 1,15,16
 462 691 462 691 468 660 c 0,17,18
 484 584 484 584 484 269 c 0,19,20
 484 147 484 147 505 97 c 0,21,22
 513 78 513 78 521 78 c 128,-1,23
 529 78 529 78 570 98 c 2,24,-1
 583 104 l 1,25,-1
 603 68 l 1,26,27
 565 31 565 31 518.5 9.5 c 128,-1,28
 472 -12 472 -12 433 -12 c 0,29,30
 332 -12 332 -12 332 145 c 2,31,-1
 332 224 l 1,32,33
 306 230 306 230 253 230 c 128,-1,34
 200 230 200 230 137 220 c 1,35,36
 87 104 87 104 60 13 c 0,0,1
334 292 m 1,37,-1
 335 408 l 1,38,39
 335 560 335 560 322 614 c 1,40,41
 314 614 314 614 310 612 c 1,42,43
 282 535 282 535 257.5 481.5 c 128,-1,44
 233 428 233 428 204.5 367.5 c 128,-1,45
 176 307 176 307 169 292 c 1,46,-1
 334 292 l 1,37,-1
294 869 m 128,-1,48
 384 919 384 919 410.5 919 c 128,-1,49
 437 919 437 919 481 867.5 c 128,-1,50
 525 816 525 816 552 775 c 1,51,-1
 518 743 l 1,52,53
 411 797 411 797 379 804 c 1,54,55
 328 795 328 795 258.5 768.5 c 128,-1,56
 189 742 189 742 180 739 c 1,57,-1
 153 776 l 1,58,47
 204 819 204 819 294 869 c 128,-1,48
EndSplineSet
EndChar

StartChar: Atilde
Encoding: 195 195 133
Width: 576
GlyphClass: 2
Flags: W
LayerCount: 2
Fore
SplineSet
60 13 m 0,0,1
 53 -9 53 -9 28.5 -9 c 128,-1,2
 4 -9 4 -9 -27 18 c 1,3,4
 3 106 3 106 100 301.5 c 128,-1,5
 197 497 197 497 226 594 c 0,6,7
 230 610 230 610 230 616 c 0,8,9
 230 631 230 631 208 662 c 2,10,-1
 200 673 l 1,11,-1
 202 686 l 1,12,13
 287 710 287 710 390 710 c 1,14,-1
 451 706 l 1,15,16
 462 691 462 691 468 660 c 0,17,18
 484 584 484 584 484 269 c 0,19,20
 484 147 484 147 505 97 c 0,21,22
 513 78 513 78 521 78 c 128,-1,23
 529 78 529 78 570 98 c 2,24,-1
 583 104 l 1,25,-1
 603 68 l 1,26,27
 565 31 565 31 518.5 9.5 c 128,-1,28
 472 -12 472 -12 433 -12 c 0,29,30
 332 -12 332 -12 332 145 c 2,31,-1
 332 224 l 1,32,33
 306 230 306 230 253 230 c 128,-1,34
 200 230 200 230 137 220 c 1,35,36
 87 104 87 104 60 13 c 0,0,1
334 292 m 1,37,-1
 335 408 l 1,38,39
 335 560 335 560 322 614 c 1,40,41
 314 614 314 614 310 612 c 1,42,43
 282 535 282 535 257.5 481.5 c 128,-1,44
 233 428 233 428 204.5 367.5 c 128,-1,45
 176 307 176 307 169 292 c 1,46,-1
 334 292 l 1,37,-1
168 765 m 1,47,48
 182 901 182 901 270 901 c 0,49,50
 304 901 304 901 374.5 883 c 128,-1,51
 445 865 445 865 467.5 865 c 128,-1,52
 490 865 490 865 499 866 c 0,53,54
 519 870 519 870 535 898 c 1,55,-1
 567 892 l 1,56,57
 563 851 563 851 550 819 c 1,58,59
 530 763 530 763 464 763 c 0,60,61
 441 763 441 763 373.5 780.5 c 128,-1,62
 306 798 306 798 274.5 798 c 128,-1,63
 243 798 243 798 229 790.5 c 128,-1,64
 215 783 215 783 201 758 c 1,65,-1
 168 765 l 1,47,48
EndSplineSet
EndChar

StartChar: Adieresis
Encoding: 196 196 134
Width: 576
GlyphClass: 2
Flags: W
LayerCount: 2
Fore
SplineSet
60 13 m 0,0,1
 53 -9 53 -9 28.5 -9 c 128,-1,2
 4 -9 4 -9 -27 18 c 1,3,4
 3 106 3 106 100 301.5 c 128,-1,5
 197 497 197 497 226 594 c 0,6,7
 230 610 230 610 230 616 c 0,8,9
 230 631 230 631 208 662 c 2,10,-1
 200 673 l 1,11,-1
 202 686 l 1,12,13
 287 710 287 710 390 710 c 1,14,-1
 451 706 l 1,15,16
 462 691 462 691 468 660 c 0,17,18
 484 584 484 584 484 269 c 0,19,20
 484 147 484 147 505 97 c 0,21,22
 513 78 513 78 521 78 c 128,-1,23
 529 78 529 78 570 98 c 2,24,-1
 583 104 l 1,25,-1
 603 68 l 1,26,27
 565 31 565 31 518.5 9.5 c 128,-1,28
 472 -12 472 -12 433 -12 c 0,29,30
 332 -12 332 -12 332 145 c 2,31,-1
 332 224 l 1,32,33
 306 230 306 230 253 230 c 128,-1,34
 200 230 200 230 137 220 c 1,35,36
 87 104 87 104 60 13 c 0,0,1
334 292 m 1,37,-1
 335 408 l 1,38,39
 335 560 335 560 322 614 c 1,40,41
 314 614 314 614 310 612 c 1,42,43
 282 535 282 535 257.5 481.5 c 128,-1,44
 233 428 233 428 204.5 367.5 c 128,-1,45
 176 307 176 307 169 292 c 1,46,-1
 334 292 l 1,37,-1
213.5 782 m 128,-1,48
 197 799 197 799 197 828.5 c 128,-1,49
 197 858 197 858 220 878.5 c 128,-1,50
 243 899 243 899 274 899 c 0,51,52
 339 899 339 899 339 836 c 0,53,54
 339 808 339 808 315.5 786.5 c 128,-1,55
 292 765 292 765 261 765 c 128,-1,47
 230 765 230 765 213.5 782 c 128,-1,48
419 782 m 128,-1,57
 403 799 403 799 403 828.5 c 128,-1,58
 403 858 403 858 425.5 878.5 c 128,-1,59
 448 899 448 899 479 899 c 0,60,61
 545 899 545 899 545 836 c 0,62,63
 545 808 545 808 521 786.5 c 128,-1,64
 497 765 497 765 466 765 c 128,-1,56
 435 765 435 765 419 782 c 128,-1,57
EndSplineSet
EndChar

StartChar: Aring
Encoding: 197 197 135
Width: 576
GlyphClass: 2
Flags: W
LayerCount: 2
Fore
SplineSet
60 13 m 0,0,1
 53 -9 53 -9 28.5 -9 c 128,-1,2
 4 -9 4 -9 -27 18 c 1,3,4
 3 106 3 106 100 301.5 c 128,-1,5
 197 497 197 497 226 594 c 0,6,7
 230 610 230 610 230 616 c 0,8,9
 230 631 230 631 208 662 c 2,10,-1
 200 673 l 1,11,-1
 202 686 l 1,12,13
 287 710 287 710 390 710 c 1,14,-1
 451 706 l 1,15,16
 462 691 462 691 468 660 c 0,17,18
 484 584 484 584 484 269 c 0,19,20
 484 147 484 147 505 97 c 0,21,22
 513 78 513 78 521 78 c 128,-1,23
 529 78 529 78 570 98 c 2,24,-1
 583 104 l 1,25,-1
 603 68 l 1,26,27
 565 31 565 31 518.5 9.5 c 128,-1,28
 472 -12 472 -12 433 -12 c 0,29,30
 332 -12 332 -12 332 145 c 2,31,-1
 332 224 l 1,32,33
 306 230 306 230 253 230 c 128,-1,34
 200 230 200 230 137 220 c 1,35,36
 87 104 87 104 60 13 c 0,0,1
334 292 m 1,37,-1
 335 408 l 1,38,39
 335 560 335 560 322 614 c 1,40,41
 314 614 314 614 310 612 c 1,42,43
 282 535 282 535 257.5 481.5 c 128,-1,44
 233 428 233 428 204.5 367.5 c 128,-1,45
 176 307 176 307 169 292 c 1,46,-1
 334 292 l 1,37,-1
284.5 769.5 m 128,-1,48
 256 798 256 798 256 840.5 c 128,-1,49
 256 883 256 883 284.5 910.5 c 128,-1,50
 313 938 313 938 364 938 c 128,-1,51
 415 938 415 938 443.5 910.5 c 128,-1,52
 472 883 472 883 472 840.5 c 128,-1,53
 472 798 472 798 443.5 769.5 c 128,-1,54
 415 741 415 741 364 741 c 128,-1,47
 313 741 313 741 284.5 769.5 c 128,-1,48
310 840 m 128,-1,56
 310 819 310 819 324.5 805.5 c 128,-1,57
 339 792 339 792 364 792 c 128,-1,58
 389 792 389 792 402 805.5 c 128,-1,59
 415 819 415 819 415 840 c 128,-1,60
 415 861 415 861 402 874.5 c 128,-1,61
 389 888 389 888 364 888 c 128,-1,62
 339 888 339 888 324.5 874.5 c 128,-1,55
 310 861 310 861 310 840 c 128,-1,56
EndSplineSet
EndChar

StartChar: AE
Encoding: 198 198 136
Width: 737
GlyphClass: 2
Flags: W
LayerCount: 2
Fore
SplineSet
468 365 m 1,0,1
 528 375 528 375 592.5 375 c 128,-1,2
 657 375 657 375 686 366 c 1,3,4
 686 331 686 331 672 304 c 1,5,-1
 668 295 l 1,6,7
 611 304 611 304 578 304 c 0,8,9
 526 304 526 304 478 298 c 1,10,-1
 465 297 l 1,11,-1
 462 243 l 1,12,13
 462 112 462 112 496 90 c 0,14,15
 513 80 513 80 552.5 80 c 128,-1,16
 592 80 592 80 719 128 c 1,17,-1
 737 77 l 1,18,19
 698 45 698 45 624 16.5 c 128,-1,20
 550 -12 550 -12 465 -12 c 128,-1,21
 380 -12 380 -12 343.5 39 c 128,-1,22
 307 90 307 90 307 193 c 0,23,24
 307 245 307 245 310 281 c 1,25,26
 233 275 233 275 158 256 c 1,27,28
 102 134 102 134 64 15 c 0,29,30
 57 -7 57 -7 33 -9 c 1,31,32
 2 -9 2 -9 -27 18 c 1,33,34
 6 117 6 117 103 316 c 128,-1,35
 200 515 200 515 233 607 c 0,36,37
 234 609 234 609 234 616 c 0,38,39
 234 633 234 633 216 663 c 2,40,-1
 210 673 l 1,41,-1
 212 686 l 1,42,43
 297 710 297 710 417 710 c 1,44,-1
 658 706 l 2,45,46
 687 706 687 706 729 708 c 1,47,48
 732 681 732 681 732 669 c 0,49,50
 732 617 732 617 695 617 c 0,51,52
 686 617 686 617 627 624.5 c 128,-1,53
 568 632 568 632 538 632 c 128,-1,54
 508 632 508 632 485 629 c 1,55,56
 476 496 476 496 468 365 c 1,0,1
337 618 m 1,57,58
 324 618 324 618 316 614 c 1,59,60
 290 537 290 537 197 338 c 1,61,62
 272 352 272 352 315 355 c 1,63,64
 337 590 337 590 337 618 c 1,57,58
EndSplineSet
EndChar

StartChar: Ccedilla
Encoding: 199 199 137
Width: 542
GlyphClass: 2
Flags: W
LayerCount: 2
Fore
SplineSet
272 -94 m 0,0,1
 272 -118 272 -118 296 -118 c 128,-1,2
 320 -118 320 -118 353 -102 c 1,3,-1
 364 -96 l 1,4,-1
 382 -130 l 1,5,6
 375 -137 375 -137 363 -147.5 c 128,-1,7
 351 -158 351 -158 315 -176 c 128,-1,8
 279 -194 279 -194 248 -194 c 128,-1,9
 217 -194 217 -194 198 -175.5 c 128,-1,10
 179 -157 179 -157 179 -128.5 c 128,-1,11
 179 -100 179 -100 201.5 -67.5 c 128,-1,12
 224 -35 224 -35 253 -11 c 1,13,14
 165 -6 165 -6 108 68.5 c 128,-1,15
 51 143 51 143 51 263 c 128,-1,16
 51 383 51 383 93 483.5 c 128,-1,17
 135 584 135 584 213 647 c 128,-1,18
 291 710 291 710 379.5 710 c 128,-1,19
 468 710 468 710 522.5 670 c 128,-1,20
 577 630 577 630 577 574.5 c 128,-1,21
 577 519 577 519 544 480 c 1,22,23
 512 480 512 480 472 494 c 128,-1,24
 432 508 432 508 412 528 c 1,25,-1
 431 629 l 1,26,27
 407 644 407 644 368 644 c 0,28,29
 307 644 307 644 260 539.5 c 128,-1,30
 213 435 213 435 213 282 c 0,31,32
 213 181 213 181 246.5 135.5 c 128,-1,33
 280 90 280 90 328 90 c 0,34,35
 407 90 407 90 480 164 c 1,36,-1
 521 127 l 1,37,38
 472 61 472 61 394 21 c 0,39,40
 362 4 362 4 328 -4 c 1,41,42
 304 -24 304 -24 288 -49.5 c 128,-1,43
 272 -75 272 -75 272 -94 c 0,0,1
EndSplineSet
EndChar

StartChar: Egrave
Encoding: 200 200 138
Width: 515
GlyphClass: 2
Flags: W
LayerCount: 2
Fore
SplineSet
249 -12 m 0,0,1
 179 -12 179 -12 115 28 c 0,2,3
 83 48 83 48 62.5 84 c 128,-1,4
 42 120 42 120 42 167 c 0,5,6
 42 256 42 256 101 312 c 128,-1,7
 160 368 160 368 243 377 c 1,8,9
 187 392 187 392 153.5 429 c 128,-1,10
 120 466 120 466 120 523 c 0,11,12
 120 609 120 609 187.5 659.5 c 128,-1,13
 255 710 255 710 342 710 c 128,-1,14
 429 710 429 710 487 673 c 128,-1,15
 545 636 545 636 545 573 c 0,16,17
 545 551 545 551 537.5 530 c 128,-1,18
 530 509 530 509 522 500 c 1,19,-1
 515 490 l 1,20,21
 483 490 483 490 444.5 501 c 128,-1,22
 406 512 406 512 388 529 c 1,23,-1
 400 632 l 1,24,25
 385 647 385 647 349.5 647 c 128,-1,26
 314 647 314 647 293.5 610.5 c 128,-1,27
 273 574 273 574 273 527 c 128,-1,28
 273 480 273 480 284 456 c 128,-1,29
 295 432 295 432 315 419 c 0,30,31
 346 399 346 399 388 391 c 1,32,-1
 380 336 l 1,33,34
 308 336 308 336 255 293.5 c 128,-1,35
 202 251 202 251 202 181 c 0,36,37
 202 137 202 137 230.5 108.5 c 128,-1,38
 259 80 259 80 304 80 c 0,39,40
 386 80 386 80 472 163 c 1,41,-1
 512 126 l 1,42,43
 396 -12 396 -12 249 -12 c 0,0,1
229 915 m 0,44,45
 269 915 269 915 488 783 c 1,46,-1
 471 736 l 1,47,48
 376 764 376 764 165 819 c 1,49,50
 191 915 191 915 229 915 c 0,44,45
EndSplineSet
EndChar

StartChar: Eacute
Encoding: 201 201 139
Width: 515
GlyphClass: 2
Flags: W
LayerCount: 2
Fore
SplineSet
249 -12 m 0,0,1
 179 -12 179 -12 115 28 c 0,2,3
 83 48 83 48 62.5 84 c 128,-1,4
 42 120 42 120 42 167 c 0,5,6
 42 256 42 256 101 312 c 128,-1,7
 160 368 160 368 243 377 c 1,8,9
 187 392 187 392 153.5 429 c 128,-1,10
 120 466 120 466 120 523 c 0,11,12
 120 609 120 609 187.5 659.5 c 128,-1,13
 255 710 255 710 342 710 c 128,-1,14
 429 710 429 710 487 673 c 128,-1,15
 545 636 545 636 545 573 c 0,16,17
 545 551 545 551 537.5 530 c 128,-1,18
 530 509 530 509 522 500 c 1,19,-1
 515 490 l 1,20,21
 483 490 483 490 444.5 501 c 128,-1,22
 406 512 406 512 388 529 c 1,23,-1
 400 632 l 1,24,25
 385 647 385 647 349.5 647 c 128,-1,26
 314 647 314 647 293.5 610.5 c 128,-1,27
 273 574 273 574 273 527 c 128,-1,28
 273 480 273 480 284 456 c 128,-1,29
 295 432 295 432 315 419 c 0,30,31
 346 399 346 399 388 391 c 1,32,-1
 380 336 l 1,33,34
 308 336 308 336 255 293.5 c 128,-1,35
 202 251 202 251 202 181 c 0,36,37
 202 137 202 137 230.5 108.5 c 128,-1,38
 259 80 259 80 304 80 c 0,39,40
 386 80 386 80 472 163 c 1,41,-1
 512 126 l 1,42,43
 396 -12 396 -12 249 -12 c 0,0,1
550 846 m 0,44,45
 550 818 550 818 513 802 c 1,46,47
 422 776 422 776 251 750 c 1,48,-1
 230 796 l 1,49,50
 440 891 440 891 513 931 c 1,51,52
 524 915 524 915 537 885.5 c 128,-1,53
 550 856 550 856 550 846 c 0,44,45
EndSplineSet
EndChar

StartChar: Ecircumflex
Encoding: 202 202 140
Width: 515
GlyphClass: 2
Flags: W
LayerCount: 2
Fore
SplineSet
249 -12 m 0,0,1
 179 -12 179 -12 115 28 c 0,2,3
 83 48 83 48 62.5 84 c 128,-1,4
 42 120 42 120 42 167 c 0,5,6
 42 256 42 256 101 312 c 128,-1,7
 160 368 160 368 243 377 c 1,8,9
 187 392 187 392 153.5 429 c 128,-1,10
 120 466 120 466 120 523 c 0,11,12
 120 609 120 609 187.5 659.5 c 128,-1,13
 255 710 255 710 342 710 c 128,-1,14
 429 710 429 710 487 673 c 128,-1,15
 545 636 545 636 545 573 c 0,16,17
 545 551 545 551 537.5 530 c 128,-1,18
 530 509 530 509 522 500 c 1,19,-1
 515 490 l 1,20,21
 483 490 483 490 444.5 501 c 128,-1,22
 406 512 406 512 388 529 c 1,23,-1
 400 632 l 1,24,25
 385 647 385 647 349.5 647 c 128,-1,26
 314 647 314 647 293.5 610.5 c 128,-1,27
 273 574 273 574 273 527 c 128,-1,28
 273 480 273 480 284 456 c 128,-1,29
 295 432 295 432 315 419 c 0,30,31
 346 399 346 399 388 391 c 1,32,-1
 380 336 l 1,33,34
 308 336 308 336 255 293.5 c 128,-1,35
 202 251 202 251 202 181 c 0,36,37
 202 137 202 137 230.5 108.5 c 128,-1,38
 259 80 259 80 304 80 c 0,39,40
 386 80 386 80 472 163 c 1,41,-1
 512 126 l 1,42,43
 396 -12 396 -12 249 -12 c 0,0,1
278 869 m 128,-1,45
 368 919 368 919 394.5 919 c 128,-1,46
 421 919 421 919 465 867.5 c 128,-1,47
 509 816 509 816 536 775 c 1,48,-1
 502 743 l 1,49,50
 395 797 395 797 363 804 c 1,51,52
 312 795 312 795 242.5 768.5 c 128,-1,53
 173 742 173 742 164 739 c 1,54,-1
 137 776 l 1,55,44
 188 819 188 819 278 869 c 128,-1,45
EndSplineSet
EndChar

StartChar: Edieresis
Encoding: 203 203 141
Width: 515
GlyphClass: 2
Flags: W
LayerCount: 2
Fore
SplineSet
249 -12 m 0,0,1
 179 -12 179 -12 115 28 c 0,2,3
 83 48 83 48 62.5 84 c 128,-1,4
 42 120 42 120 42 167 c 0,5,6
 42 256 42 256 101 312 c 128,-1,7
 160 368 160 368 243 377 c 1,8,9
 187 392 187 392 153.5 429 c 128,-1,10
 120 466 120 466 120 523 c 0,11,12
 120 609 120 609 187.5 659.5 c 128,-1,13
 255 710 255 710 342 710 c 128,-1,14
 429 710 429 710 487 673 c 128,-1,15
 545 636 545 636 545 573 c 0,16,17
 545 551 545 551 537.5 530 c 128,-1,18
 530 509 530 509 522 500 c 1,19,-1
 515 490 l 1,20,21
 483 490 483 490 444.5 501 c 128,-1,22
 406 512 406 512 388 529 c 1,23,-1
 400 632 l 1,24,25
 385 647 385 647 349.5 647 c 128,-1,26
 314 647 314 647 293.5 610.5 c 128,-1,27
 273 574 273 574 273 527 c 128,-1,28
 273 480 273 480 284 456 c 128,-1,29
 295 432 295 432 315 419 c 0,30,31
 346 399 346 399 388 391 c 1,32,-1
 380 336 l 1,33,34
 308 336 308 336 255 293.5 c 128,-1,35
 202 251 202 251 202 181 c 0,36,37
 202 137 202 137 230.5 108.5 c 128,-1,38
 259 80 259 80 304 80 c 0,39,40
 386 80 386 80 472 163 c 1,41,-1
 512 126 l 1,42,43
 396 -12 396 -12 249 -12 c 0,0,1
217.5 782 m 128,-1,45
 201 799 201 799 201 828.5 c 128,-1,46
 201 858 201 858 224 878.5 c 128,-1,47
 247 899 247 899 278 899 c 0,48,49
 343 899 343 899 343 836 c 0,50,51
 343 808 343 808 319.5 786.5 c 128,-1,52
 296 765 296 765 265 765 c 128,-1,44
 234 765 234 765 217.5 782 c 128,-1,45
423 782 m 128,-1,54
 407 799 407 799 407 828.5 c 128,-1,55
 407 858 407 858 429.5 878.5 c 128,-1,56
 452 899 452 899 483 899 c 0,57,58
 549 899 549 899 549 836 c 0,59,60
 549 808 549 808 525 786.5 c 128,-1,61
 501 765 501 765 470 765 c 128,-1,53
 439 765 439 765 423 782 c 128,-1,54
EndSplineSet
EndChar

StartChar: Igrave
Encoding: 204 204 142
Width: 325
GlyphClass: 2
Flags: W
LayerCount: 2
Fore
SplineSet
105 915 m 0,0,1
 127 915 127 915 170.5 892 c 128,-1,2
 214 869 214 869 342 792 c 1,3,-1
 327 741 l 1,4,5
 183 783 183 783 41 819 c 1,6,7
 67 915 67 915 105 915 c 0,0,1
209 102 m 0,8,9
 209 80 209 80 220 80 c 0,10,11
 226 80 226 80 278 106 c 1,12,-1
 297 69 l 1,13,14
 207 -12 207 -12 138 -12 c 0,15,16
 95 -12 95 -12 72.5 17 c 128,-1,17
 50 46 50 46 50 89 c 128,-1,18
 50 132 50 132 98.5 324.5 c 128,-1,19
 147 517 147 517 152 589 c 1,20,21
 152 605 152 605 141.5 627.5 c 128,-1,22
 131 650 131 650 120 664 c 2,23,-1
 110 678 l 1,24,-1
 113 693 l 1,25,26
 170 710 170 710 301 710 c 1,27,28
 313 687 313 687 313 643.5 c 128,-1,29
 313 600 313 600 261 392 c 128,-1,30
 209 184 209 184 209 102 c 0,8,9
EndSplineSet
EndChar

StartChar: Iacute
Encoding: 205 205 143
Width: 325
GlyphClass: 2
Flags: W
LayerCount: 2
Fore
SplineSet
404 846 m 0,0,1
 404 818 404 818 367 802 c 1,2,3
 297 782 297 782 120 755 c 1,4,-1
 102 802 l 1,5,6
 273 879 273 879 367 931 c 1,7,8
 378 915 378 915 391 885.5 c 128,-1,9
 404 856 404 856 404 846 c 0,0,1
209 102 m 0,10,11
 209 80 209 80 220 80 c 0,12,13
 226 80 226 80 278 106 c 1,14,-1
 297 69 l 1,15,16
 207 -12 207 -12 138 -12 c 0,17,18
 95 -12 95 -12 72.5 17 c 128,-1,19
 50 46 50 46 50 89 c 128,-1,20
 50 132 50 132 98.5 324.5 c 128,-1,21
 147 517 147 517 152 589 c 1,22,23
 152 605 152 605 141.5 627.5 c 128,-1,24
 131 650 131 650 120 664 c 2,25,-1
 110 678 l 1,26,-1
 113 693 l 1,27,28
 170 710 170 710 301 710 c 1,29,30
 313 687 313 687 313 643.5 c 128,-1,31
 313 600 313 600 261 392 c 128,-1,32
 209 184 209 184 209 102 c 0,10,11
EndSplineSet
EndChar

StartChar: Icircumflex
Encoding: 206 206 144
Width: 325
GlyphClass: 2
Flags: W
LayerCount: 2
Fore
SplineSet
180 870 m 128,-1,1
 262 919 262 919 286.5 919 c 128,-1,2
 311 919 311 919 349.5 870 c 128,-1,3
 388 821 388 821 415 777 c 1,4,-1
 381 745 l 1,5,6
 288 796 288 796 257 804 c 1,7,8
 220 797 220 797 77 741 c 1,9,-1
 50 778 l 1,10,0
 98 821 98 821 180 870 c 128,-1,1
209 102 m 0,11,12
 209 80 209 80 220 80 c 0,13,14
 226 80 226 80 278 106 c 1,15,-1
 297 69 l 1,16,17
 207 -12 207 -12 138 -12 c 0,18,19
 95 -12 95 -12 72.5 17 c 128,-1,20
 50 46 50 46 50 89 c 128,-1,21
 50 132 50 132 98.5 324.5 c 128,-1,22
 147 517 147 517 152 589 c 1,23,24
 152 605 152 605 141.5 627.5 c 128,-1,25
 131 650 131 650 120 664 c 2,26,-1
 110 678 l 1,27,-1
 113 693 l 1,28,29
 170 710 170 710 301 710 c 1,30,31
 313 687 313 687 313 643.5 c 128,-1,32
 313 600 313 600 261 392 c 128,-1,33
 209 184 209 184 209 102 c 0,11,12
EndSplineSet
EndChar

StartChar: Idieresis
Encoding: 207 207 145
Width: 325
GlyphClass: 2
Flags: W
LayerCount: 2
Fore
SplineSet
93 828 m 0,0,1
 93 858 93 858 114.5 879 c 128,-1,2
 136 900 136 900 166 900 c 0,3,4
 229 900 229 900 229 836 c 0,5,6
 229 808 229 808 206.5 786 c 128,-1,7
 184 764 184 764 153 764 c 0,8,9
 93 764 93 764 93 828 c 0,0,1
283 828 m 0,10,11
 283 858 283 858 305 879 c 128,-1,12
 327 900 327 900 357 900 c 0,13,14
 421 900 421 900 421 836 c 0,15,16
 421 808 421 808 398 786 c 128,-1,17
 375 764 375 764 344 764 c 0,18,19
 283 764 283 764 283 828 c 0,10,11
209 102 m 0,20,21
 209 80 209 80 220 80 c 0,22,23
 226 80 226 80 278 106 c 1,24,-1
 297 69 l 1,25,26
 207 -12 207 -12 138 -12 c 0,27,28
 95 -12 95 -12 72.5 17 c 128,-1,29
 50 46 50 46 50 89 c 128,-1,30
 50 132 50 132 98.5 324.5 c 128,-1,31
 147 517 147 517 152 589 c 1,32,33
 152 605 152 605 141.5 627.5 c 128,-1,34
 131 650 131 650 120 664 c 2,35,-1
 110 678 l 1,36,-1
 113 693 l 1,37,38
 170 710 170 710 301 710 c 1,39,40
 313 687 313 687 313 643.5 c 128,-1,41
 313 600 313 600 261 392 c 128,-1,42
 209 184 209 184 209 102 c 0,20,21
EndSplineSet
EndChar

StartChar: Eth
Encoding: 208 208 146
Width: 641
GlyphClass: 2
Flags: W
LayerCount: 2
Fore
SplineSet
307 -12 m 0,0,1
 249 -12 249 -12 187 7 c 1,2,3
 135 -6 135 -6 96.5 -6 c 128,-1,4
 58 -6 58 -6 44 -4 c 1,5,6
 48 35 48 35 106 301 c 2,7,-1
 113 333 l 1,8,-1
 49 333 l 1,9,10
 49 382 49 382 52 397 c 1,11,-1
 127 397 l 1,12,13
 158 545 158 545 158 573 c 128,-1,14
 158 601 158 601 144.5 625 c 128,-1,15
 131 649 131 649 118 660 c 2,16,-1
 104 671 l 1,17,-1
 107 686 l 1,18,19
 133 693 133 693 213.5 701.5 c 128,-1,20
 294 710 294 710 354 710 c 0,21,22
 493 710 493 710 564.5 648.5 c 128,-1,23
 636 587 636 587 636 449 c 0,24,25
 636 336 636 336 598.5 232.5 c 128,-1,26
 561 129 561 129 484 58.5 c 128,-1,27
 407 -12 407 -12 307 -12 c 0,0,1
378 647 m 0,28,29
 352 647 352 647 319 641 c 1,30,31
 310 538 310 538 277 397 c 1,32,-1
 365 397 l 1,33,34
 365 366 365 366 362 333 c 1,35,-1
 263 333 l 1,36,37
 218 142 218 142 208 72 c 1,38,39
 232 60 232 60 274 60 c 128,-1,40
 316 60 316 60 353.5 93.5 c 128,-1,41
 391 127 391 127 414 177 c 128,-1,42
 437 227 437 227 454 289 c 0,43,44
 483 400 483 400 483 491 c 128,-1,45
 483 582 483 582 459 614.5 c 128,-1,46
 435 647 435 647 378 647 c 0,28,29
EndSplineSet
EndChar

StartChar: Ntilde
Encoding: 209 209 147
Width: 661
GlyphClass: 2
Flags: W
LayerCount: 2
Fore
SplineSet
63 -4 m 2,0,-1
 44 -4 l 1,1,2
 48 41 48 41 97 260.5 c 128,-1,3
 146 480 146 480 158 589 c 1,4,5
 158 605 158 605 147.5 627.5 c 128,-1,6
 137 650 137 650 126 664 c 2,7,-1
 116 678 l 1,8,-1
 119 693 l 1,9,10
 175 710 175 710 312 710 c 1,11,12
 325 686 325 686 325 663 c 128,-1,13
 325 640 325 640 321 606 c 1,14,15
 446 710 446 710 525 710 c 0,16,17
 577 710 577 710 609 676 c 128,-1,18
 641 642 641 642 641 581 c 128,-1,19
 641 520 641 520 598.5 348.5 c 128,-1,20
 556 177 556 177 556 109 c 0,21,22
 556 80 556 80 566 80 c 0,23,24
 575 80 575 80 616 100 c 2,25,-1
 629 106 l 1,26,-1
 649 69 l 1,27,28
 607 33 607 33 562 10.5 c 128,-1,29
 517 -12 517 -12 480.5 -12 c 128,-1,30
 444 -12 444 -12 421 14.5 c 128,-1,31
 398 41 398 41 398 86.5 c 128,-1,32
 398 132 398 132 439.5 313 c 128,-1,33
 481 494 481 494 481 544 c 128,-1,34
 481 594 481 594 442 594 c 0,35,36
 383 594 383 594 308 535 c 1,37,38
 297 482 297 482 267 358 c 0,39,40
 201 85 201 85 201 16 c 1,41,42
 162 -4 162 -4 63 -4 c 2,0,-1
248 765 m 1,43,44
 262 901 262 901 350 901 c 0,45,46
 384 901 384 901 454.5 883 c 128,-1,47
 525 865 525 865 547.5 865 c 128,-1,48
 570 865 570 865 579 866 c 0,49,50
 599 870 599 870 615 898 c 1,51,-1
 647 892 l 1,52,53
 642 851 642 851 630 819 c 0,54,55
 608 763 608 763 544 763 c 0,56,57
 521 763 521 763 453.5 780.5 c 128,-1,58
 386 798 386 798 354.5 798 c 128,-1,59
 323 798 323 798 309 790.5 c 128,-1,60
 295 783 295 783 281 758 c 1,61,-1
 248 765 l 1,43,44
EndSplineSet
EndChar

StartChar: Ograve
Encoding: 210 210 148
Width: 636
GlyphClass: 2
Flags: W
LayerCount: 2
Fore
SplineSet
618 537.5 m 128,-1,1
 631 493 631 493 631 439 c 128,-1,2
 631 385 631 385 619 324 c 128,-1,3
 607 263 607 263 579 202 c 128,-1,4
 551 141 551 141 511 94 c 128,-1,5
 471 47 471 47 410 17.5 c 128,-1,6
 349 -12 349 -12 276 -12 c 0,7,8
 169 -12 169 -12 110 64.5 c 128,-1,9
 51 141 51 141 51 261.5 c 128,-1,10
 51 382 51 382 93.5 482.5 c 128,-1,11
 136 583 136 583 215.5 646.5 c 128,-1,12
 295 710 295 710 392 710 c 0,13,14
 456 710 456 710 504 686 c 128,-1,15
 552 662 552 662 578.5 622 c 128,-1,0
 605 582 605 582 618 537.5 c 128,-1,1
385.5 97 m 128,-1,17
 418 138 418 138 435 204 c 0,18,19
 469 334 469 334 469 471 c 0,20,21
 469 642 469 642 377 642 c 0,22,23
 325 642 325 642 286 580 c 0,24,25
 213 463 213 463 213 256 c 0,26,27
 213 143 213 143 226 116 c 1,28,29
 232 101 232 101 242 85 c 0,30,31
 260 56 260 56 306.5 56 c 128,-1,16
 353 56 353 56 385.5 97 c 128,-1,17
259 915 m 0,32,33
 299 915 299 915 518 783 c 1,34,-1
 501 736 l 1,35,36
 406 764 406 764 195 819 c 1,37,38
 221 915 221 915 259 915 c 0,32,33
EndSplineSet
EndChar

StartChar: Oacute
Encoding: 211 211 149
Width: 636
GlyphClass: 2
Flags: W
LayerCount: 2
Fore
SplineSet
618 537.5 m 128,-1,1
 631 493 631 493 631 439 c 128,-1,2
 631 385 631 385 619 324 c 128,-1,3
 607 263 607 263 579 202 c 128,-1,4
 551 141 551 141 511 94 c 128,-1,5
 471 47 471 47 410 17.5 c 128,-1,6
 349 -12 349 -12 276 -12 c 0,7,8
 169 -12 169 -12 110 64.5 c 128,-1,9
 51 141 51 141 51 261.5 c 128,-1,10
 51 382 51 382 93.5 482.5 c 128,-1,11
 136 583 136 583 215.5 646.5 c 128,-1,12
 295 710 295 710 392 710 c 0,13,14
 456 710 456 710 504 686 c 128,-1,15
 552 662 552 662 578.5 622 c 128,-1,0
 605 582 605 582 618 537.5 c 128,-1,1
385.5 97 m 128,-1,17
 418 138 418 138 435 204 c 0,18,19
 469 334 469 334 469 471 c 0,20,21
 469 642 469 642 377 642 c 0,22,23
 325 642 325 642 286 580 c 0,24,25
 213 463 213 463 213 256 c 0,26,27
 213 143 213 143 226 116 c 1,28,29
 232 101 232 101 242 85 c 0,30,31
 260 56 260 56 306.5 56 c 128,-1,16
 353 56 353 56 385.5 97 c 128,-1,17
584 846 m 0,32,33
 584 818 584 818 547 802 c 1,34,35
 456 776 456 776 285 750 c 1,36,-1
 264 796 l 1,37,38
 474 891 474 891 547 931 c 1,39,40
 558 915 558 915 571 885.5 c 128,-1,41
 584 856 584 856 584 846 c 0,32,33
EndSplineSet
EndChar

StartChar: Ocircumflex
Encoding: 212 212 150
Width: 636
GlyphClass: 2
Flags: W
LayerCount: 2
Fore
SplineSet
618 537.5 m 128,-1,1
 631 493 631 493 631 439 c 128,-1,2
 631 385 631 385 619 324 c 128,-1,3
 607 263 607 263 579 202 c 128,-1,4
 551 141 551 141 511 94 c 128,-1,5
 471 47 471 47 410 17.5 c 128,-1,6
 349 -12 349 -12 276 -12 c 0,7,8
 169 -12 169 -12 110 64.5 c 128,-1,9
 51 141 51 141 51 261.5 c 128,-1,10
 51 382 51 382 93.5 482.5 c 128,-1,11
 136 583 136 583 215.5 646.5 c 128,-1,12
 295 710 295 710 392 710 c 0,13,14
 456 710 456 710 504 686 c 128,-1,15
 552 662 552 662 578.5 622 c 128,-1,0
 605 582 605 582 618 537.5 c 128,-1,1
385.5 97 m 128,-1,17
 418 138 418 138 435 204 c 0,18,19
 469 334 469 334 469 471 c 0,20,21
 469 642 469 642 377 642 c 0,22,23
 325 642 325 642 286 580 c 0,24,25
 213 463 213 463 213 256 c 0,26,27
 213 143 213 143 226 116 c 1,28,29
 232 101 232 101 242 85 c 0,30,31
 260 56 260 56 306.5 56 c 128,-1,16
 353 56 353 56 385.5 97 c 128,-1,17
354 869 m 128,-1,33
 444 919 444 919 470.5 919 c 128,-1,34
 497 919 497 919 541 867.5 c 128,-1,35
 585 816 585 816 612 775 c 1,36,-1
 578 743 l 1,37,38
 471 797 471 797 439 804 c 1,39,40
 388 795 388 795 318.5 768.5 c 128,-1,41
 249 742 249 742 240 739 c 1,42,-1
 213 776 l 1,43,32
 264 819 264 819 354 869 c 128,-1,33
EndSplineSet
EndChar

StartChar: Otilde
Encoding: 213 213 151
Width: 636
GlyphClass: 2
Flags: W
LayerCount: 2
Fore
SplineSet
618 537.5 m 128,-1,1
 631 493 631 493 631 439 c 128,-1,2
 631 385 631 385 619 324 c 128,-1,3
 607 263 607 263 579 202 c 128,-1,4
 551 141 551 141 511 94 c 128,-1,5
 471 47 471 47 410 17.5 c 128,-1,6
 349 -12 349 -12 276 -12 c 0,7,8
 169 -12 169 -12 110 64.5 c 128,-1,9
 51 141 51 141 51 261.5 c 128,-1,10
 51 382 51 382 93.5 482.5 c 128,-1,11
 136 583 136 583 215.5 646.5 c 128,-1,12
 295 710 295 710 392 710 c 0,13,14
 456 710 456 710 504 686 c 128,-1,15
 552 662 552 662 578.5 622 c 128,-1,0
 605 582 605 582 618 537.5 c 128,-1,1
385.5 97 m 128,-1,17
 418 138 418 138 435 204 c 0,18,19
 469 334 469 334 469 471 c 0,20,21
 469 642 469 642 377 642 c 0,22,23
 325 642 325 642 286 580 c 0,24,25
 213 463 213 463 213 256 c 0,26,27
 213 143 213 143 226 116 c 1,28,29
 232 101 232 101 242 85 c 0,30,31
 260 56 260 56 306.5 56 c 128,-1,16
 353 56 353 56 385.5 97 c 128,-1,17
203 765 m 1,32,33
 217 901 217 901 305 901 c 0,34,35
 339 901 339 901 409.5 883 c 128,-1,36
 480 865 480 865 502.5 865 c 128,-1,37
 525 865 525 865 534 866 c 0,38,39
 554 870 554 870 570 898 c 1,40,-1
 602 892 l 1,41,42
 597 851 597 851 585 819 c 0,43,44
 563 763 563 763 499 763 c 0,45,46
 476 763 476 763 408.5 780.5 c 128,-1,47
 341 798 341 798 309.5 798 c 128,-1,48
 278 798 278 798 264 790.5 c 128,-1,49
 250 783 250 783 236 758 c 1,50,-1
 203 765 l 1,32,33
EndSplineSet
EndChar

StartChar: Odieresis
Encoding: 214 214 152
Width: 636
GlyphClass: 2
Flags: W
LayerCount: 2
Fore
SplineSet
618 537.5 m 128,-1,1
 631 493 631 493 631 439 c 128,-1,2
 631 385 631 385 619 324 c 128,-1,3
 607 263 607 263 579 202 c 128,-1,4
 551 141 551 141 511 94 c 128,-1,5
 471 47 471 47 410 17.5 c 128,-1,6
 349 -12 349 -12 276 -12 c 0,7,8
 169 -12 169 -12 110 64.5 c 128,-1,9
 51 141 51 141 51 261.5 c 128,-1,10
 51 382 51 382 93.5 482.5 c 128,-1,11
 136 583 136 583 215.5 646.5 c 128,-1,12
 295 710 295 710 392 710 c 0,13,14
 456 710 456 710 504 686 c 128,-1,15
 552 662 552 662 578.5 622 c 128,-1,0
 605 582 605 582 618 537.5 c 128,-1,1
385.5 97 m 128,-1,17
 418 138 418 138 435 204 c 0,18,19
 469 334 469 334 469 471 c 0,20,21
 469 642 469 642 377 642 c 0,22,23
 325 642 325 642 286 580 c 0,24,25
 213 463 213 463 213 256 c 0,26,27
 213 143 213 143 226 116 c 1,28,29
 232 101 232 101 242 85 c 0,30,31
 260 56 260 56 306.5 56 c 128,-1,16
 353 56 353 56 385.5 97 c 128,-1,17
243.5 782 m 128,-1,33
 227 799 227 799 227 828.5 c 128,-1,34
 227 858 227 858 250 878.5 c 128,-1,35
 273 899 273 899 304 899 c 0,36,37
 369 899 369 899 369 836 c 0,38,39
 369 808 369 808 345.5 786.5 c 128,-1,40
 322 765 322 765 291 765 c 128,-1,32
 260 765 260 765 243.5 782 c 128,-1,33
449 782 m 128,-1,42
 433 799 433 799 433 828.5 c 128,-1,43
 433 858 433 858 455.5 878.5 c 128,-1,44
 478 899 478 899 509 899 c 0,45,46
 575 899 575 899 575 836 c 0,47,48
 575 808 575 808 551 786.5 c 128,-1,49
 527 765 527 765 496 765 c 128,-1,41
 465 765 465 765 449 782 c 128,-1,42
EndSplineSet
EndChar

StartChar: multiply
Encoding: 215 215 153
Width: 493
GlyphClass: 2
Flags: W
LayerCount: 2
Fore
SplineSet
367 107 m 1,0,-1
 250 224 l 1,1,-1
 134 107 l 1,2,3
 89 144 89 144 73 166 c 1,4,-1
 190 284 l 1,5,-1
 73 402 l 1,6,7
 97 430 97 430 135 459 c 1,8,-1
 250 343 l 1,9,-1
 365 459 l 1,10,11
 404 430 404 430 428 402 c 1,12,-1
 310 283 l 1,13,-1
 427 166 l 1,14,15
 409 142 409 142 367 107 c 1,0,-1
EndSplineSet
EndChar

StartChar: Oslash
Encoding: 216 216 154
Width: 636
GlyphClass: 2
Flags: W
LayerCount: 2
Fore
SplineSet
601.5 582 m 128,-1,1
 631 517 631 517 631 451 c 128,-1,2
 631 385 631 385 619 324 c 128,-1,3
 607 263 607 263 579 202 c 128,-1,4
 551 141 551 141 511 94 c 128,-1,5
 471 47 471 47 410 17.5 c 128,-1,6
 349 -12 349 -12 276 -12 c 0,7,8
 258 -12 258 -12 242 -9 c 1,9,10
 215 -86 215 -86 210 -100 c 1,11,12
 181 -98 181 -98 168 -88 c 1,13,14
 156 -81 156 -81 142 -72 c 1,15,-1
 172 12 l 1,16,17
 113 43 113 43 82 110 c 128,-1,18
 51 177 51 177 51 279.5 c 128,-1,19
 51 382 51 382 93.5 482.5 c 128,-1,20
 136 583 136 583 215.5 646.5 c 128,-1,21
 295 710 295 710 392 710 c 0,22,23
 410 710 410 710 440 706 c 1,24,-1
 476 798 l 1,25,26
 528 790 528 790 539 780 c 0,27,28
 540 779 540 779 548 772 c 1,29,-1
 512 681 l 1,30,0
 572 647 572 647 601.5 582 c 128,-1,1
310 56 m 0,31,32
 353 56 353 56 385.5 97 c 128,-1,33
 418 138 418 138 435 204 c 0,34,35
 469 334 469 334 469 471 c 0,36,37
 469 523 469 523 462 556 c 1,38,39
 311 175 311 175 269 63 c 1,40,41
 284 56 284 56 310 56 c 0,31,32
377 642 m 0,42,43
 325 642 325 642 286 580 c 0,44,45
 213 463 213 463 213 256 c 0,46,47
 213 172 213 172 220 138 c 1,48,49
 260 242 260 242 412 634 c 1,50,51
 396 642 396 642 377 642 c 0,42,43
EndSplineSet
EndChar

StartChar: Ugrave
Encoding: 217 217 155
Width: 668
GlyphClass: 2
Flags: W
LayerCount: 2
Fore
SplineSet
313 633 m 128,-1,1
 313 581 313 581 270.5 393 c 128,-1,2
 228 205 228 205 228 154.5 c 128,-1,3
 228 104 228 104 265 104 c 0,4,5
 329 104 329 104 409 159 c 1,6,7
 415 195 415 195 438 304 c 0,8,9
 492 556 492 556 494 651 c 0,10,11
 494 668 494 668 492 679 c 1,12,13
 572 710 572 710 653 710 c 1,14,15
 656 704 656 704 656 680 c 0,16,17
 656 625 656 625 607.5 397 c 128,-1,18
 559 169 559 169 559 107 c 0,19,20
 559 80 559 80 568 80 c 128,-1,21
 577 80 577 80 629 106 c 1,22,-1
 647 69 l 1,23,24
 558 -12 558 -12 489 -12 c 0,25,26
 451 -12 451 -12 426 12 c 128,-1,27
 401 36 401 36 400 80 c 1,28,29
 265 -12 265 -12 176 -12 c 0,30,31
 127 -12 127 -12 97.5 19.5 c 128,-1,32
 68 51 68 51 68 106 c 128,-1,33
 68 161 68 161 109 336.5 c 128,-1,34
 150 512 150 512 150 589 c 0,35,36
 150 605 150 605 140 627.5 c 128,-1,37
 130 650 130 650 120 664 c 2,38,-1
 110 678 l 1,39,-1
 112 693 l 1,40,41
 167 710 167 710 298 710 c 1,42,0
 313 685 313 685 313 633 c 128,-1,1
259 915 m 0,43,44
 299 915 299 915 518 783 c 1,45,-1
 501 736 l 1,46,47
 406 764 406 764 195 819 c 1,48,49
 221 915 221 915 259 915 c 0,43,44
EndSplineSet
EndChar

StartChar: Uacute
Encoding: 218 218 156
Width: 668
GlyphClass: 2
Flags: W
LayerCount: 2
Fore
SplineSet
313 633 m 128,-1,1
 313 581 313 581 270.5 393 c 128,-1,2
 228 205 228 205 228 154.5 c 128,-1,3
 228 104 228 104 265 104 c 0,4,5
 329 104 329 104 409 159 c 1,6,7
 415 195 415 195 438 304 c 0,8,9
 492 556 492 556 494 651 c 0,10,11
 494 668 494 668 492 679 c 1,12,13
 572 710 572 710 653 710 c 1,14,15
 656 704 656 704 656 680 c 0,16,17
 656 625 656 625 607.5 397 c 128,-1,18
 559 169 559 169 559 107 c 0,19,20
 559 80 559 80 568 80 c 128,-1,21
 577 80 577 80 629 106 c 1,22,-1
 647 69 l 1,23,24
 558 -12 558 -12 489 -12 c 0,25,26
 451 -12 451 -12 426 12 c 128,-1,27
 401 36 401 36 400 80 c 1,28,29
 265 -12 265 -12 176 -12 c 0,30,31
 127 -12 127 -12 97.5 19.5 c 128,-1,32
 68 51 68 51 68 106 c 128,-1,33
 68 161 68 161 109 336.5 c 128,-1,34
 150 512 150 512 150 589 c 0,35,36
 150 605 150 605 140 627.5 c 128,-1,37
 130 650 130 650 120 664 c 2,38,-1
 110 678 l 1,39,-1
 112 693 l 1,40,41
 167 710 167 710 298 710 c 1,42,0
 313 685 313 685 313 633 c 128,-1,1
620 846 m 0,43,44
 620 818 620 818 583 802 c 1,45,46
 492 776 492 776 321 750 c 1,47,-1
 300 796 l 1,48,49
 510 891 510 891 583 931 c 1,50,51
 594 915 594 915 607 885.5 c 128,-1,52
 620 856 620 856 620 846 c 0,43,44
EndSplineSet
EndChar

StartChar: Ucircumflex
Encoding: 219 219 157
Width: 668
GlyphClass: 2
Flags: W
LayerCount: 2
Fore
SplineSet
313 633 m 128,-1,1
 313 581 313 581 270.5 393 c 128,-1,2
 228 205 228 205 228 154.5 c 128,-1,3
 228 104 228 104 265 104 c 0,4,5
 329 104 329 104 409 159 c 1,6,7
 415 195 415 195 438 304 c 0,8,9
 492 556 492 556 494 651 c 0,10,11
 494 668 494 668 492 679 c 1,12,13
 572 710 572 710 653 710 c 1,14,15
 656 704 656 704 656 680 c 0,16,17
 656 625 656 625 607.5 397 c 128,-1,18
 559 169 559 169 559 107 c 0,19,20
 559 80 559 80 568 80 c 128,-1,21
 577 80 577 80 629 106 c 1,22,-1
 647 69 l 1,23,24
 558 -12 558 -12 489 -12 c 0,25,26
 451 -12 451 -12 426 12 c 128,-1,27
 401 36 401 36 400 80 c 1,28,29
 265 -12 265 -12 176 -12 c 0,30,31
 127 -12 127 -12 97.5 19.5 c 128,-1,32
 68 51 68 51 68 106 c 128,-1,33
 68 161 68 161 109 336.5 c 128,-1,34
 150 512 150 512 150 589 c 0,35,36
 150 605 150 605 140 627.5 c 128,-1,37
 130 650 130 650 120 664 c 2,38,-1
 110 678 l 1,39,-1
 112 693 l 1,40,41
 167 710 167 710 298 710 c 1,42,0
 313 685 313 685 313 633 c 128,-1,1
354 869 m 128,-1,44
 444 919 444 919 470.5 919 c 128,-1,45
 497 919 497 919 541 867.5 c 128,-1,46
 585 816 585 816 612 775 c 1,47,-1
 578 743 l 1,48,49
 471 797 471 797 439 804 c 1,50,51
 388 795 388 795 318.5 768.5 c 128,-1,52
 249 742 249 742 240 739 c 1,53,-1
 213 776 l 1,54,43
 264 819 264 819 354 869 c 128,-1,44
EndSplineSet
EndChar

StartChar: Udieresis
Encoding: 220 220 158
Width: 668
GlyphClass: 2
Flags: W
LayerCount: 2
Fore
SplineSet
313 633 m 128,-1,1
 313 581 313 581 270.5 393 c 128,-1,2
 228 205 228 205 228 154.5 c 128,-1,3
 228 104 228 104 265 104 c 0,4,5
 329 104 329 104 409 159 c 1,6,7
 415 195 415 195 438 304 c 0,8,9
 492 556 492 556 494 651 c 0,10,11
 494 668 494 668 492 679 c 1,12,13
 572 710 572 710 653 710 c 1,14,15
 656 704 656 704 656 680 c 0,16,17
 656 625 656 625 607.5 397 c 128,-1,18
 559 169 559 169 559 107 c 0,19,20
 559 80 559 80 568 80 c 128,-1,21
 577 80 577 80 629 106 c 1,22,-1
 647 69 l 1,23,24
 558 -12 558 -12 489 -12 c 0,25,26
 451 -12 451 -12 426 12 c 128,-1,27
 401 36 401 36 400 80 c 1,28,29
 265 -12 265 -12 176 -12 c 0,30,31
 127 -12 127 -12 97.5 19.5 c 128,-1,32
 68 51 68 51 68 106 c 128,-1,33
 68 161 68 161 109 336.5 c 128,-1,34
 150 512 150 512 150 589 c 0,35,36
 150 605 150 605 140 627.5 c 128,-1,37
 130 650 130 650 120 664 c 2,38,-1
 110 678 l 1,39,-1
 112 693 l 1,40,41
 167 710 167 710 298 710 c 1,42,0
 313 685 313 685 313 633 c 128,-1,1
269.5 782 m 128,-1,44
 253 799 253 799 253 828.5 c 128,-1,45
 253 858 253 858 276 878.5 c 128,-1,46
 299 899 299 899 330 899 c 0,47,48
 395 899 395 899 395 836 c 0,49,50
 395 808 395 808 371.5 786.5 c 128,-1,51
 348 765 348 765 317 765 c 128,-1,43
 286 765 286 765 269.5 782 c 128,-1,44
475 782 m 128,-1,53
 459 799 459 799 459 828.5 c 128,-1,54
 459 858 459 858 481.5 878.5 c 128,-1,55
 504 899 504 899 535 899 c 0,56,57
 601 899 601 899 601 836 c 0,58,59
 601 808 601 808 577 786.5 c 128,-1,60
 553 765 553 765 522 765 c 128,-1,52
 491 765 491 765 475 782 c 128,-1,53
EndSplineSet
EndChar

StartChar: Yacute
Encoding: 221 221 159
Width: 641
GlyphClass: 2
Flags: W
LayerCount: 2
Fore
SplineSet
282.5 -216.5 m 128,-1,1
 249 -224 249 -224 210 -224 c 128,-1,2
 171 -224 171 -224 143.5 -201 c 128,-1,3
 116 -178 116 -178 116 -140 c 128,-1,4
 116 -102 116 -102 141.5 -71 c 128,-1,5
 167 -40 167 -40 203 -22 c 0,6,7
 276 16 276 16 336 28 c 2,8,-1
 362 33 l 1,9,10
 363 37 363 37 374 73 c 128,-1,11
 385 109 385 109 390 129 c 1,12,13
 263 53 263 53 181 53 c 0,14,15
 132 53 132 53 100 84.5 c 128,-1,16
 68 116 68 116 68 174.5 c 128,-1,17
 68 233 68 233 106 385.5 c 128,-1,18
 144 538 144 538 144 589 c 0,19,20
 144 622 144 622 114 664 c 2,21,-1
 104 678 l 1,22,-1
 107 693 l 1,23,24
 167 710 167 710 292 710 c 1,25,26
 306 680 306 680 306 629 c 128,-1,27
 306 578 306 578 268 413.5 c 128,-1,28
 230 249 230 249 230 223 c 0,29,30
 230 170 230 170 266 170 c 0,31,32
 334 170 334 170 411 209 c 1,33,34
 472 460 472 460 494 683 c 1,35,36
 545 709 545 709 634 709 c 2,37,-1
 653 709 l 1,38,39
 653 656 653 656 635 562 c 0,40,41
 612 443 612 443 564 202 c 0,42,43
 543 94 543 94 509 13.5 c 128,-1,44
 475 -67 475 -67 439 -111 c 128,-1,45
 403 -155 403 -155 359.5 -182 c 128,-1,0
 316 -209 316 -209 282.5 -216.5 c 128,-1,1
210 -157 m 0,46,47
 245 -157 245 -157 283 -118.5 c 128,-1,48
 321 -80 321 -80 345 -27 c 1,49,50
 298 -32 298 -32 239.5 -63.5 c 128,-1,51
 181 -95 181 -95 181 -128 c 0,52,53
 181 -140 181 -140 189.5 -148.5 c 128,-1,54
 198 -157 198 -157 210 -157 c 0,46,47
629 846 m 0,55,56
 629 818 629 818 592 802 c 1,57,58
 501 776 501 776 330 750 c 1,59,-1
 309 796 l 1,60,61
 519 891 519 891 592 931 c 1,62,63
 603 915 603 915 616 885.5 c 128,-1,64
 629 856 629 856 629 846 c 0,55,56
EndSplineSet
EndChar

StartChar: Thorn
Encoding: 222 222 160
Width: 549
GlyphClass: 2
Flags: W
LayerCount: 2
Fore
SplineSet
315 587 m 1,0,-1
 358 588 l 1,1,2
 569 588 569 588 569 420 c 0,3,4
 569 309 569 309 491 232 c 128,-1,5
 413 155 413 155 265 155 c 0,6,7
 239 155 239 155 225 156 c 1,8,9
 207 58 207 58 206 17 c 1,10,11
 170 -3 170 -3 54 -3 c 2,12,-1
 44 -3 l 1,13,14
 47 41 47 41 97.5 260 c 128,-1,15
 148 479 148 479 160 589 c 1,16,17
 160 605 160 605 150 627.5 c 128,-1,18
 140 650 140 650 130 664 c 2,19,-1
 119 678 l 1,20,-1
 122 693 l 1,21,22
 181 710 181 710 309 710 c 1,23,24
 321 690 321 690 321 657 c 128,-1,25
 321 624 321 624 315 587 c 1,0,-1
398.5 500 m 128,-1,27
 379 526 379 526 351 526 c 128,-1,28
 323 526 323 526 302 520 c 1,29,30
 293 473 293 473 269.5 370 c 128,-1,31
 246 267 246 267 237 222 c 1,32,-1
 249 222 l 2,33,34
 327 222 327 222 372.5 281 c 128,-1,35
 418 340 418 340 418 435 c 0,36,26
 418 474 418 474 398.5 500 c 128,-1,27
EndSplineSet
EndChar

StartChar: germandbls
Encoding: 223 223 161
Width: 614
GlyphClass: 2
Flags: W
LayerCount: 2
Fore
SplineSet
617 150 m 0,0,1
 617 79 617 79 557.5 33.5 c 128,-1,2
 498 -12 498 -12 413 -12 c 0,3,4
 352 -12 352 -12 314 12.5 c 128,-1,5
 276 37 276 37 276 57.5 c 128,-1,6
 276 78 276 78 311.5 120.5 c 128,-1,7
 347 163 347 163 370 170 c 1,8,9
 389 163 389 163 412.5 128.5 c 128,-1,10
 436 94 436 94 452 45 c 1,11,12
 484 47 484 47 484 86 c 128,-1,13
 484 125 484 125 460.5 164 c 128,-1,14
 437 203 437 203 408.5 231 c 128,-1,15
 380 259 380 259 356.5 299 c 128,-1,16
 333 339 333 339 333 370 c 128,-1,17
 333 401 333 401 345 419.5 c 128,-1,18
 357 438 357 438 374 453.5 c 128,-1,19
 391 469 391 469 408 487 c 0,20,21
 450 530 450 530 450 603 c 0,22,23
 450 635 450 635 433.5 653.5 c 128,-1,24
 417 672 417 672 386 672 c 0,25,26
 341 672 341 672 318 582.5 c 128,-1,27
 295 493 295 493 266 276 c 128,-1,28
 237 59 237 59 219 -20 c 128,-1,29
 201 -99 201 -99 170 -153 c 1,30,-1
 163 -153 l 2,31,32
 135 -153 135 -153 91 -144.5 c 128,-1,33
 47 -136 47 -136 28 -126 c 1,34,35
 93 66 93 66 130 374 c 1,36,37
 90 371 90 371 54 365 c 1,38,39
 53 374 53 374 53 392 c 128,-1,40
 53 410 53 410 57 431 c 1,41,-1
 137 431 l 1,42,-1
 138 436 l 1,43,44
 168 607 168 607 226.5 670 c 128,-1,45
 285 733 285 733 399 733 c 0,46,47
 476 733 476 733 531 703.5 c 128,-1,48
 586 674 586 674 586 611 c 0,49,50
 586 570 586 570 568 539.5 c 128,-1,51
 550 509 550 509 529 494 c 0,52,53
 472 455 472 455 472 423 c 0,54,55
 472 383 472 383 544 304 c 0,56,57
 572 274 572 274 594.5 231 c 128,-1,58
 617 188 617 188 617 150 c 0,0,1
EndSplineSet
EndChar

StartChar: agrave
Encoding: 224 224 162
Width: 480
GlyphClass: 2
Flags: W
LayerCount: 2
Fore
SplineSet
328 414 m 1,0,1
 330 416 330 416 339 440 c 1,2,3
 386 440 386 440 465 412 c 1,4,5
 440 329 440 329 425 238.5 c 128,-1,6
 410 148 410 148 410 109.5 c 128,-1,7
 410 71 410 71 418 71 c 0,8,9
 424 71 424 71 462 90 c 2,10,-1
 474 96 l 1,11,-1
 492 61 l 1,12,13
 483 53 483 53 468.5 41 c 128,-1,14
 454 29 454 29 414 8.5 c 128,-1,15
 374 -12 374 -12 342 -12 c 0,16,17
 280 -12 280 -12 270 44 c 1,18,19
 206 -12 206 -12 154.5 -12 c 128,-1,20
 103 -12 103 -12 67.5 28 c 128,-1,21
 32 68 32 68 32 154 c 0,22,23
 32 288 32 288 87 365.5 c 128,-1,24
 142 443 142 443 220 443 c 0,25,26
 276 443 276 443 328 414 c 1,0,1
214 73 m 0,27,28
 238 73 238 73 268 92 c 1,29,30
 275 233 275 233 315 371 c 1,31,32
 285 384 285 384 264 384 c 0,33,34
 228 384 228 384 202.5 313.5 c 128,-1,35
 177 243 177 243 177 158 c 128,-1,36
 177 73 177 73 214 73 c 0,27,28
203 693 m 0,37,38
 230 693 230 693 291 651 c 0,39,40
 307 640 307 640 319.5 631.5 c 128,-1,41
 332 623 332 623 351 609 c 128,-1,42
 370 595 370 595 382 586 c 0,43,44
 412 561 412 561 446 537 c 1,45,-1
 424 499 l 1,46,47
 301 546 301 546 132 600 c 1,48,49
 170 693 170 693 203 693 c 0,37,38
EndSplineSet
EndChar

StartChar: aacute
Encoding: 225 225 163
Width: 480
GlyphClass: 2
Flags: W
LayerCount: 2
Fore
SplineSet
328 414 m 1,0,1
 330 416 330 416 339 440 c 1,2,3
 386 440 386 440 465 412 c 1,4,5
 440 329 440 329 425 238.5 c 128,-1,6
 410 148 410 148 410 109.5 c 128,-1,7
 410 71 410 71 418 71 c 0,8,9
 424 71 424 71 462 90 c 2,10,-1
 474 96 l 1,11,-1
 492 61 l 1,12,13
 483 53 483 53 468.5 41 c 128,-1,14
 454 29 454 29 414 8.5 c 128,-1,15
 374 -12 374 -12 342 -12 c 0,16,17
 280 -12 280 -12 270 44 c 1,18,19
 206 -12 206 -12 154.5 -12 c 128,-1,20
 103 -12 103 -12 67.5 28 c 128,-1,21
 32 68 32 68 32 154 c 0,22,23
 32 288 32 288 87 365.5 c 128,-1,24
 142 443 142 443 220 443 c 0,25,26
 276 443 276 443 328 414 c 1,0,1
214 73 m 0,27,28
 238 73 238 73 268 92 c 1,29,30
 275 233 275 233 315 371 c 1,31,32
 285 384 285 384 264 384 c 0,33,34
 228 384 228 384 202.5 313.5 c 128,-1,35
 177 243 177 243 177 158 c 128,-1,36
 177 73 177 73 214 73 c 0,27,28
467 616 m 0,37,38
 467 588 467 588 431 571 c 0,39,40
 382 548 382 548 186 503 c 1,41,-1
 168 543 l 1,42,43
 262 592 262 592 338 643 c 128,-1,44
 414 694 414 694 432 705 c 1,45,46
 442 691 442 691 454.5 661 c 128,-1,47
 467 631 467 631 467 616 c 0,37,38
EndSplineSet
EndChar

StartChar: acircumflex
Encoding: 226 226 164
Width: 480
GlyphClass: 2
Flags: W
LayerCount: 2
Fore
SplineSet
328 414 m 1,0,1
 330 416 330 416 339 440 c 1,2,3
 386 440 386 440 465 412 c 1,4,5
 440 329 440 329 425 238.5 c 128,-1,6
 410 148 410 148 410 109.5 c 128,-1,7
 410 71 410 71 418 71 c 0,8,9
 424 71 424 71 462 90 c 2,10,-1
 474 96 l 1,11,-1
 492 61 l 1,12,13
 483 53 483 53 468.5 41 c 128,-1,14
 454 29 454 29 414 8.5 c 128,-1,15
 374 -12 374 -12 342 -12 c 0,16,17
 280 -12 280 -12 270 44 c 1,18,19
 206 -12 206 -12 154.5 -12 c 128,-1,20
 103 -12 103 -12 67.5 28 c 128,-1,21
 32 68 32 68 32 154 c 0,22,23
 32 288 32 288 87 365.5 c 128,-1,24
 142 443 142 443 220 443 c 0,25,26
 276 443 276 443 328 414 c 1,0,1
214 73 m 0,27,28
 238 73 238 73 268 92 c 1,29,30
 275 233 275 233 315 371 c 1,31,32
 285 384 285 384 264 384 c 0,33,34
 228 384 228 384 202.5 313.5 c 128,-1,35
 177 243 177 243 177 158 c 128,-1,36
 177 73 177 73 214 73 c 0,27,28
358 705 m 0,37,38
 391 705 391 705 485 536 c 1,39,-1
 454 507 l 1,40,41
 368 574 368 574 325 590 c 1,42,43
 244 568 244 568 136 503 c 1,44,-1
 109 540 l 1,45,46
 162 591 162 591 246.5 648 c 128,-1,47
 331 705 331 705 358 705 c 0,37,38
EndSplineSet
EndChar

StartChar: atilde
Encoding: 227 227 165
Width: 480
GlyphClass: 2
Flags: W
LayerCount: 2
Fore
SplineSet
328 414 m 1,0,1
 330 416 330 416 339 440 c 1,2,3
 386 440 386 440 465 412 c 1,4,5
 440 329 440 329 425 238.5 c 128,-1,6
 410 148 410 148 410 109.5 c 128,-1,7
 410 71 410 71 418 71 c 0,8,9
 424 71 424 71 462 90 c 2,10,-1
 474 96 l 1,11,-1
 492 61 l 1,12,13
 483 53 483 53 468.5 41 c 128,-1,14
 454 29 454 29 414 8.5 c 128,-1,15
 374 -12 374 -12 342 -12 c 0,16,17
 280 -12 280 -12 270 44 c 1,18,19
 206 -12 206 -12 154.5 -12 c 128,-1,20
 103 -12 103 -12 67.5 28 c 128,-1,21
 32 68 32 68 32 154 c 0,22,23
 32 288 32 288 87 365.5 c 128,-1,24
 142 443 142 443 220 443 c 0,25,26
 276 443 276 443 328 414 c 1,0,1
214 73 m 0,27,28
 238 73 238 73 268 92 c 1,29,30
 275 233 275 233 315 371 c 1,31,32
 285 384 285 384 264 384 c 0,33,34
 228 384 228 384 202.5 313.5 c 128,-1,35
 177 243 177 243 177 158 c 128,-1,36
 177 73 177 73 214 73 c 0,27,28
115 531 m 1,37,38
 129 673 129 673 216 673 c 0,39,40
 250 673 250 673 315.5 655.5 c 128,-1,41
 381 638 381 638 408 638 c 128,-1,42
 435 638 435 638 446 644 c 128,-1,43
 457 650 457 650 471 674 c 1,44,-1
 502 668 l 1,45,46
 498 622 498 622 486 591 c 0,47,48
 463 532 463 532 400 532 c 0,49,50
 377 532 377 532 314.5 549.5 c 128,-1,51
 252 567 252 567 221.5 567 c 128,-1,52
 191 567 191 567 176.5 558.5 c 128,-1,53
 162 550 162 550 147 524 c 1,54,-1
 115 531 l 1,37,38
EndSplineSet
EndChar

StartChar: adieresis
Encoding: 228 228 166
Width: 480
GlyphClass: 2
Flags: W
LayerCount: 2
Fore
SplineSet
328 414 m 1,0,1
 330 416 330 416 339 440 c 1,2,3
 386 440 386 440 465 412 c 1,4,5
 440 329 440 329 425 238.5 c 128,-1,6
 410 148 410 148 410 109.5 c 128,-1,7
 410 71 410 71 418 71 c 0,8,9
 424 71 424 71 462 90 c 2,10,-1
 474 96 l 1,11,-1
 492 61 l 1,12,13
 483 53 483 53 468.5 41 c 128,-1,14
 454 29 454 29 414 8.5 c 128,-1,15
 374 -12 374 -12 342 -12 c 0,16,17
 280 -12 280 -12 270 44 c 1,18,19
 206 -12 206 -12 154.5 -12 c 128,-1,20
 103 -12 103 -12 67.5 28 c 128,-1,21
 32 68 32 68 32 154 c 0,22,23
 32 288 32 288 87 365.5 c 128,-1,24
 142 443 142 443 220 443 c 0,25,26
 276 443 276 443 328 414 c 1,0,1
214 73 m 0,27,28
 238 73 238 73 268 92 c 1,29,30
 275 233 275 233 315 371 c 1,31,32
 285 384 285 384 264 384 c 0,33,34
 228 384 228 384 202.5 313.5 c 128,-1,35
 177 243 177 243 177 158 c 128,-1,36
 177 73 177 73 214 73 c 0,27,28
161 557 m 128,-1,38
 145 575 145 575 145 605 c 128,-1,39
 145 635 145 635 167.5 656.5 c 128,-1,40
 190 678 190 678 219 678 c 0,41,42
 282 678 282 678 282 613 c 0,43,44
 282 584 282 584 259 561.5 c 128,-1,45
 236 539 236 539 206.5 539 c 128,-1,37
 177 539 177 539 161 557 c 128,-1,38
356.5 556.5 m 128,-1,47
 341 574 341 574 341 604.5 c 128,-1,48
 341 635 341 635 363.5 656.5 c 128,-1,49
 386 678 386 678 416 678 c 128,-1,50
 446 678 446 678 462 660.5 c 128,-1,51
 478 643 478 643 478 613.5 c 128,-1,52
 478 584 478 584 455 561.5 c 128,-1,53
 432 539 432 539 402 539 c 128,-1,46
 372 539 372 539 356.5 556.5 c 128,-1,47
EndSplineSet
EndChar

StartChar: aring
Encoding: 229 229 167
Width: 480
GlyphClass: 2
Flags: W
LayerCount: 2
Fore
SplineSet
328 414 m 1,0,1
 330 416 330 416 339 440 c 1,2,3
 386 440 386 440 465 412 c 1,4,5
 440 329 440 329 425 238.5 c 128,-1,6
 410 148 410 148 410 109.5 c 128,-1,7
 410 71 410 71 418 71 c 0,8,9
 424 71 424 71 462 90 c 2,10,-1
 474 96 l 1,11,-1
 492 61 l 1,12,13
 483 53 483 53 468.5 41 c 128,-1,14
 454 29 454 29 414 8.5 c 128,-1,15
 374 -12 374 -12 342 -12 c 0,16,17
 280 -12 280 -12 270 44 c 1,18,19
 206 -12 206 -12 154.5 -12 c 128,-1,20
 103 -12 103 -12 67.5 28 c 128,-1,21
 32 68 32 68 32 154 c 0,22,23
 32 288 32 288 87 365.5 c 128,-1,24
 142 443 142 443 220 443 c 0,25,26
 276 443 276 443 328 414 c 1,0,1
214 73 m 0,27,28
 238 73 238 73 268 92 c 1,29,30
 275 233 275 233 315 371 c 1,31,32
 285 384 285 384 264 384 c 0,33,34
 228 384 228 384 202.5 313.5 c 128,-1,35
 177 243 177 243 177 158 c 128,-1,36
 177 73 177 73 214 73 c 0,27,28
203 627 m 128,-1,38
 203 673 203 673 231.5 702.5 c 128,-1,39
 260 732 260 732 313 732 c 128,-1,40
 366 732 366 732 394.5 702.5 c 128,-1,41
 423 673 423 673 423 627 c 128,-1,42
 423 581 423 581 394.5 551 c 128,-1,43
 366 521 366 521 313 521 c 128,-1,44
 260 521 260 521 231.5 551 c 128,-1,37
 203 581 203 581 203 627 c 128,-1,38
261 627 m 128,-1,46
 261 605 261 605 274.5 591.5 c 128,-1,47
 288 578 288 578 312.5 578 c 128,-1,48
 337 578 337 578 349.5 591.5 c 128,-1,49
 362 605 362 605 362 627 c 128,-1,50
 362 649 362 649 349.5 662.5 c 128,-1,51
 337 676 337 676 312.5 676 c 128,-1,52
 288 676 288 676 274.5 662.5 c 128,-1,45
 261 649 261 649 261 627 c 128,-1,46
EndSplineSet
EndChar

StartChar: ae
Encoding: 230 230 168
Width: 634
GlyphClass: 2
Flags: W
LayerCount: 2
Fore
SplineSet
220 443 m 0,0,1
 275 443 275 443 326 415 c 1,2,3
 332 430 332 430 339 440 c 1,4,5
 367 435 367 435 411 414 c 1,6,7
 464 443 464 443 521 443 c 128,-1,8
 578 443 578 443 616 414 c 128,-1,9
 654 385 654 385 654 336.5 c 128,-1,10
 654 288 654 288 629.5 255 c 128,-1,11
 605 222 605 222 570 204 c 0,12,13
 499 169 499 169 440 160 c 1,14,-1
 416 157 l 1,15,16
 423 63 423 63 493 63 c 0,17,18
 517 63 517 63 544 75 c 128,-1,19
 571 87 571 87 586 99 c 2,20,-1
 601 111 l 1,21,-1
 625 79 l 1,22,23
 617 68 617 68 593 50 c 128,-1,24
 569 32 569 32 548 20 c 0,25,26
 490 -12 490 -12 428 -12 c 0,27,28
 335 -12 335 -12 297 70 c 1,29,30
 273 39 273 39 227 13.5 c 128,-1,31
 181 -12 181 -12 149 -12 c 0,32,33
 103 -12 103 -12 67.5 28 c 128,-1,34
 32 68 32 68 32 154 c 0,35,36
 32 288 32 288 87 365.5 c 128,-1,37
 142 443 142 443 220 443 c 0,0,1
285 106 m 1,38,39
 278 126 278 126 278 206 c 128,-1,40
 278 286 278 286 308 374 c 1,41,42
 285 384 285 384 264 384 c 0,43,44
 228 384 228 384 202.5 313.5 c 128,-1,45
 177 243 177 243 177 158 c 128,-1,46
 177 73 177 73 214.5 73 c 128,-1,47
 252 73 252 73 285 106 c 1,38,39
496 249 m 128,-1,49
 526 283 526 283 526 337 c 128,-1,50
 526 391 526 391 494 391 c 0,51,52
 456 391 456 391 435.5 326.5 c 128,-1,53
 415 262 415 262 415 206 c 1,54,48
 466 215 466 215 496 249 c 128,-1,49
EndSplineSet
EndChar

StartChar: ccedilla
Encoding: 231 231 169
Width: 381
GlyphClass: 2
Flags: W
LayerCount: 2
Fore
SplineSet
257 393 m 0,0,1
 217 393 217 393 193 326.5 c 128,-1,2
 169 260 169 260 169 184 c 0,3,4
 169 64 169 64 243 64 c 0,5,6
 267 64 267 64 294.5 75.5 c 128,-1,7
 322 87 322 87 337 98 c 2,8,-1
 352 110 l 1,9,-1
 375 79 l 1,10,11
 368 72 368 72 356 60.5 c 128,-1,12
 344 49 344 49 306.5 26 c 128,-1,13
 269 3 269 3 231 -6 c 1,14,15
 206 -24 206 -24 187.5 -50 c 128,-1,16
 169 -76 169 -76 169 -100.5 c 128,-1,17
 169 -125 169 -125 193 -125 c 128,-1,18
 217 -125 217 -125 250 -106 c 1,19,-1
 261 -99 l 1,20,-1
 279 -127 l 1,21,22
 272 -134 272 -134 260 -144.5 c 128,-1,23
 248 -155 248 -155 212 -172.5 c 128,-1,24
 176 -190 176 -190 145 -190 c 128,-1,25
 114 -190 114 -190 95 -171.5 c 128,-1,26
 76 -153 76 -153 76 -123.5 c 128,-1,27
 76 -94 76 -94 101 -63.5 c 128,-1,28
 126 -33 126 -33 158 -11 c 1,29,30
 90 -4 90 -4 56.5 46 c 128,-1,31
 23 96 23 96 23 176 c 0,32,33
 23 295 23 295 88.5 369 c 128,-1,34
 154 443 154 443 257 443 c 0,35,36
 324 443 324 443 363.5 412.5 c 128,-1,37
 403 382 403 382 403 337.5 c 128,-1,38
 403 293 403 293 375 261 c 1,39,40
 350 261 350 261 317 272 c 128,-1,41
 284 283 284 283 267 299 c 1,42,-1
 282 387 l 1,43,44
 273 393 273 393 257 393 c 0,0,1
EndSplineSet
EndChar

StartChar: egrave
Encoding: 232 232 170
Width: 385
GlyphClass: 2
Flags: W
LayerCount: 2
Fore
SplineSet
23 173 m 0,0,1
 23 298 23 298 98.5 370.5 c 128,-1,2
 174 443 174 443 270 443 c 0,3,4
 329 443 329 443 367 414 c 128,-1,5
 405 385 405 385 405 336.5 c 128,-1,6
 405 288 405 288 380.5 255 c 128,-1,7
 356 222 356 222 321 204 c 0,8,9
 250 169 250 169 192 160 c 1,10,-1
 167 157 l 1,11,12
 174 63 174 63 244 63 c 0,13,14
 268 63 268 63 295 75 c 128,-1,15
 322 87 322 87 337 99 c 2,16,-1
 352 111 l 1,17,-1
 376 79 l 1,18,19
 368 68 368 68 344 50 c 128,-1,20
 320 32 320 32 298 20 c 0,21,22
 241 -12 241 -12 172 -12 c 128,-1,23
 103 -12 103 -12 63 37 c 128,-1,24
 23 86 23 86 23 173 c 0,0,1
247 249 m 128,-1,26
 277 283 277 283 277 337 c 128,-1,27
 277 391 277 391 245 391 c 0,28,29
 207 391 207 391 186.5 326.5 c 128,-1,30
 166 262 166 262 166 206 c 1,31,25
 217 215 217 215 247 249 c 128,-1,26
154 693 m 0,32,33
 181 693 181 693 242 651 c 0,34,35
 258 640 258 640 270.5 631.5 c 128,-1,36
 283 623 283 623 302 609 c 128,-1,37
 321 595 321 595 333 586 c 0,38,39
 363 561 363 561 397 537 c 1,40,-1
 375 499 l 1,41,42
 252 546 252 546 83 600 c 1,43,44
 121 693 121 693 154 693 c 0,32,33
EndSplineSet
EndChar

StartChar: eacute
Encoding: 233 233 171
Width: 385
GlyphClass: 2
Flags: W
LayerCount: 2
Fore
SplineSet
23 173 m 0,0,1
 23 298 23 298 98.5 370.5 c 128,-1,2
 174 443 174 443 270 443 c 0,3,4
 329 443 329 443 367 414 c 128,-1,5
 405 385 405 385 405 336.5 c 128,-1,6
 405 288 405 288 380.5 255 c 128,-1,7
 356 222 356 222 321 204 c 0,8,9
 250 169 250 169 192 160 c 1,10,-1
 167 157 l 1,11,12
 174 63 174 63 244 63 c 0,13,14
 268 63 268 63 295 75 c 128,-1,15
 322 87 322 87 337 99 c 2,16,-1
 352 111 l 1,17,-1
 376 79 l 1,18,19
 368 68 368 68 344 50 c 128,-1,20
 320 32 320 32 298 20 c 0,21,22
 241 -12 241 -12 172 -12 c 128,-1,23
 103 -12 103 -12 63 37 c 128,-1,24
 23 86 23 86 23 173 c 0,0,1
247 249 m 128,-1,26
 277 283 277 283 277 337 c 128,-1,27
 277 391 277 391 245 391 c 0,28,29
 207 391 207 391 186.5 326.5 c 128,-1,30
 166 262 166 262 166 206 c 1,31,25
 217 215 217 215 247 249 c 128,-1,26
408 616 m 0,32,33
 408 588 408 588 372 571 c 0,34,35
 323 548 323 548 127 503 c 1,36,-1
 109 543 l 1,37,38
 203 592 203 592 279 643 c 128,-1,39
 355 694 355 694 373 705 c 1,40,41
 383 691 383 691 395.5 661 c 128,-1,42
 408 631 408 631 408 616 c 0,32,33
EndSplineSet
EndChar

StartChar: ecircumflex
Encoding: 234 234 172
Width: 385
GlyphClass: 2
Flags: W
LayerCount: 2
Fore
SplineSet
23 173 m 0,0,1
 23 298 23 298 98.5 370.5 c 128,-1,2
 174 443 174 443 270 443 c 0,3,4
 329 443 329 443 367 414 c 128,-1,5
 405 385 405 385 405 336.5 c 128,-1,6
 405 288 405 288 380.5 255 c 128,-1,7
 356 222 356 222 321 204 c 0,8,9
 250 169 250 169 192 160 c 1,10,-1
 167 157 l 1,11,12
 174 63 174 63 244 63 c 0,13,14
 268 63 268 63 295 75 c 128,-1,15
 322 87 322 87 337 99 c 2,16,-1
 352 111 l 1,17,-1
 376 79 l 1,18,19
 368 68 368 68 344 50 c 128,-1,20
 320 32 320 32 298 20 c 0,21,22
 241 -12 241 -12 172 -12 c 128,-1,23
 103 -12 103 -12 63 37 c 128,-1,24
 23 86 23 86 23 173 c 0,0,1
247 249 m 128,-1,26
 277 283 277 283 277 337 c 128,-1,27
 277 391 277 391 245 391 c 0,28,29
 207 391 207 391 186.5 326.5 c 128,-1,30
 166 262 166 262 166 206 c 1,31,25
 217 215 217 215 247 249 c 128,-1,26
328 705 m 0,32,33
 361 705 361 705 455 536 c 1,34,-1
 424 507 l 1,35,36
 338 574 338 574 295 590 c 1,37,38
 214 568 214 568 106 503 c 1,39,-1
 79 540 l 1,40,41
 132 591 132 591 216.5 648 c 128,-1,42
 301 705 301 705 328 705 c 0,32,33
EndSplineSet
EndChar

StartChar: edieresis
Encoding: 235 235 173
Width: 385
GlyphClass: 2
Flags: W
LayerCount: 2
Fore
SplineSet
23 173 m 0,0,1
 23 298 23 298 98.5 370.5 c 128,-1,2
 174 443 174 443 270 443 c 0,3,4
 329 443 329 443 367 414 c 128,-1,5
 405 385 405 385 405 336.5 c 128,-1,6
 405 288 405 288 380.5 255 c 128,-1,7
 356 222 356 222 321 204 c 0,8,9
 250 169 250 169 192 160 c 1,10,-1
 167 157 l 1,11,12
 174 63 174 63 244 63 c 0,13,14
 268 63 268 63 295 75 c 128,-1,15
 322 87 322 87 337 99 c 2,16,-1
 352 111 l 1,17,-1
 376 79 l 1,18,19
 368 68 368 68 344 50 c 128,-1,20
 320 32 320 32 298 20 c 0,21,22
 241 -12 241 -12 172 -12 c 128,-1,23
 103 -12 103 -12 63 37 c 128,-1,24
 23 86 23 86 23 173 c 0,0,1
247 249 m 128,-1,26
 277 283 277 283 277 337 c 128,-1,27
 277 391 277 391 245 391 c 0,28,29
 207 391 207 391 186.5 326.5 c 128,-1,30
 166 262 166 262 166 206 c 1,31,25
 217 215 217 215 247 249 c 128,-1,26
122 557 m 128,-1,33
 106 575 106 575 106 605 c 128,-1,34
 106 635 106 635 128.5 656.5 c 128,-1,35
 151 678 151 678 180 678 c 0,36,37
 243 678 243 678 243 613 c 0,38,39
 243 584 243 584 220 561.5 c 128,-1,40
 197 539 197 539 167.5 539 c 128,-1,32
 138 539 138 539 122 557 c 128,-1,33
317.5 556.5 m 128,-1,42
 302 574 302 574 302 604.5 c 128,-1,43
 302 635 302 635 324.5 656.5 c 128,-1,44
 347 678 347 678 377 678 c 128,-1,45
 407 678 407 678 423 660.5 c 128,-1,46
 439 643 439 643 439 613.5 c 128,-1,47
 439 584 439 584 416 561.5 c 128,-1,48
 393 539 393 539 363 539 c 128,-1,41
 333 539 333 539 317.5 556.5 c 128,-1,42
EndSplineSet
EndChar

StartChar: igrave
Encoding: 236 236 174
Width: 273
GlyphClass: 2
Flags: W
LayerCount: 2
Fore
SplineSet
96 688 m 0,0,1
 116 688 116 688 153.5 663.5 c 128,-1,2
 191 639 191 639 221.5 612 c 128,-1,3
 252 585 252 585 306 536 c 1,4,-1
 284 498 l 1,5,6
 81 577 81 577 25 595 c 1,7,8
 63 688 63 688 96 688 c 0,0,1
183 98 m 0,9,10
 183 71 183 71 192 71 c 0,11,12
 198 71 198 71 238 90 c 2,13,-1
 250 96 l 1,14,-1
 267 61 l 1,15,16
 258 53 258 53 243 41 c 128,-1,17
 228 29 228 29 187 8.5 c 128,-1,18
 146 -12 146 -12 111 -12 c 128,-1,19
 76 -12 76 -12 56 9.5 c 128,-1,20
 36 31 36 31 36 67.5 c 128,-1,21
 36 104 36 104 61 197.5 c 128,-1,22
 86 291 86 291 86 319 c 0,23,24
 86 361 86 361 60 398 c 1,25,-1
 51 410 l 1,26,-1
 52 423 l 1,27,28
 105 438 105 438 224 438 c 1,29,30
 237 423 237 423 237 380 c 128,-1,31
 237 337 237 337 211 237.5 c 128,-1,32
 185 138 185 138 184 120.5 c 128,-1,33
 183 103 183 103 183 98 c 0,9,10
EndSplineSet
EndChar

StartChar: iacute
Encoding: 237 237 175
Width: 273
GlyphClass: 2
Flags: W
LayerCount: 2
Fore
SplineSet
49 545 m 1,0,1
 133 590 133 590 287 700 c 1,2,3
 297 686 297 686 309.5 656 c 128,-1,4
 322 626 322 626 322 611 c 0,5,6
 322 583 322 583 286 566 c 0,7,8
 210 531 210 531 67 504 c 1,9,-1
 49 545 l 1,0,1
183 98 m 0,10,11
 183 71 183 71 192 71 c 0,12,13
 198 71 198 71 238 90 c 2,14,-1
 250 96 l 1,15,-1
 267 61 l 1,16,17
 258 53 258 53 243 41 c 128,-1,18
 228 29 228 29 187 8.5 c 128,-1,19
 146 -12 146 -12 111 -12 c 128,-1,20
 76 -12 76 -12 56 9.5 c 128,-1,21
 36 31 36 31 36 67.5 c 128,-1,22
 36 104 36 104 61 197.5 c 128,-1,23
 86 291 86 291 86 319 c 0,24,25
 86 361 86 361 60 398 c 1,26,-1
 51 410 l 1,27,-1
 52 423 l 1,28,29
 105 438 105 438 224 438 c 1,30,31
 237 423 237 423 237 380 c 128,-1,32
 237 337 237 337 211 237.5 c 128,-1,33
 185 138 185 138 184 120.5 c 128,-1,34
 183 103 183 103 183 98 c 0,10,11
EndSplineSet
EndChar

StartChar: icircumflex
Encoding: 238 238 176
Width: 273
GlyphClass: 2
Flags: W
LayerCount: 2
Fore
SplineSet
238 705 m 0,0,1
 266 705 266 705 349 539 c 1,2,-1
 316 507 l 1,3,4
 312 510 312 510 300 521 c 128,-1,5
 288 532 288 532 283.5 536 c 128,-1,6
 279 540 279 540 269 549 c 128,-1,7
 259 558 259 558 253 562 c 128,-1,8
 247 566 247 566 238 572 c 0,9,10
 219 586 219 586 208 590 c 1,11,12
 145 570 145 570 49 503 c 1,13,-1
 21 543 l 1,14,15
 66 593 66 593 140 649 c 128,-1,16
 214 705 214 705 238 705 c 0,0,1
183 98 m 0,17,18
 183 71 183 71 192 71 c 0,19,20
 198 71 198 71 238 90 c 2,21,-1
 250 96 l 1,22,-1
 267 61 l 1,23,24
 258 53 258 53 243 41 c 128,-1,25
 228 29 228 29 187 8.5 c 128,-1,26
 146 -12 146 -12 111 -12 c 128,-1,27
 76 -12 76 -12 56 9.5 c 128,-1,28
 36 31 36 31 36 67.5 c 128,-1,29
 36 104 36 104 61 197.5 c 128,-1,30
 86 291 86 291 86 319 c 0,31,32
 86 361 86 361 60 398 c 1,33,-1
 51 410 l 1,34,-1
 52 423 l 1,35,36
 105 438 105 438 224 438 c 1,37,38
 237 423 237 423 237 380 c 128,-1,39
 237 337 237 337 211 237.5 c 128,-1,40
 185 138 185 138 184 120.5 c 128,-1,41
 183 103 183 103 183 98 c 0,17,18
EndSplineSet
EndChar

StartChar: idieresis
Encoding: 239 239 177
Width: 285
GlyphClass: 2
Flags: W
LayerCount: 2
Fore
SplineSet
51 604 m 0,0,1
 51 635 51 635 72 656.5 c 128,-1,2
 93 678 93 678 122 678 c 0,3,4
 184 678 184 678 184 613 c 0,5,6
 184 584 184 584 161.5 561.5 c 128,-1,7
 139 539 139 539 109 539 c 0,8,9
 51 539 51 539 51 604 c 0,0,1
232 556.5 m 128,-1,11
 217 574 217 574 217 604.5 c 128,-1,12
 217 635 217 635 239 656.5 c 128,-1,13
 261 678 261 678 290 678 c 0,14,15
 351 678 351 678 351 613 c 0,16,17
 351 584 351 584 329 561.5 c 128,-1,18
 307 539 307 539 277 539 c 128,-1,10
 247 539 247 539 232 556.5 c 128,-1,11
191 98 m 0,19,20
 191 71 191 71 200 71 c 0,21,22
 206 71 206 71 246 90 c 2,23,-1
 258 96 l 1,24,-1
 275 61 l 1,25,26
 266 53 266 53 251 41 c 128,-1,27
 236 29 236 29 195 8.5 c 128,-1,28
 154 -12 154 -12 119 -12 c 128,-1,29
 84 -12 84 -12 64 9.5 c 128,-1,30
 44 31 44 31 44 67.5 c 128,-1,31
 44 104 44 104 69 197.5 c 128,-1,32
 94 291 94 291 94 319 c 0,33,34
 94 361 94 361 68 398 c 1,35,-1
 59 410 l 1,36,-1
 60 423 l 1,37,38
 113 438 113 438 232 438 c 1,39,40
 245 423 245 423 245 380 c 128,-1,41
 245 337 245 337 219 237.5 c 128,-1,42
 193 138 193 138 192 120.5 c 128,-1,43
 191 103 191 103 191 98 c 0,19,20
EndSplineSet
EndChar

StartChar: eth
Encoding: 240 240 178
Width: 474
GlyphClass: 2
Flags: W
LayerCount: 2
Fore
SplineSet
464 301 m 0,0,1
 464 208 464 208 428 130 c 0,2,3
 361 -12 361 -12 210 -12 c 0,4,5
 119 -12 119 -12 70.5 40.5 c 128,-1,6
 22 93 22 93 22 186.5 c 128,-1,7
 22 280 22 280 88 361.5 c 128,-1,8
 154 443 154 443 257 443 c 0,9,10
 279 443 279 443 304 438 c 1,11,12
 293 498 293 498 275 543 c 1,13,-1
 158 508 l 1,14,15
 141 527 141 527 141 566 c 1,16,-1
 246 597 l 1,17,18
 205 659 205 659 137 697 c 1,19,-1
 160 734 l 1,20,21
 264 707 264 707 341 624 c 1,22,-1
 466 661 l 1,23,24
 478 630 478 630 478 607 c 1,25,-1
 477 603 l 1,26,-1
 380 574 l 1,27,28
 464 449 464 449 464 301 c 0,0,1
314 298 m 0,29,30
 314 341 314 341 311 380 c 1,31,32
 297 383 297 383 285 383 c 0,33,34
 223 383 223 383 192.5 316 c 128,-1,35
 162 249 162 249 162 164 c 0,36,37
 162 51 162 51 221 51 c 0,38,39
 270 51 270 51 292 123 c 128,-1,40
 314 195 314 195 314 298 c 0,29,30
EndSplineSet
EndChar

StartChar: ntilde
Encoding: 241 241 179
Width: 508
GlyphClass: 2
Flags: W
LayerCount: 2
Fore
SplineSet
57 -3 m 2,0,-1
 38 -3 l 1,1,2
 38 44 38 44 66.5 177 c 128,-1,3
 95 310 95 310 95 328 c 0,4,5
 95 361 95 361 67 398 c 2,6,-1
 58 410 l 1,7,-1
 59 423 l 1,8,9
 113 438 113 438 232 438 c 1,10,11
 245 421 245 421 246 376 c 1,12,13
 333 443 333 443 393 443 c 0,14,15
 429 443 429 443 450.5 418 c 128,-1,16
 472 393 472 393 472 355.5 c 128,-1,17
 472 318 472 318 449 226 c 128,-1,18
 426 134 426 134 426 102.5 c 128,-1,19
 426 71 426 71 434 71 c 0,20,21
 440 71 440 71 476 90 c 2,22,-1
 488 96 l 1,23,-1
 506 61 l 1,24,25
 497 53 497 53 482 41 c 128,-1,26
 467 29 467 29 426.5 8.5 c 128,-1,27
 386 -12 386 -12 354 -12 c 0,28,29
 281 -12 281 -12 281 71 c 0,30,31
 281 106 281 106 303.5 200 c 128,-1,32
 326 294 326 294 326 321 c 128,-1,33
 326 348 326 348 309 348 c 0,34,35
 280 348 280 348 238 323 c 1,36,37
 235 306 235 306 218 233 c 0,38,39
 183 76 183 76 183 11 c 1,40,41
 148 -3 148 -3 57 -3 c 2,0,-1
131 525 m 1,42,43
 145 667 145 667 232 667 c 0,44,45
 266 667 266 667 331.5 649.5 c 128,-1,46
 397 632 397 632 424 632 c 128,-1,47
 451 632 451 632 462 638 c 128,-1,48
 473 644 473 644 487 668 c 1,49,-1
 518 662 l 1,50,51
 514 616 514 616 502 585 c 0,52,53
 479 526 479 526 416 526 c 0,54,55
 393 526 393 526 330.5 543.5 c 128,-1,56
 268 561 268 561 237.5 561 c 128,-1,57
 207 561 207 561 192.5 552.5 c 128,-1,58
 178 544 178 544 163 518 c 1,59,-1
 131 525 l 1,42,43
EndSplineSet
EndChar

StartChar: ograve
Encoding: 242 242 180
Width: 409
GlyphClass: 2
Flags: W
LayerCount: 2
Fore
SplineSet
170 -12 m 0,0,1
 101 -12 101 -12 62 36.5 c 128,-1,2
 23 85 23 85 23 172 c 0,3,4
 23 283 23 283 82.5 363 c 128,-1,5
 142 443 142 443 247 443 c 1,6,-1
 283 441 l 1,7,8
 300 450 300 450 321 450 c 0,9,10
 400 450 400 450 400 301 c 1,11,12
 441 303 441 303 483 312 c 1,13,-1
 499 316 l 1,14,-1
 505 277 l 1,15,16
 472 263 472 263 416 252 c 2,17,-1
 396 248 l 1,18,19
 377 143 377 143 319 65.5 c 128,-1,20
 261 -12 261 -12 170 -12 c 0,0,1
224 74 m 0,21,22
 266 74 266 74 299.5 128 c 128,-1,23
 333 182 333 182 346 242 c 1,24,25
 239 242 239 242 239 322 c 0,26,27
 239 354 239 354 252 382 c 2,28,-1
 257 392 l 1,29,30
 253 394 253 394 247 394 c 128,-1,31
 241 394 241 394 238 392 c 0,32,33
 213 376 213 376 191 317 c 128,-1,34
 169 258 169 258 169 182 c 0,35,36
 169 74 169 74 224 74 c 0,21,22
174 693 m 0,37,38
 201 693 201 693 262 651 c 0,39,40
 278 640 278 640 290.5 631.5 c 128,-1,41
 303 623 303 623 322 609 c 128,-1,42
 341 595 341 595 353 586 c 0,43,44
 383 561 383 561 417 537 c 1,45,-1
 395 499 l 1,46,47
 272 546 272 546 103 600 c 1,48,49
 141 693 141 693 174 693 c 0,37,38
EndSplineSet
EndChar

StartChar: oacute
Encoding: 243 243 181
Width: 409
GlyphClass: 2
Flags: W
LayerCount: 2
Fore
SplineSet
170 -12 m 0,0,1
 101 -12 101 -12 62 36.5 c 128,-1,2
 23 85 23 85 23 172 c 0,3,4
 23 283 23 283 82.5 363 c 128,-1,5
 142 443 142 443 247 443 c 1,6,-1
 283 441 l 1,7,8
 300 450 300 450 321 450 c 0,9,10
 400 450 400 450 400 301 c 1,11,12
 441 303 441 303 483 312 c 1,13,-1
 499 316 l 1,14,-1
 505 277 l 1,15,16
 472 263 472 263 416 252 c 2,17,-1
 396 248 l 1,18,19
 377 143 377 143 319 65.5 c 128,-1,20
 261 -12 261 -12 170 -12 c 0,0,1
224 74 m 0,21,22
 266 74 266 74 299.5 128 c 128,-1,23
 333 182 333 182 346 242 c 1,24,25
 239 242 239 242 239 322 c 0,26,27
 239 354 239 354 252 382 c 2,28,-1
 257 392 l 1,29,30
 253 394 253 394 247 394 c 128,-1,31
 241 394 241 394 238 392 c 0,32,33
 213 376 213 376 191 317 c 128,-1,34
 169 258 169 258 169 182 c 0,35,36
 169 74 169 74 224 74 c 0,21,22
420 616 m 0,37,38
 420 588 420 588 384 571 c 0,39,40
 335 548 335 548 139 503 c 1,41,-1
 121 543 l 1,42,43
 215 592 215 592 291 643 c 128,-1,44
 367 694 367 694 385 705 c 1,45,46
 395 691 395 691 407.5 661 c 128,-1,47
 420 631 420 631 420 616 c 0,37,38
EndSplineSet
EndChar

StartChar: ocircumflex
Encoding: 244 244 182
Width: 409
GlyphClass: 2
Flags: W
LayerCount: 2
Fore
SplineSet
170 -12 m 0,0,1
 101 -12 101 -12 62 36.5 c 128,-1,2
 23 85 23 85 23 172 c 0,3,4
 23 283 23 283 82.5 363 c 128,-1,5
 142 443 142 443 247 443 c 1,6,-1
 283 441 l 1,7,8
 300 450 300 450 321 450 c 0,9,10
 400 450 400 450 400 301 c 1,11,12
 441 303 441 303 483 312 c 1,13,-1
 499 316 l 1,14,-1
 505 277 l 1,15,16
 472 263 472 263 416 252 c 2,17,-1
 396 248 l 1,18,19
 377 143 377 143 319 65.5 c 128,-1,20
 261 -12 261 -12 170 -12 c 0,0,1
224 74 m 0,21,22
 266 74 266 74 299.5 128 c 128,-1,23
 333 182 333 182 346 242 c 1,24,25
 239 242 239 242 239 322 c 0,26,27
 239 354 239 354 252 382 c 2,28,-1
 257 392 l 1,29,30
 253 394 253 394 247 394 c 128,-1,31
 241 394 241 394 238 392 c 0,32,33
 213 376 213 376 191 317 c 128,-1,34
 169 258 169 258 169 182 c 0,35,36
 169 74 169 74 224 74 c 0,21,22
328 705 m 0,37,38
 361 705 361 705 455 536 c 1,39,-1
 424 507 l 1,40,41
 338 574 338 574 295 590 c 1,42,43
 214 568 214 568 106 503 c 1,44,-1
 79 540 l 1,45,46
 132 591 132 591 216.5 648 c 128,-1,47
 301 705 301 705 328 705 c 0,37,38
EndSplineSet
EndChar

StartChar: otilde
Encoding: 245 245 183
Width: 409
GlyphClass: 2
Flags: W
LayerCount: 2
Fore
SplineSet
170 -12 m 0,0,1
 101 -12 101 -12 62 36.5 c 128,-1,2
 23 85 23 85 23 172 c 0,3,4
 23 283 23 283 82.5 363 c 128,-1,5
 142 443 142 443 247 443 c 1,6,-1
 283 441 l 1,7,8
 300 450 300 450 321 450 c 0,9,10
 400 450 400 450 400 301 c 1,11,12
 441 303 441 303 483 312 c 1,13,-1
 499 316 l 1,14,-1
 505 277 l 1,15,16
 472 263 472 263 416 252 c 2,17,-1
 396 248 l 1,18,19
 377 143 377 143 319 65.5 c 128,-1,20
 261 -12 261 -12 170 -12 c 0,0,1
224 74 m 0,21,22
 266 74 266 74 299.5 128 c 128,-1,23
 333 182 333 182 346 242 c 1,24,25
 239 242 239 242 239 322 c 0,26,27
 239 354 239 354 252 382 c 2,28,-1
 257 392 l 1,29,30
 253 394 253 394 247 394 c 128,-1,31
 241 394 241 394 238 392 c 0,32,33
 213 376 213 376 191 317 c 128,-1,34
 169 258 169 258 169 182 c 0,35,36
 169 74 169 74 224 74 c 0,21,22
67 531 m 1,37,38
 81 673 81 673 168 673 c 0,39,40
 202 673 202 673 267.5 655.5 c 128,-1,41
 333 638 333 638 360 638 c 128,-1,42
 387 638 387 638 398 644 c 128,-1,43
 409 650 409 650 423 674 c 1,44,-1
 454 668 l 1,45,46
 450 622 450 622 438 591 c 0,47,48
 415 532 415 532 352 532 c 0,49,50
 329 532 329 532 266.5 549.5 c 128,-1,51
 204 567 204 567 173.5 567 c 128,-1,52
 143 567 143 567 128.5 558.5 c 128,-1,53
 114 550 114 550 99 524 c 1,54,-1
 67 531 l 1,37,38
EndSplineSet
EndChar

StartChar: odieresis
Encoding: 246 246 184
Width: 409
GlyphClass: 2
Flags: W
LayerCount: 2
Fore
SplineSet
170 -12 m 0,0,1
 101 -12 101 -12 62 36.5 c 128,-1,2
 23 85 23 85 23 172 c 0,3,4
 23 283 23 283 82.5 363 c 128,-1,5
 142 443 142 443 247 443 c 1,6,-1
 283 441 l 1,7,8
 300 450 300 450 321 450 c 0,9,10
 400 450 400 450 400 301 c 1,11,12
 441 303 441 303 483 312 c 1,13,-1
 499 316 l 1,14,-1
 505 277 l 1,15,16
 472 263 472 263 416 252 c 2,17,-1
 396 248 l 1,18,19
 377 143 377 143 319 65.5 c 128,-1,20
 261 -12 261 -12 170 -12 c 0,0,1
224 74 m 0,21,22
 266 74 266 74 299.5 128 c 128,-1,23
 333 182 333 182 346 242 c 1,24,25
 239 242 239 242 239 322 c 0,26,27
 239 354 239 354 252 382 c 2,28,-1
 257 392 l 1,29,30
 253 394 253 394 247 394 c 128,-1,31
 241 394 241 394 238 392 c 0,32,33
 213 376 213 376 191 317 c 128,-1,34
 169 258 169 258 169 182 c 0,35,36
 169 74 169 74 224 74 c 0,21,22
122 557 m 128,-1,38
 106 575 106 575 106 605 c 128,-1,39
 106 635 106 635 128.5 656.5 c 128,-1,40
 151 678 151 678 180 678 c 0,41,42
 243 678 243 678 243 613 c 0,43,44
 243 584 243 584 220 561.5 c 128,-1,45
 197 539 197 539 167.5 539 c 128,-1,37
 138 539 138 539 122 557 c 128,-1,38
317.5 556.5 m 128,-1,47
 302 574 302 574 302 604.5 c 128,-1,48
 302 635 302 635 324.5 656.5 c 128,-1,49
 347 678 347 678 377 678 c 128,-1,50
 407 678 407 678 423 660.5 c 128,-1,51
 439 643 439 643 439 613.5 c 128,-1,52
 439 584 439 584 416 561.5 c 128,-1,53
 393 539 393 539 363 539 c 128,-1,46
 333 539 333 539 317.5 556.5 c 128,-1,47
EndSplineSet
EndChar

StartChar: divide
Encoding: 247 247 185
Width: 512
GlyphClass: 2
Flags: W
LayerCount: 2
Fore
SplineSet
70 238 m 1,0,1
 70 301 70 301 81 325 c 1,2,-1
 450 325 l 1,3,4
 450 258 450 258 444 238 c 1,5,-1
 70 238 l 1,0,1
206 402 m 128,-1,7
 190 420 190 420 190 449.5 c 128,-1,8
 190 479 190 479 212 501 c 128,-1,9
 234 523 234 523 264 523 c 128,-1,10
 294 523 294 523 310.5 505 c 128,-1,11
 327 487 327 487 327 458.5 c 128,-1,12
 327 430 327 430 304.5 407 c 128,-1,13
 282 384 282 384 252 384 c 128,-1,6
 222 384 222 384 206 402 c 128,-1,7
198 58 m 128,-1,15
 182 76 182 76 182 105.5 c 128,-1,16
 182 135 182 135 204 157 c 128,-1,17
 226 179 226 179 256 179 c 128,-1,18
 286 179 286 179 302.5 161 c 128,-1,19
 319 143 319 143 319 114.5 c 128,-1,20
 319 86 319 86 296.5 63 c 128,-1,21
 274 40 274 40 244 40 c 128,-1,14
 214 40 214 40 198 58 c 128,-1,15
EndSplineSet
EndChar

StartChar: oslash
Encoding: 248 248 186
Width: 412
GlyphClass: 2
Flags: W
LayerCount: 2
Fore
SplineSet
23 172 m 0,0,1
 23 283 23 283 82.5 363 c 128,-1,2
 142 443 142 443 247 443 c 0,3,4
 271 443 271 443 279 441 c 1,5,-1
 306 527 l 1,6,7
 338 527 338 527 368 508 c 1,8,9
 354 467 354 467 340 420 c 1,10,11
 399 384 399 384 400 284 c 0,12,13
 400 230 400 230 379 170 c 128,-1,14
 358 110 358 110 314 58.5 c 128,-1,15
 270 7 270 7 214 -7 c 1,16,-1
 191 -92 l 1,17,18
 160 -92 160 -92 138 -83 c 1,19,-1
 131 -78 l 1,20,-1
 150 -10 l 1,21,22
 91 -2 91 -2 57 46 c 128,-1,23
 23 94 23 94 23 172 c 0,0,1
185 317.5 m 128,-1,25
 152 250 152 250 152 181.5 c 128,-1,26
 152 113 152 113 178 89 c 1,27,28
 236 300 236 300 263 389 c 1,29,24
 218 385 218 385 185 317.5 c 128,-1,25
309.5 151.5 m 128,-1,31
 342 213 342 213 342 275.5 c 128,-1,32
 342 338 342 338 322 364 c 1,33,34
 276 219 276 219 237 77 c 1,35,30
 277 90 277 90 309.5 151.5 c 128,-1,31
EndSplineSet
EndChar

StartChar: ugrave
Encoding: 249 249 187
Width: 499
GlyphClass: 2
Flags: W
LayerCount: 2
Fore
SplineSet
64 221.5 m 128,-1,1
 90 325 90 325 90 348.5 c 128,-1,2
 90 372 90 372 54 411 c 1,3,-1
 55 424 l 1,4,5
 123 438 123 438 234 438 c 1,6,7
 239 425 239 425 239 391 c 128,-1,8
 239 357 239 357 211 246 c 128,-1,9
 183 135 183 135 183 108 c 128,-1,10
 183 81 183 81 203 81 c 0,11,12
 232 81 232 81 270 102 c 1,13,14
 274 126 274 126 290 194 c 0,15,16
 326 354 326 354 326 423 c 1,17,18
 361 437 361 437 452 437 c 2,19,-1
 471 437 l 1,20,21
 471 390 471 390 443 253.5 c 128,-1,22
 415 117 415 117 415 93.5 c 128,-1,23
 415 70 415 70 425 70 c 0,24,25
 431 70 431 70 482 94 c 1,26,-1
 501 62 l 1,27,28
 412 -12 412 -12 345 -12 c 0,29,30
 313 -12 313 -12 290.5 6 c 128,-1,31
 268 24 268 24 265 53 c 1,32,33
 184 -13 184 -13 118 -13 c 0,34,35
 83 -13 83 -13 60.5 10 c 128,-1,36
 38 33 38 33 38 75.5 c 128,-1,0
 38 118 38 118 64 221.5 c 128,-1,1
183 693 m 0,37,38
 210 693 210 693 271 651 c 0,39,40
 287 640 287 640 299.5 631.5 c 128,-1,41
 312 623 312 623 331 609 c 128,-1,42
 350 595 350 595 362 586 c 0,43,44
 392 561 392 561 426 537 c 1,45,-1
 404 499 l 1,46,47
 281 546 281 546 112 600 c 1,48,49
 150 693 150 693 183 693 c 0,37,38
EndSplineSet
EndChar

StartChar: uacute
Encoding: 250 250 188
Width: 499
GlyphClass: 2
Flags: W
LayerCount: 2
Fore
SplineSet
64 221.5 m 128,-1,1
 90 325 90 325 90 348.5 c 128,-1,2
 90 372 90 372 54 411 c 1,3,-1
 55 424 l 1,4,5
 123 438 123 438 234 438 c 1,6,7
 239 425 239 425 239 391 c 128,-1,8
 239 357 239 357 211 246 c 128,-1,9
 183 135 183 135 183 108 c 128,-1,10
 183 81 183 81 203 81 c 0,11,12
 232 81 232 81 270 102 c 1,13,14
 274 126 274 126 290 194 c 0,15,16
 326 354 326 354 326 423 c 1,17,18
 361 437 361 437 452 437 c 2,19,-1
 471 437 l 1,20,21
 471 390 471 390 443 253.5 c 128,-1,22
 415 117 415 117 415 93.5 c 128,-1,23
 415 70 415 70 425 70 c 0,24,25
 431 70 431 70 482 94 c 1,26,-1
 501 62 l 1,27,28
 412 -12 412 -12 345 -12 c 0,29,30
 313 -12 313 -12 290.5 6 c 128,-1,31
 268 24 268 24 265 53 c 1,32,33
 184 -13 184 -13 118 -13 c 0,34,35
 83 -13 83 -13 60.5 10 c 128,-1,36
 38 33 38 33 38 75.5 c 128,-1,0
 38 118 38 118 64 221.5 c 128,-1,1
459 616 m 0,37,38
 459 588 459 588 423 571 c 0,39,40
 374 548 374 548 178 503 c 1,41,-1
 160 543 l 1,42,43
 254 592 254 592 330 643 c 128,-1,44
 406 694 406 694 424 705 c 1,45,46
 434 691 434 691 446.5 661 c 128,-1,47
 459 631 459 631 459 616 c 0,37,38
EndSplineSet
EndChar

StartChar: ucircumflex
Encoding: 251 251 189
Width: 499
GlyphClass: 2
Flags: W
LayerCount: 2
Fore
SplineSet
64 221.5 m 128,-1,1
 90 325 90 325 90 348.5 c 128,-1,2
 90 372 90 372 54 411 c 1,3,-1
 55 424 l 1,4,5
 123 438 123 438 234 438 c 1,6,7
 239 425 239 425 239 391 c 128,-1,8
 239 357 239 357 211 246 c 128,-1,9
 183 135 183 135 183 108 c 128,-1,10
 183 81 183 81 203 81 c 0,11,12
 232 81 232 81 270 102 c 1,13,14
 274 126 274 126 290 194 c 0,15,16
 326 354 326 354 326 423 c 1,17,18
 361 437 361 437 452 437 c 2,19,-1
 471 437 l 1,20,21
 471 390 471 390 443 253.5 c 128,-1,22
 415 117 415 117 415 93.5 c 128,-1,23
 415 70 415 70 425 70 c 0,24,25
 431 70 431 70 482 94 c 1,26,-1
 501 62 l 1,27,28
 412 -12 412 -12 345 -12 c 0,29,30
 313 -12 313 -12 290.5 6 c 128,-1,31
 268 24 268 24 265 53 c 1,32,33
 184 -13 184 -13 118 -13 c 0,34,35
 83 -13 83 -13 60.5 10 c 128,-1,36
 38 33 38 33 38 75.5 c 128,-1,0
 38 118 38 118 64 221.5 c 128,-1,1
348 705 m 0,37,38
 381 705 381 705 475 536 c 1,39,-1
 444 507 l 1,40,41
 358 574 358 574 315 590 c 1,42,43
 234 568 234 568 126 503 c 1,44,-1
 99 540 l 1,45,46
 152 591 152 591 236.5 648 c 128,-1,47
 321 705 321 705 348 705 c 0,37,38
EndSplineSet
EndChar

StartChar: udieresis
Encoding: 252 252 190
Width: 499
GlyphClass: 2
Flags: W
LayerCount: 2
Fore
SplineSet
64 221.5 m 128,-1,1
 90 325 90 325 90 348.5 c 128,-1,2
 90 372 90 372 54 411 c 1,3,-1
 55 424 l 1,4,5
 123 438 123 438 234 438 c 1,6,7
 239 425 239 425 239 391 c 128,-1,8
 239 357 239 357 211 246 c 128,-1,9
 183 135 183 135 183 108 c 128,-1,10
 183 81 183 81 203 81 c 0,11,12
 232 81 232 81 270 102 c 1,13,14
 274 126 274 126 290 194 c 0,15,16
 326 354 326 354 326 423 c 1,17,18
 361 437 361 437 452 437 c 2,19,-1
 471 437 l 1,20,21
 471 390 471 390 443 253.5 c 128,-1,22
 415 117 415 117 415 93.5 c 128,-1,23
 415 70 415 70 425 70 c 0,24,25
 431 70 431 70 482 94 c 1,26,-1
 501 62 l 1,27,28
 412 -12 412 -12 345 -12 c 0,29,30
 313 -12 313 -12 290.5 6 c 128,-1,31
 268 24 268 24 265 53 c 1,32,33
 184 -13 184 -13 118 -13 c 0,34,35
 83 -13 83 -13 60.5 10 c 128,-1,36
 38 33 38 33 38 75.5 c 128,-1,0
 38 118 38 118 64 221.5 c 128,-1,1
161 557 m 128,-1,38
 145 575 145 575 145 605 c 128,-1,39
 145 635 145 635 167.5 656.5 c 128,-1,40
 190 678 190 678 219 678 c 0,41,42
 282 678 282 678 282 613 c 0,43,44
 282 584 282 584 259 561.5 c 128,-1,45
 236 539 236 539 206.5 539 c 128,-1,37
 177 539 177 539 161 557 c 128,-1,38
356.5 556.5 m 128,-1,47
 341 574 341 574 341 604.5 c 128,-1,48
 341 635 341 635 363.5 656.5 c 128,-1,49
 386 678 386 678 416 678 c 128,-1,50
 446 678 446 678 462 660.5 c 128,-1,51
 478 643 478 643 478 613.5 c 128,-1,52
 478 584 478 584 455 561.5 c 128,-1,53
 432 539 432 539 402 539 c 128,-1,46
 372 539 372 539 356.5 556.5 c 128,-1,47
EndSplineSet
EndChar

StartChar: yacute
Encoding: 253 253 191
Width: 457
GlyphClass: 2
Flags: W
LayerCount: 2
Fore
SplineSet
117 -4 m 0,0,1
 34 -4 34 -4 34 88 c 0,2,3
 34 110 34 110 54 215 c 128,-1,4
 74 320 74 320 74 390 c 0,5,6
 74 405 74 405 70 418 c 1,7,8
 124 439 124 439 218 439 c 1,9,10
 223 425 223 425 223 391 c 128,-1,11
 223 357 223 357 201 255 c 128,-1,12
 179 153 179 153 179 122 c 128,-1,13
 179 91 179 91 195 91 c 0,14,15
 239 91 239 91 280 122 c 1,16,17
 283 159 283 159 320 423 c 1,18,19
 355 437 355 437 446 437 c 2,20,-1
 465 437 l 1,21,22
 453 390 453 390 425.5 199.5 c 128,-1,23
 398 9 398 9 386 -42 c 128,-1,24
 374 -93 374 -93 353.5 -132 c 128,-1,25
 333 -171 333 -171 303.5 -190.5 c 128,-1,26
 274 -210 274 -210 244 -217 c 128,-1,27
 214 -224 214 -224 166.5 -224 c 128,-1,28
 119 -224 119 -224 76.5 -193.5 c 128,-1,29
 34 -163 34 -163 34 -141 c 0,30,31
 34 -127 34 -127 69.5 -98 c 128,-1,32
 105 -69 105 -69 129 -62 c 1,33,34
 180 -113 180 -113 204 -173 c 1,35,36
 230 -173 230 -173 250 -111 c 128,-1,37
 270 -49 270 -49 277 71 c 1,38,39
 253 47 253 47 204 21.5 c 128,-1,40
 155 -4 155 -4 117 -4 c 0,0,1
442 616 m 0,41,42
 442 588 442 588 406 571 c 0,43,44
 357 548 357 548 161 503 c 1,45,-1
 143 543 l 1,46,47
 237 592 237 592 313 643 c 128,-1,48
 389 694 389 694 407 705 c 1,49,50
 417 691 417 691 429.5 661 c 128,-1,51
 442 631 442 631 442 616 c 0,41,42
EndSplineSet
EndChar

